<?xml version="1.0" encoding="UTF-8" standalone="no"?>
<!-- Created with Inkscape (http://www.inkscape.org/) -->

<svg
   xmlns:dc="http://purl.org/dc/elements/1.1/"
   xmlns:cc="http://creativecommons.org/ns#"
   xmlns:rdf="http://www.w3.org/1999/02/22-rdf-syntax-ns#"
   xmlns:svg="http://www.w3.org/2000/svg"
   xmlns="http://www.w3.org/2000/svg"
   xmlns:sodipodi="http://sodipodi.sourceforge.net/DTD/sodipodi-0.dtd"
   xmlns:inkscape="http://www.inkscape.org/namespaces/inkscape"
   width="80"
   height="35"
   viewBox="0 0 80 35"
   id="svg2"
   version="1.1"
   inkscape:version="0.91 r13725"
   sodipodi:docname="sigma-224-rev.svg"
   inkscape:export-filename="/Users/vdhoeven/vdh/vdhoeven/publs/books/doc/sigma-pattern-232.png"
   inkscape:export-xdpi="90"
   inkscape:export-ydpi="90">
  <defs
     id="defs4">
    <inkscape:perspective
       sodipodi:type="inkscape:persp3d"
       inkscape:vp_x="0 : 160 : 1"
       inkscape:vp_y="0 : 999.99997 : 0"
       inkscape:vp_z="980 : 250 : 1"
       inkscape:persp3d-origin="320 : 106.66667 : 1"
       id="perspective4157" />
    <clipPath
       clipPathUnits="userSpaceOnUse"
       id="clipPath4239">
      <rect
         style="opacity:1;fill:#e0e0e0;fill-opacity:1;stroke:none;stroke-width:0;stroke-linecap:round;stroke-linejoin:round;stroke-miterlimit:4;stroke-dasharray:none;stroke-opacity:1"
         id="rect4241"
         width="160"
         height="70"
         x="70"
         y="982.36212" />
    </clipPath>
  </defs>
  <sodipodi:namedview
     id="base"
     pagecolor="#ffffff"
     bordercolor="#666666"
     borderopacity="1.0"
     inkscape:pageopacity="0.0"
     inkscape:pageshadow="2"
     inkscape:zoom="5.6"
     inkscape:cx="102.01463"
     inkscape:cy="50.16881"
     inkscape:document-units="px"
     inkscape:current-layer="layer1"
     showgrid="true"
     inkscape:window-width="2560"
     inkscape:window-height="1392"
     inkscape:window-x="11"
     inkscape:window-y="2"
     inkscape:window-maximized="0"
     units="px"
     inkscape:snap-bbox="false"
     inkscape:bbox-paths="false"
     inkscape:bbox-nodes="true"
     inkscape:snap-bbox-edge-midpoints="true"
     inkscape:snap-bbox-midpoints="false"
     inkscape:object-paths="true"
     inkscape:snap-intersection-paths="true"
     inkscape:object-nodes="true"
     inkscape:snap-smooth-nodes="true"
     inkscape:snap-midpoints="true"
     showguides="false"
     fit-margin-top="0"
     fit-margin-left="0"
     fit-margin-right="0"
     fit-margin-bottom="0">
    <inkscape:grid
       type="xygrid"
       id="grid4155"
       originx="-130"
       originy="-1.6517347e-05" />
  </sodipodi:namedview>
  <metadata
     id="metadata7">
    <rdf:RDF>
      <cc:Work
         rdf:about="">
        <dc:format>image/svg+xml</dc:format>
        <dc:type
           rdf:resource="http://purl.org/dc/dcmitype/StillImage" />
        <dc:title></dc:title>
      </cc:Work>
    </rdf:RDF>
  </metadata>
  <g
     inkscape:label="Layer 1"
     inkscape:groupmode="layer"
     id="layer1"
     transform="translate(0,-1017.3622)">
    <g
       id="g4226"
       transform="matrix(0.5,0,0,-0.4999998,-35,1543.543)"
       clip-path="url(#clipPath4239)">
      <rect
         y="962.36212"
         x="10"
         height="90"
         width="340"
         id="rect4185"
         style="opacity:1;fill:#ffffff;fill-opacity:1;stroke:none;stroke-width:0;stroke-linecap:round;stroke-linejoin:round;stroke-miterlimit:4;stroke-dasharray:none;stroke-opacity:1" />
      <path
         style="fill:#e0e0e0;fill-opacity:1;fill-rule:evenodd;stroke:#808080;stroke-width:1px;stroke-linecap:butt;stroke-linejoin:miter;stroke-opacity:1"
         d="m 20,997.36214 0,39.99996 15,5 c 0,0 -5,-5 -5,-10 l 0,-34.99996 32,24.99996 30,-20 0,30 c 0,5 -7,10 -7,10 l 15,-5 0,-39.99996 17,-5 c 0,0 -5,5 -5,9.99996 l 0,35 30,-25 28,20 0,-30 c 0,-4.99996 -5,-9.99996 -5,-9.99996 l 15,5 0,-30 -160,0 z"
         id="path4955"
         inkscape:connector-curvature="0"
         sodipodi:nodetypes="cccccccccccccccccccccc" />
      <path
         style="fill:#e0e0e0;fill-opacity:1;fill-rule:evenodd;stroke:none;stroke-width:1px;stroke-linecap:butt;stroke-linejoin:miter;stroke-opacity:1"
         d="m 20,997.36214 10,-10 140,0 10,10 10,-10 0,-25 -180,0 0,25 z"
         id="path4957"
         inkscape:connector-curvature="0"
         sodipodi:nodetypes="ccccccccc" />
      <path
         sodipodi:nodetypes="cccccccccccccccccccccc"
         inkscape:connector-curvature="0"
         id="path4986"
         d="m 180,997.36214 0,39.99996 15,5 c 0,0 -5,-5 -5,-10 l 0,-34.99996 32,24.99996 30,-20 0,30 c 0,5 -7,10 -7,10 l 15,-5 0,-39.99996 17,-5 c 0,0 -5,5 -5,9.99996 l 0,35 30,-25 28,20 0,-30 c 0,-4.99996 -5,-9.99996 -5,-9.99996 l 15,5 0,-30 -160,0 z"
         style="fill:#e0e0e0;fill-opacity:1;fill-rule:evenodd;stroke:#808080;stroke-width:1px;stroke-linecap:butt;stroke-linejoin:miter;stroke-opacity:1" />
      <path
         sodipodi:nodetypes="ccccccccc"
         inkscape:connector-curvature="0"
         id="path4988"
         d="m 180,997.36214 10,-10 140,0 10,10 10,-10 0,-25 -180,0 0,25 z"
         style="fill:#e0e0e0;fill-opacity:1;fill-rule:evenodd;stroke:none;stroke-width:1px;stroke-linecap:butt;stroke-linejoin:miter;stroke-opacity:1" />
    </g>
  </g>
</svg>
