<?xml version="1.0" encoding="UTF-8" standalone="no"?>
<!-- Created with Inkscape (http://www.inkscape.org/) -->

<svg
   xmlns:dc="http://purl.org/dc/elements/1.1/"
   xmlns:cc="http://creativecommons.org/ns#"
   xmlns:rdf="http://www.w3.org/1999/02/22-rdf-syntax-ns#"
   xmlns:svg="http://www.w3.org/2000/svg"
   xmlns="http://www.w3.org/2000/svg"
   xmlns:sodipodi="http://sodipodi.sourceforge.net/DTD/sodipodi-0.dtd"
   xmlns:inkscape="http://www.inkscape.org/namespaces/inkscape"
   width="80"
   height="35"
   viewBox="0 0 80 35"
   id="svg2"
   version="1.1"
   inkscape:version="0.91 r13725"
   sodipodi:docname="sigma-232-rev.svg"
   inkscape:export-filename="/Users/vdhoeven/vdh/vdhoeven/publs/books/doc/sigma-pattern-232.png"
   inkscape:export-xdpi="90"
   inkscape:export-ydpi="90">
  <defs
     id="defs4">
    <inkscape:perspective
       sodipodi:type="inkscape:persp3d"
       inkscape:vp_x="0 : 160 : 1"
       inkscape:vp_y="0 : 999.99996 : 0"
       inkscape:vp_z="980 : 250 : 1"
       inkscape:persp3d-origin="320 : 106.66667 : 1"
       id="perspective4157" />
    <clipPath
       clipPathUnits="userSpaceOnUse"
       id="clipPath4287">
      <rect
         style="opacity:1;fill:#e0e0e0;fill-opacity:1;stroke:none;stroke-width:0;stroke-linecap:round;stroke-linejoin:round;stroke-miterlimit:4;stroke-dasharray:none;stroke-opacity:1"
         id="rect4289"
         width="80"
         height="34.999985"
         x="0"
         y="1017.3622" />
    </clipPath>
  </defs>
  <sodipodi:namedview
     id="base"
     pagecolor="#ffffff"
     bordercolor="#666666"
     borderopacity="1.0"
     inkscape:pageopacity="0.0"
     inkscape:pageshadow="2"
     inkscape:zoom="5.6"
     inkscape:cx="132.90749"
     inkscape:cy="50.168833"
     inkscape:document-units="px"
     inkscape:current-layer="layer1"
     showgrid="true"
     inkscape:window-width="2560"
     inkscape:window-height="1392"
     inkscape:window-x="408"
     inkscape:window-y="0"
     inkscape:window-maximized="0"
     units="px"
     inkscape:snap-bbox="false"
     inkscape:bbox-paths="false"
     inkscape:bbox-nodes="true"
     inkscape:snap-bbox-edge-midpoints="true"
     inkscape:snap-bbox-midpoints="false"
     inkscape:object-paths="true"
     inkscape:snap-intersection-paths="true"
     inkscape:object-nodes="true"
     inkscape:snap-smooth-nodes="true"
     inkscape:snap-midpoints="true"
     showguides="false"
     fit-margin-top="0"
     fit-margin-left="0"
     fit-margin-right="0"
     fit-margin-bottom="0">
    <inkscape:grid
       type="xygrid"
       id="grid4155"
       originx="-130"
       originy="7.0263544e-06" />
  </sodipodi:namedview>
  <metadata
     id="metadata7">
    <rdf:RDF>
      <cc:Work
         rdf:about="">
        <dc:format>image/svg+xml</dc:format>
        <dc:type
           rdf:resource="http://purl.org/dc/dcmitype/StillImage" />
        <dc:title></dc:title>
      </cc:Work>
    </rdf:RDF>
  </metadata>
  <g
     inkscape:label="Layer 1"
     inkscape:groupmode="layer"
     id="layer1"
     transform="translate(0,-1017.3622)">
    <g
       id="g4280"
       clip-path="url(#clipPath4287)"
       transform="matrix(1,0,0,-1,0,2069.7243)">
      <rect
         y="1007.3622"
         x="-30"
         height="44.999981"
         width="170"
         id="rect4185"
         style="opacity:1;fill:#ffffff;fill-opacity:1;stroke:none;stroke-width:0;stroke-linecap:round;stroke-linejoin:round;stroke-miterlimit:4;stroke-dasharray:none;stroke-opacity:1" />
      <path
         style="fill:#e8e8e8;fill-opacity:1;fill-rule:evenodd;stroke:#808080;stroke-width:0.49999991px;stroke-linecap:butt;stroke-linejoin:miter;stroke-opacity:1"
         d="m -25,1024.8622 0,20 7.5,2.5 c 0,0 -2.5,-2.5 -2.5,-5 l 0,-17.5 16,12.5 15,-10 0,15 c 0,2.5 -3.5,5 -3.5,5 l 7.5,-2.5 0,-20 8.5,-2.5 c 0,0 -2.5,2.5 -2.5,5 l 0,17.5 15,-12.5 14,10 0,-15 c 0,-2.5 -2.5,-5 -2.5,-5 l 7.5,2.5 0,-15 -80,0 z"
         id="path4955"
         inkscape:connector-curvature="0"
         sodipodi:nodetypes="cccccccccccccccccccccc" />
      <path
         style="fill:#e8e8e8;fill-opacity:1;fill-rule:evenodd;stroke:none;stroke-width:1px;stroke-linecap:butt;stroke-linejoin:miter;stroke-opacity:1"
         d="m -25,1024.8622 5,-5 70,0 5,5 5,-5 0,-12.5 -90,0 0,12.5 z"
         id="path4957"
         inkscape:connector-curvature="0"
         sodipodi:nodetypes="ccccccccc" />
      <path
         sodipodi:nodetypes="cccccccccccccccccccccc"
         inkscape:connector-curvature="0"
         id="path4986"
         d="m 55,1024.8622 0,20 7.5,2.5 c 0,0 -2.5,-2.5 -2.5,-5 l 0,-17.5 16,12.5 15,-10 0,15 c 0,2.5 -3.5,5 -3.5,5 l 7.5,-2.5 0,-20 8.5,-2.5 c 0,0 -2.5,2.5 -2.5,5 l 0,17.5 15,-12.5 14,10 0,-15 c 0,-2.5 -2.5,-5 -2.5,-5 l 7.5,2.5 0,-15 -80,0 z"
         style="fill:#e8e8e8;fill-opacity:1;fill-rule:evenodd;stroke:#808080;stroke-width:0.49999991px;stroke-linecap:butt;stroke-linejoin:miter;stroke-opacity:1" />
      <path
         sodipodi:nodetypes="ccccccccc"
         inkscape:connector-curvature="0"
         id="path4988"
         d="m 55,1024.8622 5,-5 70,0 5,5 5,-5 0,-12.5 -90,0 0,12.5 z"
         style="fill:#e8e8e8;fill-opacity:1;fill-rule:evenodd;stroke:none;stroke-width:1px;stroke-linecap:butt;stroke-linejoin:miter;stroke-opacity:1" />
    </g>
  </g>
</svg>
