<?xml version="1.0" encoding="UTF-8" standalone="no"?>
<svg
   xmlns:dc="http://purl.org/dc/elements/1.1/"
   xmlns:cc="http://creativecommons.org/ns#"
   xmlns:rdf="http://www.w3.org/1999/02/22-rdf-syntax-ns#"
   xmlns:svg="http://www.w3.org/2000/svg"
   xmlns="http://www.w3.org/2000/svg"
   xmlns:sodipodi="http://sodipodi.sourceforge.net/DTD/sodipodi-0.dtd"
   xmlns:inkscape="http://www.inkscape.org/namespaces/inkscape"
   height="1200"
   width="1600"
   id="svg5506"
   version="1.1"
   inkscape:version="0.91 r13725"
   sodipodi:docname="Translate_button_icon.svg"
   style="fill-rule:evenodd"
   inkscape:export-filename="/Users/vdhoeven/texmacs/web/images/Translate_button_icon.png"
   inkscape:export-xdpi="33.75"
   inkscape:export-ydpi="33.75">
  <metadata
     id="metadata5515">
    <rdf:RDF>
      <cc:Work
         rdf:about="">
        <dc:format>image/svg+xml</dc:format>
        <dc:type
           rdf:resource="http://purl.org/dc/dcmitype/StillImage" />
        <dc:title></dc:title>
      </cc:Work>
    </rdf:RDF>
  </metadata>
  <defs
     id="defs5513" />
  <sodipodi:namedview
     pagecolor="#ffffff"
     bordercolor="#666666"
     borderopacity="1"
     objecttolerance="10"
     gridtolerance="10"
     guidetolerance="10"
     inkscape:pageopacity="0"
     inkscape:pageshadow="2"
     inkscape:window-width="2560"
     inkscape:window-height="1392"
     id="namedview5511"
     showgrid="true"
     inkscape:zoom="0.53176273"
     inkscape:cx="850.91376"
     inkscape:cy="407.10001"
     inkscape:window-x="516"
     inkscape:window-y="22"
     inkscape:window-maximized="0"
     inkscape:current-layer="svg5506">
    <inkscape:grid
       type="xygrid"
       id="grid6057" />
  </sodipodi:namedview>
  <path
     style="fill:#800000"
     d="M 474.70295,578.09974 799.30612,677.83255 832.54494,569.64924 1017.964,833.85794 716.19544,948.3352 749.43971,840.13415 424.83655,740.40132 c 48.67565,-160.53207 -1.46324,2.65641 49.8664,-162.30158 z"
     id="path5"
     connector-curvature="0"
     nodetypes="cccccccc"
     inkscape:connector-curvature="0" />
  <path
     style="fill:#000000;fill-rule:nonzero"
     connector-curvature="0"
     id="path11"
     d="m 1405.57,657.6097 c 11.3672,0 23.5463,1.38031 34.9136,4.05973 11.3672,4.79048 17.0509,10.71769 17.0509,17.78162 -2.4358,11.85442 -39.7853,25.98228 -111.2366,42.14001 -43.0332,9.09379 -78.7588,15.91414 -107.1769,20.13626 -8.1195,45.46898 -12.9912,82.08776 -14.6151,110.09991 49.5288,-18.75596 94.1858,-29.39246 133.9712,-31.50352 -0.812,-10.23052 -3.2478,-18.91834 -6.4956,-25.98227 -2.4359,-6.98274 -4.0597,-11.61083 -4.0597,-13.6407 0,-8.20066 3.2477,-12.1792 10.5553,-12.1792 9.7433,0 20.2986,6.73916 31.6659,20.13627 5.6836,8.76902 9.7433,19.24313 12.1791,31.6659 45.469,3.1666 84.4425,15.91415 115.2964,37.99908 45.469,31.34113 68.2035,70.9641 68.2035,118.86893 0,54.56288 -34.1018,104.17278 -102.3052,148.99218 -59.2721,38.8111 -124.2278,59.0285 -194.8671,60.6524 60.084,-22.6533 109.6127,-48.3108 149.3981,-76.8913 56.8363,-41.4904 86.0663,-85.8228 86.8782,-132.75328 1.624,-40.8409 -12.1792,-73.07516 -39.7854,-96.21562 -21.9225,-14.53385 -49.5287,-23.46525 -82.0065,-26.71303 -6.4956,32.31546 -20.2987,65.52405 -42.2212,99.62579 -21.9226,32.88381 -50.3407,64.30614 -86.8782,94.59174 9.7433,15.5894 20.2986,28.8242 32.4778,39.6231 7.3075,8.6878 11.3672,16.1577 12.9911,22.6532 -1.6239,10.7989 -12.9911,16.9697 -34.1017,18.6749 -11.3672,-1.7052 -23.5464,-11.9357 -37.3495,-30.8541 -3.2478,-4.222 -7.3075,-11.286 -13.8031,-20.9482 -46.2809,29.1489 -86.8783,43.3579 -119.3561,42.952 -48.7168,-0.5684 -73.0752,-27.119 -73.0752,-79.4083 0,-33.4523 17.0509,-67.96002 50.3407,-103.60446 21.1106,-22.6533 48.7168,-43.60151 82.8185,-63.08821 0.812,-31.25993 6.4956,-73.31875 17.8628,-126.25764 l -13.8031,0 c -14.615,0 -31.6659,-2.35464 -50.3406,-7.14513 -25.9823,-6.49557 -38.9734,-14.93981 -38.9734,-25.17033 0,-3.32898 8.9314,-4.79048 26.7942,-4.79048 23.5464,0 51.9645,-3.0854 86.0663,-9.0126 l 24.3584,-111.58577 c 0,-16.15773 -4.8717,-28.86468 -12.1792,-38.12087 -8.1195,-7.45366 -11.3673,-12.84499 -11.3673,-16.15773 0,-7.03957 8.9314,-10.49847 25.9823,-10.49847 8.1195,0 20.2987,8.8421 36.5376,26.6562 16.2389,17.26198 24.3584,31.07318 25.1703,41.29558 -7.3075,15.19964 -14.615,30.54542 -22.7345,46.13478 -4.8716,12.42278 -11.3672,30.2044 -17.8628,53.42606 10.5553,-2.76062 25.9823,-6.73914 47.0929,-12.098 62.5198,-15.67055 98.2455,-23.54643 107.9889,-23.54643 z m -229.7808,256.4938 c -21.1106,12.99114 -38.9735,28.41812 -54.4004,46.11855 -28.4181,30.28562 -43.0332,57.16105 -43.0332,80.95115 0,33.5334 13.8031,50.503 40.5973,51.0714 24.3584,-1.6239 57.6482,-17.2133 97.4336,-46.9305 -1.6239,-4.4657 -7.3075,-16.9697 -15.427,-38.1616 -14.615,-32.80259 -22.7345,-63.90013 -25.1703,-93.049 z m 181.8759,-60.65238 c -40.5973,3.16659 -81.1946,13.5595 -122.6039,30.85396 -1.6239,0.48716 -5.6836,1.78628 -10.5553,3.97853 2.4359,48.63558 11.3673,90.04483 29.2301,124.55259 0,0.5684 0.8119,1.1367 0.8119,1.7051 54.4004,-47.01174 88.5022,-100.68139 103.1172,-161.09018 z"
     class="fil1"
     inkscape:connector-curvature="0" />
  <path
     style="fill:#000000;fill-rule:nonzero"
     connector-curvature="0"
     id="path13"
     d="m 293.70631,525.40675 0,-30.69095 64.14553,-10.83637 -37.01822,-102.03649 -175.49112,0 -39.41822,102.03649 63.78189,10.83637 0,30.69095 -168.6547476,0 0,-30.69095 50.1891486,-10.83637 188.138409,-480.8151 67.20007,0 177.09112,480.8151 53.9637,10.83637 0,30.69095 -243.92756,0 z m -55.78188,-375.20044 -2.69091,0 -71.49099,184.5093 140.80016,0 -66.61826,-184.5093 z"
     class="fil1"
     inkscape:connector-curvature="0" />
</svg>
