<?xml version="1.0" standalone="no"?>
<!DOCTYPE svg PUBLIC "-//W3C//DTD SVG 20010904//EN"
 "http://www.w3.org/TR/2001/REC-SVG-20010904/DTD/svg10.dtd">
<svg version="1.0" xmlns="http://www.w3.org/2000/svg"
 width="1280.000000pt" height="1280.000000pt" viewBox="0 0 1280.000000 1280.000000"
 preserveAspectRatio="xMidYMid meet">
<metadata>
Created by potrace 1.15, written by Peter Selinger 2001-2017
</metadata>
<g transform="translate(0.000000,1280.000000) scale(0.100000,-0.100000)"
fill="#000000" stroke="none">
<path d="M1537 12789 c-98 -23 -202 -108 -228 -186 -8 -26 -15 -33 -28 -27 -9
4 -38 13 -66 21 -133 38 -259 -55 -242 -178 19 -146 187 -300 479 -442 114
-56 477 -207 496 -207 3 0 -73 40 -169 88 -313 156 -518 314 -583 446 -24 50
-27 68 -23 115 2 31 8 64 12 74 13 30 -14 19 -36 -15 -20 -32 -21 -72 -4 -123
4 -14 2 -12 -9 5 -9 14 -15 49 -16 78 0 46 4 58 29 83 33 32 67 37 110 14 26
-13 29 -20 33 -85 4 -58 14 -88 48 -158 36 -73 60 -103 144 -188 58 -58 141
-127 196 -163 316 -210 787 -372 1222 -420 141 -16 384 -14 506 5 196 29 357
94 458 187 65 59 92 101 103 161 30 162 -135 318 -277 261 -49 -20 -62 -39
-62 -90 0 -43 36 -85 75 -85 33 0 68 35 60 61 -16 48 60 6 86 -48 27 -55 21
-113 -18 -185 -88 -161 -356 -253 -678 -234 -213 13 -476 61 -556 101 -87 45
-137 129 -90 155 31 16 38 12 33 -20 -4 -25 0 -31 23 -40 43 -16 79 6 83 52 7
89 -118 125 -195 56 -46 -42 -37 -102 25 -156 l37 -32 -40 16 c-191 77 -305
192 -305 308 0 46 26 95 54 102 31 7 72 -16 88 -51 9 -21 14 -23 32 -13 42 21
66 51 66 82 0 78 -83 142 -176 134 -134 -11 -207 -137 -159 -273 16 -45 11
-62 -6 -19 -36 90 -29 162 26 284 42 94 50 128 39 177 l-8 38 -5 -40 c-5 -32
-14 -45 -51 -73 -115 -85 -148 -142 -134 -225 l7 -42 -40 36 c-22 20 -57 42
-77 49 -37 12 -106 10 -137 -4 -23 -10 -79 63 -86 112 -6 43 14 72 49 72 21 0
21 0 2 -21 -14 -15 -16 -24 -7 -37 16 -26 63 -21 85 9 19 24 19 28 4 56 -18
35 -33 43 -85 43 -41 0 -74 -27 -84 -67 -10 -41 14 -102 60 -153 25 -28 40
-50 35 -50 -15 0 -93 91 -131 155 -83 137 -103 267 -55 363 41 83 138 129 218
102 46 -15 76 -53 76 -97 l0 -34 -26 20 c-39 31 -89 28 -125 -8 -33 -33 -37
-66 -11 -97 60 -75 217 -69 280 11 45 57 17 159 -56 207 -77 51 -196 70 -295
47z m326 -697 c15 -10 86 -76 157 -145 72 -70 135 -127 142 -127 15 0 90 -51
84 -58 -9 -9 -292 137 -384 198 -100 66 -122 93 -103 129 15 27 65 28 104 3z"/>
<path d="M5733 12789 c-68 -20 -123 -102 -123 -183 0 -43 36 -111 66 -124 67
-31 131 3 141 74 3 23 0 51 -6 62 -16 30 -57 39 -80 18 -26 -24 -34 -6 -21 44
15 54 62 80 110 60 93 -39 123 -210 68 -390 -22 -71 -81 -196 -104 -220 -8 -8
-1 11 16 42 36 67 48 149 28 188 -19 35 -70 40 -92 8 -29 -41 -14 -108 24
-108 22 0 37 37 21 53 -15 15 -14 27 4 27 40 0 42 -81 3 -152 -17 -30 -24 -35
-39 -28 -36 20 -69 11 -113 -30 l-44 -40 5 42 c8 66 -11 117 -67 183 -27 32
-50 66 -50 75 0 8 -5 22 -11 30 -19 27 -3 -99 25 -194 14 -48 26 -100 25 -115
-1 -20 -3 -18 -10 13 -36 151 -177 170 -219 29 -11 -36 -10 -46 6 -80 24 -48
45 -52 64 -10 31 68 80 26 80 -70 0 -105 -69 -220 -176 -294 -45 -31 -60 -27
-24 6 72 66 17 215 -68 184 -28 -11 -55 -70 -46 -104 14 -58 80 -51 72 7 -5
30 1 35 20 16 29 -29 5 -95 -52 -146 -81 -71 -373 -124 -536 -97 -122 20 -239
111 -279 218 -38 104 -20 246 33 255 14 3 17 0 13 -12 -4 -9 -1 -28 5 -42 17
-36 49 -28 72 19 16 33 17 45 7 78 -40 133 -189 57 -220 -114 -27 -150 59
-306 213 -384 131 -67 322 -89 496 -59 395 69 826 359 976 659 43 85 74 201
74 277 0 85 46 118 89 64 17 -21 21 -40 20 -88 l-2 -61 -7 50 c-8 56 -18 85
-30 85 -5 0 -4 -17 2 -37 17 -64 3 -149 -41 -238 -67 -135 -189 -262 -396
-410 -44 -31 -82 -59 -85 -63 -15 -17 223 125 293 175 27 19 51 32 54 30 7 -7
145 57 243 113 88 51 177 80 240 80 60 0 151 -29 220 -69 36 -21 106 -57 155
-80 l90 -41 -45 37 c-56 47 -105 96 -198 200 -79 89 -105 105 -131 78 -13 -13
-13 -15 -1 -10 24 9 47 -15 68 -72 11 -29 18 -53 16 -53 -3 0 -23 12 -45 27
-70 46 -194 45 -263 -2 -20 -14 -39 -25 -40 -25 -2 0 5 24 16 53 21 56 44 81
67 72 11 -4 12 -3 1 10 -7 8 -19 15 -28 15 -8 0 -83 -69 -166 -154 -83 -85
-161 -159 -174 -166 -12 -6 26 38 86 97 94 92 116 120 151 193 54 110 64 195
32 257 -11 23 -31 49 -43 57 -29 21 -97 20 -126 0 -13 -9 -24 -14 -26 -13 -1
2 -10 30 -20 62 -38 125 -147 189 -263 156z m-23 -699 c16 -30 4 -57 -54 -118
-50 -53 -181 -160 -241 -197 l-30 -19 25 29 c14 15 41 45 60 64 19 20 58 75
87 122 83 135 126 169 153 119z m-193 -82 c-3 -7 -5 -2 -5 12 0 14 2 19 5 13
2 -7 2 -19 0 -25z"/>
<path d="M6922 12779 c-56 -28 -99 -81 -119 -149 -9 -30 -17 -56 -18 -57 -1
-1 -20 7 -43 18 -35 18 -47 19 -75 10 -120 -40 -128 -219 -17 -388 52 -79 182
-202 296 -279 89 -61 264 -167 264 -160 0 2 -38 32 -85 66 -103 75 -251 213
-312 292 -89 116 -130 249 -105 341 6 20 7 37 2 37 -13 0 -23 -30 -30 -90 l-7
-55 -2 62 c-1 73 13 111 46 119 40 10 63 -20 63 -81 0 -200 152 -456 374 -630
271 -211 569 -325 852 -325 229 0 411 91 499 251 28 50 30 62 30 155 0 94 -2
104 -30 150 -20 31 -44 56 -69 68 -36 17 -40 18 -72 3 -47 -23 -63 -82 -37
-135 22 -46 54 -54 71 -18 6 14 9 33 5 43 -5 13 -2 15 11 10 10 -4 19 -7 22
-7 15 0 34 -69 34 -124 0 -89 -29 -162 -90 -229 -95 -104 -245 -144 -437 -115
-144 22 -264 61 -309 100 -57 51 -81 117 -52 146 19 19 26 14 20 -15 -11 -56
58 -64 72 -8 9 34 -18 93 -46 104 -82 30 -136 -103 -72 -178 50 -60 -10 -28
-89 48 -76 72 -101 129 -102 228 0 63 4 86 16 99 22 21 56 4 65 -32 9 -35 35
-27 58 17 18 33 19 41 7 79 -46 153 -196 119 -224 -50 -4 -21 -4 -20 -6 6 0
18 11 72 25 120 14 49 28 116 30 149 3 55 3 57 -7 25 -6 -19 -28 -53 -49 -75
-56 -59 -74 -100 -74 -171 l-1 -62 -42 39 c-43 40 -77 48 -112 29 -34 -18 -82
101 -62 153 6 15 17 27 26 27 18 0 19 -4 3 -29 -9 -15 -9 -23 1 -35 17 -20 26
-20 45 0 21 20 20 63 0 92 -22 32 -73 27 -92 -8 -21 -40 -8 -122 28 -186 17
-31 27 -53 21 -50 -17 11 -68 109 -94 182 -52 146 -55 280 -7 374 50 98 170
83 170 -22 0 -40 0 -41 -20 -23 -40 36 -90 -5 -90 -76 0 -44 48 -89 93 -89 63
0 117 66 117 143 0 48 -44 128 -85 156 -51 35 -127 39 -183 10z m245 -701 c17
-18 46 -58 64 -88 46 -77 108 -160 123 -166 7 -3 24 -19 37 -37 l23 -32 -29
19 c-108 69 -276 219 -295 265 -9 22 -9 35 0 50 15 30 41 26 77 -11z m120 -80
c-2 -13 -4 -5 -4 17 -1 22 1 32 4 23 2 -10 2 -28 0 -40z"/>
<path d="M11060 12784 c-64 -17 -122 -53 -146 -90 -10 -14 -19 -46 -21 -72 -8
-86 61 -152 159 -152 65 0 125 26 143 61 21 40 19 57 -14 90 -36 36 -86 39
-125 8 l-26 -20 0 36 c0 74 91 122 177 95 57 -18 98 -54 123 -105 19 -40 22
-58 18 -130 -4 -74 -10 -95 -46 -167 -41 -84 -143 -218 -164 -218 -7 0 4 17
24 38 61 63 85 127 67 179 -13 40 -35 53 -86 53 -42 -1 -63 -13 -82 -49 -11
-20 -10 -27 7 -50 23 -31 69 -35 86 -8 9 14 7 21 -6 31 -25 18 -22 26 7 26 27
0 45 -25 45 -63 0 -38 -61 -123 -85 -119 -106 19 -150 10 -212 -43 l-39 -34 0
62 c1 80 -20 114 -111 181 -60 45 -69 56 -74 91 l-5 40 -8 -38 c-11 -50 -3
-83 41 -181 45 -99 55 -191 28 -262 -9 -25 -19 -43 -21 -41 -2 2 3 21 12 43
25 60 16 152 -20 199 -74 96 -236 98 -294 3 -37 -59 -23 -111 37 -143 27 -13
29 -13 39 10 28 61 99 69 127 15 63 -122 -72 -295 -300 -380 -29 -11 -28 -9
15 34 57 59 61 103 12 147 -27 24 -41 29 -86 29 -43 0 -58 -5 -80 -25 -56 -52
-16 -143 52 -119 22 8 27 16 27 42 0 40 30 44 47 6 32 -69 -71 -146 -243 -183
-549 -117 -983 -44 -1095 185 -44 91 -34 185 25 231 28 21 49 16 49 -14 0 -14
8 -32 18 -40 39 -28 88 -9 110 43 31 75 -39 143 -134 130 -134 -18 -234 -158
-203 -282 76 -302 683 -437 1346 -299 435 90 897 301 1126 513 133 123 208
262 209 384 0 53 2 59 30 73 44 23 78 19 111 -14 24 -25 29 -37 29 -78 -1 -26
-8 -61 -16 -78 -8 -16 -12 -22 -9 -12 16 59 15 93 -4 125 -22 34 -49 45 -36
15 4 -10 10 -44 13 -75 6 -82 -29 -150 -127 -249 -100 -100 -245 -194 -471
-306 -102 -51 -181 -93 -177 -93 21 0 401 157 502 207 235 118 387 242 445
364 52 112 33 190 -60 237 -53 26 -142 30 -197 7 -36 -15 -52 -9 -53 19 0 5
-14 31 -31 57 -72 112 -243 165 -399 123z m-16 -697 c29 -47 -72 -124 -330
-252 -93 -47 -174 -85 -179 -85 -6 0 15 17 45 37 30 21 59 36 63 35 5 -1 70
58 145 131 75 74 146 139 157 146 29 16 86 9 99 -12z"/>
<path d="M3805 12289 c-16 -17 -17 -25 -8 -50 l11 -29 -70 0 c-57 0 -79 -5
-120 -27 -116 -63 -139 -213 -48 -315 37 -42 39 -43 103 -43 76 0 107 20 107
68 0 24 -3 28 -17 22 -119 -52 -226 62 -167 176 30 59 142 85 238 57 53 -16
119 -82 139 -139 18 -52 22 -25 5 35 -9 29 -33 62 -86 115 -52 52 -72 79 -70
95 4 29 35 34 34 5 -1 -28 17 -35 38 -14 20 20 20 29 0 49 -22 22 -67 20 -89
-5z"/>
<path d="M4312 12298 c-16 -16 -15 -43 3 -58 12 -10 16 -9 21 3 3 9 3 21 -1
27 -3 5 -1 10 5 10 17 0 23 -29 11 -56 -6 -14 -25 -42 -41 -62 -30 -37 -61
-111 -59 -141 0 -9 7 2 15 25 59 165 274 137 250 -33 -12 -89 -56 -130 -112
-104 -22 10 -24 8 -24 -13 0 -56 61 -92 111 -66 65 35 88 212 39 299 -34 59
-69 84 -120 84 -39 0 -42 1 -37 25 11 55 -28 93 -61 60z"/>
<path d="M8430 12285 c-6 -15 -7 -37 -4 -51 6 -23 4 -24 -40 -24 -36 0 -52 -6
-81 -31 -103 -90 -72 -359 41 -359 38 0 74 38 74 76 0 27 -3 29 -29 13 -51
-32 -104 27 -105 117 -1 86 41 134 118 134 55 0 112 -58 137 -140 6 -22 7 -23
8 -4 2 35 -28 106 -59 146 -38 47 -54 83 -47 102 9 22 24 20 23 -4 -1 -25 14
-30 28 -7 14 22 -3 51 -33 55 -15 3 -24 -4 -31 -23z"/>
<path d="M8906 12289 c-16 -24 -12 -44 11 -53 22 -9 36 3 30 26 -4 14 -1 18
11 16 9 -2 18 -14 20 -26 3 -18 -11 -37 -59 -80 -61 -56 -109 -135 -108 -177
0 -12 6 -4 15 20 43 116 202 179 320 126 53 -24 74 -55 74 -109 0 -51 -22 -93
-60 -116 -33 -19 -101 -21 -118 -4 -22 22 -36 -5 -21 -38 28 -57 119 -72 180
-31 99 67 116 202 37 293 -48 54 -95 74 -177 74 l-71 0 12 25 c26 57 -60 105
-96 54z"/>
<path d="M844 12285 c-18 -15 -18 -15 6 -10 38 8 68 -14 103 -74 26 -46 28
-53 11 -46 -97 42 -153 54 -249 55 -66 0 -105 -4 -113 -12 -8 -8 -12 -47 -12
-112 1 -97 13 -153 55 -250 7 -17 0 -15 -46 11 -56 33 -82 66 -75 96 5 21 -10
23 -18 1 -18 -47 -15 -52 165 -306 37 -51 90 -136 118 -188 28 -52 51 -88 51
-80 0 8 -23 78 -50 155 -27 77 -67 192 -89 255 -43 121 -64 241 -59 325 l3 50
105 -2 c111 -2 163 -14 365 -86 129 -46 296 -99 300 -95 2 2 -38 25 -89 51
-51 27 -152 93 -224 147 -179 135 -212 150 -258 115z"/>
<path d="M11865 12286 c-16 -7 -77 -48 -134 -91 -125 -93 -189 -134 -296 -192
-130 -70 -109 -64 330 91 134 47 253 70 340 64 l50 -3 -2 -106 c-3 -116 -6
-131 -117 -454 -36 -104 -65 -197 -65 -205 0 -8 23 29 51 83 29 55 96 156 149
227 134 176 149 211 113 256 -15 19 -15 18 -9 -3 10 -35 -19 -76 -76 -107 -45
-25 -51 -26 -44 -10 44 107 48 124 53 231 3 82 1 117 -8 128 -10 12 -36 15
-114 15 -97 -1 -153 -13 -250 -55 -17 -7 -15 0 11 46 33 56 66 82 96 75 21 -5
23 10 1 18 -23 9 -46 7 -79 -8z"/>
<path d="M774 11924 c22 -352 71 -532 276 -1034 162 -396 241 -693 271 -1016
31 -347 -46 -763 -179 -956 -77 -112 -155 -158 -271 -158 l-74 0 39 -31 c22
-18 61 -42 87 -54 l48 -23 -33 -6 c-18 -3 -55 -17 -83 -30 l-50 -24 41 -1
c291 -6 456 -215 471 -596 6 -156 -7 -254 -54 -392 -36 -110 -86 -205 -219
-420 -135 -219 -193 -336 -228 -454 -38 -132 -50 -236 -43 -383 10 -235 65
-391 227 -651 221 -354 310 -576 326 -810 14 -200 -55 -427 -169 -551 -70 -77
-152 -115 -265 -123 l-87 -6 63 -27 c35 -16 75 -28 90 -28 21 -1 12 -8 -43
-35 -38 -18 -81 -42 -94 -53 l-24 -19 79 -5 c63 -3 91 -10 133 -33 140 -77
241 -277 286 -567 22 -142 31 -475 16 -613 -30 -274 -86 -475 -247 -874 -64
-157 -133 -337 -155 -400 -77 -221 -122 -445 -135 -668 l-7 -113 37 0 c55 0
219 19 316 36 227 41 416 99 865 267 555 207 769 257 1098 257 195 0 327 -17
506 -66 306 -84 451 -208 451 -388 l0 -69 25 23 c14 13 38 50 54 82 l29 57 12
-47 c6 -26 20 -63 30 -82 l19 -35 1 47 c1 176 91 314 254 393 119 57 187 69
386 70 152 0 185 -3 255 -23 167 -47 261 -93 499 -240 381 -235 547 -290 841
-279 241 9 399 64 660 227 326 203 526 289 744 321 218 31 480 -38 617 -164
78 -71 115 -151 122 -264 l5 -88 28 60 c16 33 28 74 29 90 1 26 5 21 34 -40
18 -38 42 -78 53 -88 20 -18 20 -17 25 56 14 211 211 347 598 412 131 22 467
31 610 16 283 -29 467 -82 928 -266 364 -145 508 -192 696 -229 125 -25 303
-46 388 -46 l48 0 0 38 c0 76 -31 299 -59 426 -44 193 -87 328 -230 714 -178
479 -222 630 -257 872 -23 159 -15 482 15 621 54 251 124 418 209 505 67 68
110 87 205 92 42 2 77 7 77 9 0 14 -94 76 -135 90 l-30 10 50 12 c28 7 65 20
84 30 l34 18 -76 6 c-194 17 -325 126 -391 325 -38 115 -49 209 -43 362 10
238 67 387 276 725 224 360 279 529 268 820 -10 243 -62 396 -227 660 -173
277 -262 469 -306 660 -27 114 -25 312 4 419 70 257 206 391 412 405 l85 6
-61 28 c-34 15 -74 27 -90 27 -24 1 -17 7 41 34 39 18 78 42 88 53 17 20 17
20 -52 25 -137 10 -239 89 -312 243 -81 170 -117 357 -126 660 -8 285 17 485
93 748 40 138 62 196 185 497 184 452 246 687 265 1009 l7 114 -92 -6 c-321
-23 -550 -84 -1141 -305 -540 -201 -757 -252 -1083 -252 -194 0 -327 17 -502
65 -318 87 -455 206 -455 395 l0 75 -26 -30 c-14 -16 -38 -56 -53 -88 l-29
-58 -12 48 c-6 26 -20 64 -30 83 l-19 35 -1 -41 c-1 -122 -52 -247 -129 -316
-64 -57 -128 -91 -236 -124 -83 -25 -104 -27 -270 -28 -145 -1 -192 3 -245 18
-184 51 -265 90 -527 252 -207 127 -310 180 -424 218 -212 71 -472 75 -687 10
-121 -36 -209 -79 -377 -184 -355 -221 -576 -310 -810 -326 -203 -14 -429 56
-555 173 -76 70 -111 147 -119 263 l-6 85 -27 -61 c-16 -34 -28 -74 -28 -90
-1 -24 -6 -19 -30 34 -16 35 -40 76 -53 92 l-24 29 -5 -74 c-12 -181 -144
-303 -410 -379 -166 -48 -290 -61 -568 -61 -291 0 -400 15 -652 86 -155 44
-207 63 -518 190 -452 184 -687 246 -1009 265 l-114 7 7 -109z m228 -9 c259
-30 457 -88 830 -241 542 -223 812 -286 1233 -288 283 -1 474 25 674 91 181
60 335 172 382 278 l21 48 24 -59 c70 -173 223 -290 446 -341 92 -20 324 -23
428 -4 184 33 365 111 606 263 171 108 257 155 349 193 236 98 561 100 801 5
86 -35 177 -85 377 -209 181 -112 283 -164 410 -206 324 -107 663 -77 882 80
85 61 136 128 174 229 l18 48 22 -42 c69 -134 225 -241 442 -303 186 -55 323
-71 584 -71 466 1 723 62 1335 317 273 113 467 171 670 201 129 18 220 29 220
24 0 -2 -7 -60 -15 -130 -30 -260 -88 -457 -242 -833 -157 -380 -225 -606
-270 -895 -25 -161 -24 -549 0 -706 57 -362 193 -618 366 -691 l34 -15 -56
-23 c-86 -35 -154 -82 -204 -144 -170 -207 -209 -568 -99 -905 44 -133 91
-225 232 -453 120 -196 167 -286 203 -390 50 -148 65 -369 36 -534 -29 -167
-84 -292 -238 -539 -213 -341 -282 -523 -294 -780 -17 -369 128 -645 386 -735
l35 -12 -48 -22 c-169 -82 -297 -331 -353 -685 -26 -170 -24 -533 6 -726 44
-287 104 -489 257 -862 164 -397 218 -582 249 -843 8 -71 13 -130 12 -132 -7
-6 -244 26 -347 47 -141 28 -352 99 -616 208 -303 124 -439 172 -619 216 -364
89 -735 100 -1080 31 -303 -61 -500 -169 -583 -322 -17 -32 -32 -51 -32 -43 0
26 -56 133 -91 177 -179 223 -589 294 -973 169 -131 -43 -230 -93 -441 -224
-199 -122 -297 -174 -397 -208 -208 -71 -488 -72 -691 -3 -104 36 -194 83
-390 203 -226 140 -317 187 -451 231 -147 50 -275 68 -421 62 -322 -15 -553
-147 -630 -359 l-22 -61 -23 47 c-125 259 -640 413 -1225 367 -364 -29 -570
-84 -1070 -286 -309 -125 -393 -155 -535 -190 -101 -26 -420 -73 -420 -63 0 2
7 61 15 132 31 264 83 441 258 871 213 528 270 778 271 1195 1 230 -7 316 -46
499 -58 276 -171 472 -318 551 -30 16 -48 30 -40 30 25 0 133 56 178 92 94 75
174 216 209 370 20 92 23 324 4 428 -19 105 -71 261 -121 361 -24 46 -90 161
-148 254 -122 199 -174 297 -208 397 -79 234 -71 523 21 753 38 93 74 159 193
350 216 345 293 582 279 854 -17 322 -155 557 -369 630 l-52 18 48 23 c135 68
251 249 312 487 46 183 59 301 58 548 -2 433 -67 719 -282 1240 -148 358 -205
540 -236 755 -18 129 -29 220 -24 220 2 0 60 -7 130 -15z"/>
<path d="M279 11807 c-70 -46 -101 -174 -64 -264 8 -19 15 -37 15 -38 0 -1
-20 -10 -45 -19 -137 -53 -215 -243 -171 -416 30 -115 80 -170 164 -177 115
-11 187 120 136 247 -16 40 -54 70 -89 70 -9 0 -30 -13 -46 -29 -36 -36 -39
-86 -8 -125 l20 -26 -36 0 c-74 0 -122 91 -95 177 18 57 54 98 105 123 40 19
58 22 130 18 74 -4 95 -10 167 -46 82 -40 218 -142 218 -163 0 -6 -22 9 -50
34 -58 52 -120 73 -169 56 -38 -13 -51 -35 -51 -86 0 -48 29 -83 69 -83 54 0
81 68 38 94 -14 9 -21 7 -31 -6 -18 -25 -26 -22 -26 7 0 27 25 45 63 45 38 0
123 -61 119 -85 -19 -106 -10 -150 42 -211 l33 -39 -61 0 c-79 0 -113 -21
-180 -112 -46 -60 -56 -69 -91 -73 -36 -5 -37 -6 -15 -13 48 -13 83 -7 177 34
53 22 115 44 139 48 46 9 123 -1 152 -19 13 -9 12 -9 -8 -3 -14 4 -57 8 -96 8
-62 0 -75 -3 -108 -29 -45 -34 -75 -95 -76 -150 0 -81 67 -166 131 -166 32 0
65 24 84 59 13 27 13 29 -10 39 -61 28 -69 99 -15 127 118 61 288 -65 370
-275 l21 -55 -38 39 c-64 65 -112 69 -158 14 -35 -42 -36 -124 0 -162 39 -42
106 -32 119 19 10 40 -10 68 -45 63 -23 -4 -29 -1 -29 14 0 10 12 24 26 30 41
19 90 -14 130 -86 87 -159 135 -668 85 -905 -23 -107 -72 -217 -125 -278 -92
-106 -258 -128 -323 -44 -21 28 -16 49 14 49 29 0 53 25 53 57 0 56 -76 98
-128 71 -91 -47 -72 -210 34 -291 165 -126 363 -14 464 264 57 155 75 281 75
526 0 161 -5 251 -18 335 -37 237 -103 477 -184 675 -25 60 -46 124 -46 140 0
17 -2 24 -5 16 -2 -7 -33 41 -67 107 -196 375 -414 572 -631 572 -49 0 -55 2
-69 30 -23 44 -19 78 14 111 25 24 37 29 78 29 26 -1 62 -8 78 -16 17 -8 22
-12 12 -9 -59 16 -93 15 -124 -4 -41 -26 -44 -44 -5 -34 53 15 123 5 187 -26
147 -73 270 -231 431 -556 51 -104 94 -187 94 -183 0 7 -84 226 -125 327 -45
108 -134 282 -192 371 -142 218 -328 328 -434 257z m507 -792 c18 -19 56 -73
84 -120 56 -93 174 -334 167 -341 -5 -5 -55 67 -53 77 2 15 -27 37 -42 32 -15
-4 -15 -3 -2 6 12 9 -6 32 -106 133 -130 131 -144 150 -144 195 0 61 47 70 96
18z"/>
<path d="M12368 11815 c-148 -54 -299 -249 -438 -565 -48 -108 -160 -387 -160
-397 0 -4 40 72 88 168 156 313 317 522 448 584 47 22 67 26 113 22 31 -2 64
-8 75 -12 16 -7 17 -5 8 12 -22 40 -77 50 -147 28 -14 -4 -13 -2 5 9 14 9 49
15 78 16 46 0 58 -4 83 -29 32 -33 37 -67 14 -110 -13 -26 -20 -29 -85 -33
-58 -4 -88 -14 -158 -48 -73 -36 -104 -60 -188 -144 -512 -514 -763 -1733
-468 -2275 37 -69 108 -149 159 -181 103 -64 243 -32 311 69 72 109 40 241
-58 241 -73 0 -114 -74 -67 -121 13 -13 27 -18 40 -14 27 9 25 -17 -6 -54 -50
-59 -135 -64 -228 -13 -162 88 -250 342 -233 673 11 217 58 472 102 560 44 87
128 137 154 90 16 -31 12 -36 -22 -36 -26 0 -34 -5 -42 -27 -24 -67 67 -108
118 -53 40 43 40 102 1 162 -37 56 -112 49 -165 -15 -30 -36 -31 -36 -20 -8
27 74 94 186 136 228 73 75 155 102 229 78 65 -22 69 -90 6 -128 -25 -15 -28
-21 -19 -37 22 -42 52 -65 82 -65 78 0 142 83 134 176 -11 134 -137 207 -273
159 -52 -18 -58 -11 -9 10 22 9 66 17 99 17 59 0 81 -6 220 -66 62 -26 119
-33 145 -16 11 7 7 10 -17 10 -36 0 -53 15 -104 91 -46 67 -119 104 -185 94
l-47 -7 36 43 c55 64 65 109 45 213 -4 25 59 75 105 83 42 6 77 -16 77 -49 0
-23 -9 -23 -26 0 -10 13 -17 15 -31 6 -27 -17 -23 -63 8 -86 23 -17 30 -18 50
-7 36 19 48 40 49 85 0 56 -33 87 -94 87 -52 -1 -75 -12 -132 -65 -24 -22 -44
-36 -44 -30 0 15 91 92 155 131 221 134 432 96 470 -86 16 -77 -35 -153 -102
-153 l-34 0 20 26 c31 39 28 89 -8 125 -48 47 -100 32 -135 -38 -52 -104 16
-253 115 -253 211 0 271 379 87 545 -27 24 -64 49 -83 55 -39 13 -39 13 -25
40 20 37 29 115 19 160 -25 113 -122 165 -231 125z m-277 -775 c24 -13 26 -66
2 -100 -9 -14 -74 -85 -145 -158 -70 -73 -128 -137 -128 -143 0 -5 -16 -33
-35 -62 -19 -28 -35 -48 -35 -43 0 25 149 313 206 398 77 116 94 129 135 108z"/>
<path d="M4403 11793 c-7 -3 -13 -18 -13 -35 0 -25 3 -29 23 -26 13 2 23 11
25 24 3 23 -16 44 -35 37z"/>
<path d="M9048 11793 c-20 -5 -30 -27 -21 -49 9 -25 67 -15 71 13 4 24 -22 42
-50 36z"/>
<path d="M3704 11775 c-11 -26 4 -45 35 -45 30 0 50 28 36 50 -10 16 -65 12
-71 -5z"/>
<path d="M8364 11775 c-9 -23 3 -45 25 -45 19 0 31 25 24 48 -6 17 -42 15 -49
-3z"/>
<path d="M3644 11715 c-10 -25 22 -53 44 -39 9 6 17 20 17 30 0 25 -52 33 -61
9z"/>
<path d="M4437 11723 c-11 -10 -8 -41 5 -49 14 -9 38 23 31 42 -5 15 -25 19
-36 7z"/>
<path d="M8327 11716 c-8 -21 19 -54 33 -40 7 7 10 20 8 30 -4 23 -33 30 -41
10z"/>
<path d="M9094 11715 c-10 -25 22 -53 44 -39 9 6 17 20 17 30 0 25 -52 33 -61
9z"/>
<path d="M3574 11675 c-9 -22 9 -37 37 -33 16 2 24 10 24 23 0 26 -52 35 -61
10z"/>
<path d="M4487 11684 c-15 -15 -7 -45 11 -42 9 2 17 12 17 22 0 20 -16 31 -28
20z"/>
<path d="M8284 11676 c-7 -19 3 -36 22 -36 10 0 14 8 12 22 -4 26 -26 36 -34
14z"/>
<path d="M9167 11677 c-8 -22 8 -39 34 -35 35 5 33 42 -2 46 -16 2 -29 -3 -32
-11z"/>
<path d="M3506 11651 c-11 -18 6 -42 28 -39 29 4 29 42 -1 46 -11 2 -24 -1
-27 -7z"/>
<path d="M4532 11638 c2 -12 10 -23 18 -23 22 0 19 39 -3 43 -15 3 -18 -1 -15
-20z"/>
<path d="M8234 11645 c-7 -18 3 -35 22 -35 8 0 14 10 14 25 0 27 -27 35 -36
10z"/>
<path d="M9244 11645 c-4 -9 -2 -21 4 -27 16 -16 47 -5 47 17 0 26 -42 34 -51
10z"/>
<path d="M3434 11625 c-4 -9 -2 -21 4 -27 15 -15 44 -1 40 19 -4 23 -36 29
-44 8z"/>
<path d="M4583 11624 c-8 -22 15 -44 26 -25 10 16 4 41 -10 41 -5 0 -12 -7
-16 -16z"/>
<path d="M8190 11615 c0 -17 5 -25 13 -22 6 2 12 12 12 22 0 10 -6 20 -12 23
-8 2 -13 -6 -13 -23z"/>
<path d="M9324 11625 c-4 -9 -2 -21 4 -27 15 -15 44 -1 40 19 -4 23 -36 29
-44 8z"/>
<path d="M3360 11600 c0 -16 5 -21 23 -18 12 2 22 10 22 18 0 8 -10 16 -22 18
-18 3 -23 -2 -23 -18z"/>
<path d="M4630 11600 c0 -11 7 -20 15 -20 8 0 15 9 15 20 0 11 -7 20 -15 20
-8 0 -15 -9 -15 -20z"/>
<path d="M8140 11600 c0 -11 7 -20 15 -20 8 0 15 9 15 20 0 11 -7 20 -15 20
-8 0 -15 -9 -15 -20z"/>
<path d="M9395 11610 c-9 -15 4 -30 26 -30 12 0 19 7 19 20 0 21 -33 29 -45
10z"/>
<path d="M3234 11596 c-8 -22 3 -33 18 -18 9 9 9 15 0 24 -9 9 -13 7 -18 -6z"/>
<path d="M3286 11601 c-8 -12 21 -34 34 -26 17 11 11 35 -9 35 -11 0 -22 -4
-25 -9z"/>
<path d="M4682 11594 c4 -21 22 -23 26 -1 2 10 -3 17 -13 17 -10 0 -15 -6 -13
-16z"/>
<path d="M4727 11596 c-3 -8 -2 -18 3 -21 13 -8 24 15 12 27 -6 6 -11 4 -15
-6z"/>
<path d="M8054 11599 c-3 -6 -1 -16 5 -22 8 -8 11 -5 11 11 0 24 -5 28 -16 11z"/>
<path d="M8092 11594 c4 -21 22 -23 26 -1 2 10 -3 17 -13 17 -10 0 -15 -6 -13
-16z"/>
<path d="M9470 11596 c0 -19 26 -27 39 -12 13 15 4 26 -21 26 -10 0 -18 -6
-18 -14z"/>
<path d="M9545 11600 c-10 -17 12 -37 25 -24 8 8 6 15 -4 23 -10 9 -16 9 -21
1z"/>
<path d="M3125 11590 c-3 -5 1 -10 10 -10 9 0 13 5 10 10 -3 6 -8 10 -10 10
-2 0 -7 -4 -10 -10z"/>
<path d="M3170 11584 c0 -17 22 -14 28 4 2 7 -3 12 -12 12 -9 0 -16 -7 -16
-16z"/>
<path d="M4770 11584 c0 -8 5 -12 10 -9 6 3 10 10 10 16 0 5 -4 9 -10 9 -5 0
-10 -7 -10 -16z"/>
<path d="M4800 11590 c0 -5 5 -10 11 -10 5 0 7 5 4 10 -3 6 -8 10 -11 10 -2 0
-4 -4 -4 -10z"/>
<path d="M7985 11590 c-3 -5 -1 -10 4 -10 6 0 11 5 11 10 0 6 -2 10 -4 10 -3
0 -8 -4 -11 -10z"/>
<path d="M8015 11591 c-3 -5 -1 -12 5 -16 5 -3 10 1 10 9 0 18 -6 21 -15 7z"/>
<path d="M9602 11588 c6 -18 28 -21 28 -4 0 9 -7 16 -16 16 -9 0 -14 -5 -12
-12z"/>
<path d="M9655 11590 c-3 -5 1 -10 10 -10 9 0 13 5 10 10 -3 6 -8 10 -10 10
-2 0 -7 -4 -10 -10z"/>
<path d="M1200 9671 c0 -6 5 -13 10 -16 6 -3 10 1 10 9 0 9 -4 16 -10 16 -5 0
-10 -4 -10 -9z"/>
<path d="M11580 9664 c0 -8 5 -12 10 -9 6 4 8 11 5 16 -9 14 -15 11 -15 -7z"/>
<path d="M1202 9619 c2 -6 8 -10 13 -10 5 0 11 4 13 10 2 6 -4 11 -13 11 -9 0
-15 -5 -13 -11z"/>
<path d="M11572 9618 c6 -18 28 -21 28 -4 0 9 -7 16 -16 16 -9 0 -14 -5 -12
-12z"/>
<path d="M1197 9565 c-8 -18 11 -31 25 -17 11 11 3 32 -12 32 -4 0 -10 -7 -13
-15z"/>
<path d="M11575 9570 c-10 -17 12 -37 25 -24 8 8 6 15 -4 23 -10 9 -16 9 -21
1z"/>
<path d="M1197 9513 c-4 -3 -7 -15 -7 -25 0 -21 25 -24 33 -4 6 16 -16 40 -26
29z"/>
<path d="M11580 9505 c-14 -16 -5 -35 16 -35 15 0 20 35 5 44 -5 3 -14 -1 -21
-9z"/>
<path d="M1184 9435 c-8 -21 3 -47 19 -43 6 3 13 14 15 25 4 24 -26 40 -34 18z"/>
<path d="M11582 9418 c2 -13 10 -23 18 -23 8 0 16 10 18 23 3 17 -2 22 -18 22
-16 0 -21 -5 -18 -22z"/>
<path d="M1164 9355 c-4 -9 -2 -21 4 -27 15 -15 44 -1 40 19 -4 23 -36 29 -44
8z"/>
<path d="M11594 9355 c-4 -9 -2 -21 4 -27 15 -15 44 -1 40 19 -4 23 -36 29
-44 8z"/>
<path d="M1144 9286 c-9 -24 4 -48 23 -44 12 2 18 12 18 28 0 29 -32 41 -41
16z"/>
<path d="M11614 9286 c-9 -24 4 -48 23 -44 12 2 18 12 18 28 0 29 -32 41 -41
16z"/>
<path d="M720 9274 c-86 -37 -133 -115 -132 -217 0 -51 -3 -66 -11 -58 -30 30
-87 -3 -87 -50 0 -31 17 -49 46 -49 26 0 39 27 23 46 -9 11 -15 12 -26 2 -13
-10 -15 -9 -12 7 3 12 14 21 27 23 18 3 37 -11 80 -58 59 -65 103 -93 162
-104 32 -7 30 -5 -15 17 -60 29 -87 57 -114 117 -40 87 -18 215 43 256 58 37
160 7 186 -56 12 -29 10 -79 -5 -112 -6 -15 -2 -18 19 -18 78 0 104 134 39
202 -58 62 -150 84 -223 52z"/>
<path d="M11953 9279 c-24 -6 -60 -26 -85 -48 -42 -38 -43 -40 -43 -104 0 -76
20 -107 68 -107 24 0 28 3 22 18 -52 118 62 225 176 166 59 -30 85 -142 57
-238 -16 -53 -82 -119 -139 -139 -52 -18 -25 -22 35 -5 29 9 62 33 115 86 52
52 79 72 95 70 29 -4 34 -35 5 -34 -28 1 -35 -17 -14 -38 20 -20 29 -20 49 0
22 22 20 67 -5 89 -17 16 -25 17 -50 8 l-29 -11 0 70 c0 57 -5 79 -27 120 -44
82 -134 119 -230 97z"/>
<path d="M1117 9224 c-12 -12 -8 -52 6 -57 22 -8 39 8 35 34 -3 23 -27 37 -41
23z"/>
<path d="M11644 9216 c-10 -26 0 -51 21 -51 16 0 20 7 20 30 0 33 -30 49 -41
21z"/>
<path d="M1077 9154 c-13 -13 -7 -55 9 -61 24 -9 51 23 38 45 -12 19 -36 27
-47 16z"/>
<path d="M11680 9145 c-17 -21 -2 -50 26 -50 14 0 19 7 19 30 0 34 -24 45 -45
20z"/>
<path d="M1012 9084 c-20 -36 15 -78 45 -53 21 18 12 63 -14 67 -12 2 -25 -4
-31 -14z"/>
<path d="M11737 9094 c-4 -4 -7 -20 -7 -35 0 -19 6 -30 21 -34 28 -9 41 6 37
41 -3 28 -34 45 -51 28z"/>
<path d="M715 8534 c-22 -8 -56 -27 -75 -43 -51 -40 -78 -53 -100 -46 -25 8
-26 22 -2 21 24 -1 30 15 10 28 -23 14 -52 -3 -56 -33 -4 -25 30 -42 71 -34
26 5 27 4 27 -42 0 -41 5 -52 38 -85 57 -57 152 -74 251 -44 65 19 101 52 101
93 0 34 -39 71 -76 71 -21 0 -23 -2 -13 -24 36 -77 -75 -140 -177 -101 -127
48 -87 199 66 246 l25 7 -25 0 c-14 1 -43 -6 -65 -14z"/>
<path d="M819 8536 c-74 -16 -136 -57 -156 -104 -13 -32 -13 -39 1 -68 24 -52
112 -64 162 -23 35 29 -8 79 -53 62 -13 -5 -15 -2 -10 11 4 10 7 19 7 22 0 15
69 34 124 34 184 0 318 -129 348 -337 21 -144 -37 -422 -104 -499 -51 -57
-117 -81 -146 -52 -19 19 -14 26 15 20 18 -3 30 1 39 13 31 43 -38 80 -95 51
-40 -21 -54 -48 -42 -79 24 -61 124 -79 180 -31 39 32 40 19 3 -32 -39 -53
-102 -109 -154 -135 -77 -40 -218 -36 -234 6 -8 20 23 55 48 55 30 0 18 31
-19 53 -46 27 -107 15 -150 -28 -43 -43 -44 -82 -3 -129 42 -47 85 -59 188
-54 47 3 77 1 66 -3 -47 -18 -169 -9 -274 21 -58 17 -125 30 -150 29 l-45 -1
35 -10 c19 -5 53 -27 75 -48 58 -55 100 -73 172 -74 l62 -1 -35 -34 c-40 -39
-51 -73 -37 -112 10 -25 8 -28 -26 -47 -20 -11 -50 -23 -67 -26 -37 -8 -84 8
-84 29 0 18 4 19 29 3 15 -9 23 -9 35 1 20 17 20 26 0 45 -37 37 -114 7 -114
-44 0 -68 113 -78 219 -20 31 17 45 22 31 11 -82 -66 -262 -124 -387 -124
-102 0 -179 32 -208 88 -18 32 -18 36 -2 69 13 27 25 37 58 46 46 13 70 2 44
-20 -38 -31 9 -90 72 -90 46 0 93 45 93 90 0 89 -100 143 -201 108 -52 -18
-87 -48 -109 -93 -54 -112 14 -241 150 -282 30 -9 56 -18 57 -18 2 -1 -6 -19
-17 -41 -33 -63 -8 -122 63 -155 56 -25 118 -24 198 5 91 32 172 90 267 192
45 48 82 83 82 77 0 -15 -110 -138 -165 -184 -90 -76 -155 -143 -155 -160 0
-9 7 -22 15 -29 13 -11 14 -10 10 1 -3 8 0 22 7 31 15 19 118 61 118 48 0 -5
-5 -12 -11 -16 -25 -15 -49 -90 -49 -154 0 -64 24 -139 49 -154 6 -4 11 -11
11 -16 0 -13 -103 29 -118 48 -7 9 -10 23 -7 31 4 11 3 12 -10 1 -8 -7 -15
-19 -15 -27 0 -8 69 -83 154 -167 85 -83 160 -162 166 -176 7 -14 -28 19 -79
72 -134 141 -270 218 -386 218 -52 0 -116 -29 -139 -62 -21 -29 -20 -97 0
-126 9 -13 14 -24 13 -26 -2 -1 -30 -10 -62 -20 -110 -33 -179 -130 -163 -230
18 -110 123 -176 233 -147 123 33 124 184 1 198 -37 4 -49 2 -67 -16 -25 -25
-27 -53 -5 -72 24 -20 -5 -30 -50 -18 -28 8 -41 19 -54 45 -16 34 -15 37 3 72
13 24 37 44 70 61 44 23 62 26 145 25 79 -1 111 -6 190 -33 88 -30 193 -81
205 -101 3 -4 -20 5 -50 22 -106 57 -215 47 -215 -22 0 -31 30 -60 62 -60 31
0 68 23 68 42 0 24 -27 34 -51 20 -24 -16 -29 -15 -29 3 0 40 77 42 152 4 33
-17 37 -22 28 -39 -20 -37 -11 -69 30 -114 l40 -44 -42 5 c-66 8 -117 -11
-183 -67 -32 -27 -66 -50 -75 -50 -8 0 -22 -5 -30 -11 -25 -18 108 -2 173 20
33 11 82 23 110 26 50 4 51 4 13 -5 -153 -39 -170 -181 -27 -220 36 -9 48 -8
79 7 48 23 51 44 9 63 -68 31 -26 80 70 80 105 0 220 -69 294 -176 31 -45 30
-57 -2 -28 -79 72 -220 24 -188 -64 11 -28 65 -52 102 -45 59 12 55 79 -5 71
-33 -5 -39 17 -7 27 57 18 140 -37 173 -115 25 -61 56 -196 65 -286 23 -227
-53 -398 -207 -467 -66 -29 -185 -34 -232 -10 -39 20 -57 60 -22 49 12 -4 28
1 43 13 31 26 18 50 -37 70 -34 12 -44 11 -76 -2 -70 -29 -75 -90 -12 -151 45
-43 118 -69 198 -68 169 0 307 125 368 332 28 96 34 263 14 380 -70 399 -360
827 -665 979 -79 40 -197 71 -271 71 -66 0 -97 22 -86 63 8 32 46 47 114 46
l57 -2 -50 -7 c-56 -8 -85 -18 -85 -30 0 -5 17 -4 38 2 64 18 147 4 236 -41
136 -67 253 -178 397 -377 34 -46 63 -84 66 -84 8 0 -113 202 -163 273 -19 26
-32 51 -30 56 4 7 -69 158 -150 311 -55 104 -54 237 2 345 81 153 144 287 139
295 -3 4 19 44 48 87 55 80 160 253 153 253 -2 0 -32 -39 -66 -86 -80 -110
-227 -264 -306 -320 -120 -86 -238 -120 -326 -96 -21 6 -38 7 -38 2 0 -13 30
-23 90 -30 l55 -7 -62 -2 c-73 -1 -111 13 -119 46 -10 39 20 63 80 63 129 1
306 74 444 186 239 192 443 541 497 853 65 370 -77 672 -340 720 -32 6 -59 11
-59 10 -1 0 -26 -6 -57 -13z m221 -1125 c0 -16 -121 -173 -184 -240 -69 -72
-115 -98 -146 -81 -44 24 -6 77 100 141 70 42 157 110 195 153 34 39 35 39 35
27z m-272 -1705 c48 -25 196 -192 257 -291 l19 -30 -29 25 c-15 14 -45 41 -65
61 -20 19 -72 57 -116 83 -128 78 -171 129 -126 155 23 14 28 13 60 -3z m25
-193 c-7 -2 -19 -2 -25 0 -7 3 -2 5 12 5 14 0 19 -2 13 -5z"/>
<path d="M11840 8536 c-157 -33 -274 -177 -316 -386 -31 -156 -3 -390 68 -570
98 -248 290 -517 461 -645 124 -94 285 -155 407 -155 85 0 118 -46 64 -89 -21
-17 -40 -21 -88 -20 l-61 2 50 7 c56 8 85 18 85 30 0 5 -17 4 -37 -2 -65 -18
-148 -4 -237 41 -133 66 -260 188 -399 381 -33 47 -65 90 -70 95 -24 24 115
-211 170 -288 19 -27 32 -51 29 -54 -7 -7 57 -145 114 -244 51 -88 80 -176 80
-239 0 -59 -29 -152 -66 -212 -33 -54 -127 -248 -120 -248 1 0 25 27 51 60 27
34 95 101 152 151 116 101 136 130 109 157 -14 13 -16 14 -11 2 9 -24 -15 -47
-72 -68 -29 -11 -53 -18 -53 -16 0 3 12 23 28 46 24 37 27 50 27 128 0 78 -3
91 -27 128 -16 23 -28 43 -28 46 0 2 24 -5 53 -16 56 -21 81 -44 72 -67 -4
-11 -3 -12 10 -1 8 7 15 19 15 27 0 8 -69 83 -154 167 -85 83 -159 161 -166
174 -6 12 38 -26 97 -86 93 -94 120 -116 194 -152 110 -54 193 -64 256 -31 23
11 49 31 57 43 21 29 20 97 0 126 -9 13 -14 24 -13 26 2 1 30 10 62 20 220 67
219 357 -1 383 -121 14 -207 -93 -139 -172 26 -30 92 -44 125 -26 30 16 39 57
18 80 -24 26 -6 34 44 21 32 -9 45 -19 57 -45 16 -33 16 -37 0 -71 -13 -27
-31 -42 -75 -62 -84 -39 -201 -37 -329 6 -86 29 -196 83 -208 102 -3 4 20 -5
50 -22 64 -34 147 -46 185 -26 35 19 40 70 8 92 -41 29 -108 14 -108 -25 0
-25 27 -36 51 -21 24 16 29 15 29 -3 0 -40 -77 -42 -152 -4 -33 17 -37 22 -28
39 19 36 11 69 -29 113 l-39 42 67 0 c72 1 91 9 170 77 24 21 51 38 60 38 9 0
23 5 31 11 27 19 -99 3 -194 -25 -48 -14 -100 -26 -115 -25 -18 0 -11 5 24 14
62 16 115 70 115 116 0 39 -43 83 -97 99 -36 11 -46 10 -80 -6 -46 -23 -55
-49 -19 -58 14 -3 30 -16 37 -27 18 -34 -10 -52 -83 -57 -83 -5 -160 24 -228
85 -45 41 -119 133 -106 133 3 0 22 -11 42 -25 75 -51 174 -22 174 50 0 26 -6
39 -26 52 -34 22 -89 22 -111 0 -25 -24 -6 -52 36 -52 34 0 39 -6 16 -25 -42
-35 -139 24 -176 105 -26 59 -57 188 -68 289 -27 233 58 413 222 474 104 39
246 21 255 -32 3 -14 0 -17 -12 -13 -9 4 -28 1 -42 -5 -36 -17 -28 -49 19 -72
33 -16 45 -17 78 -7 134 40 56 189 -115 220 -33 6 -62 11 -65 10 -3 0 -31 -6
-61 -13z m5 -1203 c23 -21 74 -58 115 -83 91 -55 150 -106 150 -131 0 -24 -35
-42 -62 -33 -46 14 -187 169 -278 304 l-23 35 29 -27 c16 -15 47 -44 69 -65z
m188 -50 c-7 -2 -19 -2 -25 0 -7 3 -2 5 12 5 14 0 19 -2 13 -5z"/>
<path d="M12046 8534 c165 -59 137 -274 -33 -250 -91 12 -134 55 -107 109 14
26 13 27 -9 27 -35 0 -77 -37 -77 -66 0 -69 68 -109 185 -109 129 0 205 53
205 142 0 43 1 45 24 39 38 -9 78 10 74 35 -4 30 -33 47 -55 33 -23 -14 -18
-29 7 -28 24 1 26 -14 4 -23 -19 -7 -55 9 -102 47 -37 30 -111 61 -141 59 -9
0 2 -7 25 -15z"/>
<path d="M1020 8410 c-7 -4 -10 -16 -8 -26 5 -28 52 -26 56 2 3 23 -26 38 -48
24z"/>
<path d="M11732 8388 c2 -17 10 -23 28 -23 18 0 26 6 28 23 3 19 -1 22 -28 22
-27 0 -31 -3 -28 -22z"/>
<path d="M1073 8355 c-8 -22 16 -36 40 -24 23 13 17 33 -11 37 -14 2 -25 -3
-29 -13z"/>
<path d="M11674 8359 c-9 -15 23 -40 42 -32 8 3 14 13 12 22 -4 19 -43 27 -54
10z"/>
<path d="M1112 8303 c2 -10 12 -18 23 -18 11 0 21 8 23 18 3 13 -3 17 -23 17
-20 0 -26 -4 -23 -17z"/>
<path d="M11642 8303 c4 -22 43 -25 43 -3 0 8 -11 16 -23 18 -19 3 -23 0 -20
-15z"/>
<path d="M1140 8256 c0 -19 14 -28 34 -20 25 10 19 34 -9 34 -15 0 -25 -6 -25
-14z"/>
<path d="M11612 8253 c2 -10 12 -18 23 -18 11 0 21 8 23 18 3 13 -3 17 -23 17
-20 0 -26 -4 -23 -17z"/>
<path d="M1167 8214 c-14 -14 -6 -24 19 -24 16 0 24 5 22 13 -5 14 -31 21 -41
11z"/>
<path d="M11595 8209 c-4 -6 -2 -15 5 -19 17 -10 42 -1 37 14 -5 16 -34 19
-42 5z"/>
<path d="M1180 8155 c0 -8 9 -15 20 -15 11 0 20 7 20 15 0 8 -9 15 -20 15 -11
0 -20 -7 -20 -15z"/>
<path d="M11580 8155 c0 -8 9 -15 20 -15 11 0 20 7 20 15 0 8 -9 15 -20 15
-11 0 -20 -7 -20 -15z"/>
<path d="M1190 8105 c0 -10 7 -15 18 -13 21 4 19 22 -2 26 -10 2 -16 -3 -16
-13z"/>
<path d="M11577 8114 c-9 -10 2 -24 19 -24 8 0 14 7 14 15 0 15 -21 21 -33 9z"/>
<path d="M11576 8072 c-3 -6 -1 -14 5 -17 15 -10 25 3 12 16 -7 7 -13 7 -17 1z"/>
<path d="M1198 8058 c9 -9 15 -9 24 0 9 9 7 12 -12 12 -19 0 -21 -3 -12 -12z"/>
<path d="M1205 8020 c4 -6 11 -8 16 -5 14 9 11 15 -7 15 -8 0 -12 -5 -9 -10z"/>
<path d="M11575 8020 c3 -5 10 -10 16 -10 5 0 9 5 9 10 0 6 -7 10 -16 10 -8 0
-12 -4 -9 -10z"/>
<path d="M1205 7990 c3 -5 8 -10 11 -10 2 0 4 5 4 10 0 6 -5 10 -11 10 -5 0
-7 -4 -4 -10z"/>
<path d="M11580 7989 c0 -5 5 -7 10 -4 6 3 10 8 10 11 0 2 -4 4 -10 4 -5 0
-10 -5 -10 -11z"/>
<path d="M12330 6207 c-167 -57 -332 -228 -508 -529 -29 -49 -50 -88 -48 -88
2 0 32 38 66 85 75 103 213 251 292 312 116 89 249 130 341 105 20 -6 37 -7
37 -2 0 13 -30 23 -90 30 l-55 7 62 2 c73 1 111 -13 119 -46 10 -40 -20 -63
-81 -63 -178 0 -417 -130 -582 -317 -84 -94 -184 -245 -237 -355 -218 -458
-171 -895 115 -1053 50 -28 62 -30 155 -30 94 0 104 2 150 30 31 20 56 44 68
69 17 36 18 40 3 72 -23 47 -82 63 -135 37 -47 -23 -55 -58 -18 -73 14 -5 33
-7 43 -3 13 5 15 2 10 -11 -4 -10 -7 -19 -7 -22 0 -15 -69 -34 -124 -34 -89 0
-162 29 -229 90 -104 95 -144 245 -115 437 22 144 61 264 100 309 51 57 117
81 146 52 19 -19 14 -26 -15 -20 -56 11 -64 -58 -8 -72 31 -8 90 16 104 42 14
26 0 64 -31 86 -36 26 -111 21 -146 -9 -41 -34 -48 -31 -21 8 41 60 114 128
164 155 42 22 63 26 132 27 63 0 86 -4 99 -16 21 -22 4 -56 -32 -65 -34 -9
-28 -33 15 -58 30 -17 39 -18 80 -7 56 14 101 59 101 101 0 56 -64 109 -150
123 -21 4 -20 4 6 6 18 0 72 -11 120 -25 49 -14 116 -28 149 -30 55 -3 57 -3
25 7 -19 6 -53 28 -75 49 -59 56 -100 74 -171 74 l-62 1 39 42 c40 43 48 77
29 112 -18 34 101 82 153 62 15 -6 27 -17 27 -26 0 -18 -4 -19 -29 -3 -15 9
-23 9 -35 -1 -20 -17 -20 -26 0 -45 20 -21 63 -20 92 0 32 22 27 73 -8 92 -40
21 -122 8 -188 -29 -31 -17 -51 -25 -44 -17 7 9 46 32 86 52 168 82 346 103
448 53 86 -42 109 -106 58 -157 -14 -14 -34 -20 -62 -20 -40 0 -41 0 -23 20
36 40 -5 90 -76 90 -44 0 -89 -48 -89 -93 0 -63 66 -117 143 -117 48 0 128 44
156 85 29 43 38 110 21 160 -19 59 -87 120 -156 141 -33 10 -60 19 -61 19 -2
1 6 19 17 41 33 63 8 122 -63 155 -55 25 -117 23 -197 -4z m-239 -497 c43 -24
5 -78 -101 -141 -77 -46 -160 -108 -166 -123 -3 -7 -19 -24 -37 -37 l-32 -23
19 29 c73 113 214 270 261 291 37 16 33 16 56 4z m-53 -197 c-10 -2 -28 -2
-40 0 -13 2 -5 4 17 4 22 1 32 -1 23 -4z"/>
<path d="M1205 4810 c-3 -5 -1 -10 4 -10 6 0 11 5 11 10 0 6 -2 10 -4 10 -3 0
-8 -4 -11 -10z"/>
<path d="M11580 4810 c0 -5 5 -10 11 -10 5 0 7 5 4 10 -3 6 -8 10 -11 10 -2 0
-4 -4 -4 -10z"/>
<path d="M1200 4780 c0 -5 7 -10 16 -10 8 0 12 5 9 10 -3 6 -10 10 -16 10 -5
0 -9 -4 -9 -10z"/>
<path d="M11575 4780 c-3 -5 1 -10 10 -10 9 0 13 5 10 10 -3 6 -8 10 -10 10
-2 0 -7 -4 -10 -10z"/>
<path d="M1196 4741 c-3 -5 1 -11 9 -15 15 -6 29 7 18 18 -9 9 -21 8 -27 -3z"/>
<path d="M11575 4740 c-3 -5 3 -10 15 -10 12 0 18 5 15 10 -3 6 -10 10 -15 10
-5 0 -12 -4 -15 -10z"/>
<path d="M1190 4695 c0 -10 7 -15 18 -13 21 4 19 22 -2 26 -10 2 -16 -3 -16
-13z"/>
<path d="M11577 4704 c-9 -10 2 -24 19 -24 8 0 14 7 14 15 0 15 -21 21 -33 9z"/>
<path d="M1180 4645 c0 -8 9 -15 20 -15 11 0 20 7 20 15 0 8 -9 15 -20 15 -11
0 -20 -7 -20 -15z"/>
<path d="M11580 4645 c0 -8 9 -15 20 -15 11 0 20 7 20 15 0 8 -9 15 -20 15
-11 0 -20 -7 -20 -15z"/>
<path d="M1169 4609 c-11 -6 -11 -11 -2 -20 12 -12 43 -6 43 10 0 14 -25 20
-41 10z"/>
<path d="M11593 4598 c2 -7 12 -13 22 -13 10 0 20 6 23 13 2 7 -6 12 -23 12
-17 0 -25 -5 -22 -12z"/>
<path d="M1147 4564 c-16 -16 -6 -35 16 -32 12 2 22 10 22 18 0 16 -26 25 -38
14z"/>
<path d="M11615 4561 c-9 -16 3 -31 26 -31 14 0 19 6 17 17 -4 20 -33 29 -43
14z"/>
<path d="M708 4546 c-85 -31 -121 -72 -120 -137 1 -38 -1 -40 -23 -35 -37 9
-77 -10 -73 -35 4 -30 33 -47 56 -33 20 13 14 29 -10 28 -22 -1 -23 15 -2 23
19 7 55 -9 102 -47 37 -30 111 -61 141 -59 9 0 -2 7 -25 15 -166 59 -138 274
33 250 89 -12 130 -56 104 -112 -10 -22 -8 -24 13 -24 56 0 92 61 66 111 -29
53 -182 85 -262 55z"/>
<path d="M11935 4551 c-39 -10 -88 -36 -104 -55 -34 -41 8 -116 64 -116 22 0
24 2 14 24 -25 54 11 96 94 111 52 10 123 -18 142 -55 39 -75 -1 -152 -98
-189 -30 -12 -43 -20 -31 -20 35 -1 106 28 144 58 51 40 78 53 100 46 25 -8
26 -22 3 -21 -25 1 -31 -15 -10 -28 22 -14 51 3 55 33 4 25 -36 44 -74 35 -23
-6 -24 -4 -24 40 0 36 -6 52 -31 81 -48 54 -153 78 -244 56z"/>
<path d="M1115 4511 c-9 -16 3 -31 26 -31 14 0 19 6 17 17 -4 20 -33 29 -43
14z"/>
<path d="M11647 4514 c-16 -16 -6 -35 16 -32 12 2 22 10 22 18 0 16 -26 25
-38 14z"/>
<path d="M1081 4470 c-21 -12 -5 -42 21 -38 12 2 23 8 25 15 6 16 -30 34 -46
23z"/>
<path d="M11683 4465 c-13 -10 -15 -17 -7 -25 16 -16 48 -9 52 11 4 23 -22 31
-45 14z"/>
<path d="M1013 4429 c-18 -18 -3 -39 29 -39 25 0 29 4 26 23 -3 25 -36 35 -55
16z"/>
<path d="M11737 4434 c-4 -4 -7 -16 -7 -26 0 -13 8 -18 31 -18 26 0 30 3 27
23 -3 22 -36 36 -51 21z"/>
<path d="M750 3977 c-21 -7 -64 -40 -108 -84 -72 -72 -104 -88 -116 -57 -8 21
-9 21 15 20 28 -1 34 17 14 38 -20 20 -29 20 -49 0 -22 -22 -20 -67 5 -89 17
-16 25 -17 50 -8 l29 11 0 -70 c0 -91 33 -157 98 -195 88 -52 214 -25 270 57
20 29 23 44 20 88 -5 59 -27 90 -68 94 -20 2 -24 -1 -22 -17 17 -96 16 -104
-26 -145 -34 -34 -46 -40 -81 -40 -87 0 -140 62 -141 164 0 104 47 182 134
222 53 24 38 30 -24 11z"/>
<path d="M12025 3967 c60 -29 87 -57 114 -117 40 -87 18 -215 -43 -256 -56
-36 -151 -11 -182 47 -16 31 -16 85 0 122 7 14 3 17 -18 17 -78 0 -104 -134
-39 -202 101 -108 265 -81 335 55 14 28 19 58 19 109 0 54 3 68 11 60 18 -18
53 -14 71 6 20 22 22 63 5 80 -17 17 -55 15 -62 -4 -8 -22 11 -44 31 -37 11 4
14 2 11 -8 -2 -8 -15 -15 -27 -17 -17 -3 -37 12 -79 58 -59 65 -103 93 -162
104 -32 7 -30 5 15 -17z"/>
<path d="M828 3966 c-124 -33 -204 -166 -163 -272 19 -50 38 -64 90 -64 43 0
85 36 85 75 0 33 -35 68 -61 60 -23 -8 -24 6 -4 45 20 38 90 65 146 56 258
-41 378 -407 303 -926 -23 -159 -54 -290 -79 -341 -45 -87 -129 -137 -155 -90
-16 31 -12 38 20 33 25 -4 31 0 40 23 16 43 -6 79 -52 83 -30 3 -43 -2 -62
-23 -36 -39 -40 -81 -14 -134 42 -84 115 -89 177 -13 l31 37 -16 -40 c-76
-190 -192 -305 -308 -305 -46 0 -95 26 -102 54 -7 31 16 72 51 88 21 9 23 14
13 32 -21 42 -51 66 -82 66 -78 0 -142 -83 -134 -176 11 -134 137 -207 273
-159 45 16 62 11 19 -6 -90 -36 -166 -29 -284 27 -81 38 -143 51 -187 38 -28
-8 -27 -8 12 -13 32 -5 45 -14 73 -51 85 -115 142 -148 225 -134 l42 7 -36
-40 c-56 -62 -67 -110 -47 -218 4 -25 -82 -85 -122 -85 -34 0 -60 23 -60 52 0
21 0 21 21 2 15 -14 24 -16 37 -7 26 16 21 63 -9 85 -24 19 -28 19 -56 4 -35
-18 -43 -33 -43 -85 0 -41 27 -74 67 -84 41 -10 102 14 153 60 28 25 50 40 50
34 0 -14 -108 -103 -166 -137 -78 -46 -169 -74 -237 -74 -117 0 -207 69 -224
173 -12 76 38 147 104 147 l34 0 -20 -26 c-31 -39 -28 -89 8 -125 16 -16 39
-29 51 -29 80 0 127 135 81 236 -37 81 -109 106 -191 64 -48 -25 -78 -65 -101
-142 -33 -103 -18 -232 35 -317 31 -49 99 -107 143 -122 26 -8 33 -15 27 -28
-4 -9 -13 -38 -21 -66 -38 -133 55 -259 178 -242 146 19 300 187 442 479 56
114 207 477 207 496 0 3 -40 -73 -88 -169 -151 -302 -313 -516 -437 -579 -52
-26 -145 -34 -193 -17 -34 13 -27 -10 11 -34 31 -20 71 -21 122 -4 14 4 12 2
-5 -9 -14 -9 -49 -15 -78 -16 -46 0 -58 4 -83 29 -32 33 -37 67 -14 110 13 26
20 29 85 33 214 16 453 245 635 608 152 304 256 658 294 1002 16 141 14 384
-5 506 -29 200 -95 359 -192 463 -81 88 -164 119 -254 95z m216 -1713 c-21
-60 -152 -313 -203 -390 -68 -103 -91 -121 -127 -104 -32 14 -32 66 -1 112 13
19 79 89 145 156 67 67 122 127 122 133 0 11 60 110 66 110 2 0 1 -8 -2 -17z"/>
<path d="M11836 3963 c-70 -21 -161 -114 -209 -213 -86 -180 -122 -395 -114
-675 10 -308 67 -591 184 -905 52 -140 182 -402 253 -507 159 -237 344 -372
512 -373 53 0 59 -2 73 -30 23 -44 19 -78 -14 -111 -25 -24 -37 -29 -78 -29
-26 1 -61 8 -78 16 -16 8 -22 12 -12 9 59 -16 93 -15 125 4 34 22 45 49 15 36
-10 -4 -44 -10 -75 -13 -82 -6 -150 29 -249 127 -100 100 -194 244 -306 471
-51 102 -93 182 -93 179 0 -4 18 -53 39 -110 182 -485 348 -747 530 -837 111
-55 191 -36 239 58 26 53 30 142 7 197 -8 20 -14 37 -13 38 2 1 24 12 49 24
57 26 112 81 139 136 59 121 47 297 -27 393 -67 88 -197 79 -245 -18 -37 -72
-13 -197 43 -225 40 -21 57 -19 90 14 36 36 39 86 8 125 l-20 26 36 0 c82 0
127 -102 87 -194 -39 -86 -104 -126 -206 -126 -72 0 -136 18 -216 61 -67 35
-190 134 -190 151 0 7 17 -4 38 -24 62 -59 131 -86 178 -68 38 15 53 39 53 85
0 44 -12 65 -48 84 -20 11 -27 10 -50 -7 -31 -23 -35 -69 -8 -86 14 -9 21 -7
31 7 17 22 26 22 26 -2 0 -28 -27 -51 -60 -51 -40 0 -126 60 -122 85 19 108
11 150 -45 215 l-37 42 42 -7 c75 -12 144 22 195 98 46 68 68 87 101 87 27 1
29 2 12 11 -30 18 -96 5 -187 -37 -103 -47 -193 -57 -265 -29 -58 22 -53 29 6
9 105 -37 211 2 251 90 37 81 11 184 -55 226 -61 37 -110 21 -144 -46 -10 -18
-8 -23 13 -32 13 -6 31 -23 41 -37 33 -51 -15 -105 -94 -105 -110 1 -236 122
-302 290 l-21 55 45 -44 c37 -36 53 -45 81 -45 55 0 88 39 93 111 4 51 1 61
-22 86 -53 57 -144 18 -120 -51 8 -22 16 -27 42 -27 35 0 41 -14 16 -39 -56
-57 -152 51 -188 209 -125 560 -52 1007 181 1122 91 44 184 33 230 -26 20 -26
16 -53 -6 -46 -13 4 -27 -1 -40 -14 -38 -38 -22 -93 35 -117 52 -22 96 0 119
60 40 105 -36 234 -161 272 -58 17 -75 17 -138 -3z m-41 -1755 c16 -24 28 -45
28 -48 -3 -13 20 -28 35 -23 15 4 15 3 2 -6 -12 -9 6 -32 106 -133 131 -132
144 -150 144 -198 0 -23 -6 -33 -25 -42 -35 -16 -64 6 -125 99 -46 69 -200
366 -200 386 0 14 8 6 35 -35z"/>
<path d="M1014 3766 c-3 -8 -4 -25 -2 -38 2 -17 9 -23 28 -23 20 0 26 6 28 29
5 39 -41 66 -54 32z"/>
<path d="M11742 3771 c-21 -13 -11 -65 12 -70 37 -7 54 49 22 71 -14 10 -18
10 -34 -1z"/>
<path d="M1077 3704 c-13 -13 -7 -55 9 -61 24 -9 51 23 38 45 -12 19 -36 27
-47 16z"/>
<path d="M11680 3695 c-17 -21 -2 -50 26 -50 14 0 19 7 19 30 0 34 -24 45 -45
20z"/>
<path d="M1114 3626 c-10 -26 0 -51 21 -51 16 0 20 7 20 30 0 33 -30 49 -41
21z"/>
<path d="M11651 3630 c-7 -4 -11 -18 -9 -31 5 -35 42 -33 46 2 3 28 -16 43
-37 29z"/>
<path d="M1147 3554 c-12 -12 -8 -42 6 -47 21 -8 39 8 35 29 -3 19 -29 30 -41
18z"/>
<path d="M11614 3546 c-9 -24 4 -48 23 -44 12 2 18 12 18 28 0 29 -32 41 -41
16z"/>
<path d="M1164 3465 c-4 -9 -2 -21 4 -27 15 -15 44 -1 40 19 -4 23 -36 29 -44
8z"/>
<path d="M11594 3465 c-4 -9 -2 -21 4 -27 15 -15 44 -1 40 19 -4 23 -36 29
-44 8z"/>
<path d="M1187 3404 c-16 -16 -7 -44 14 -44 15 0 20 5 17 22 -3 22 -19 33 -31
22z"/>
<path d="M11587 3404 c-16 -16 -7 -44 14 -44 15 0 20 5 17 22 -3 22 -19 33
-31 22z"/>
<path d="M1190 3310 c0 -15 5 -20 18 -18 9 2 17 10 17 18 0 8 -8 16 -17 18
-13 2 -18 -3 -18 -18z"/>
<path d="M11575 3320 c-8 -13 14 -42 26 -34 5 3 9 14 9 25 0 20 -24 26 -35 9z"/>
<path d="M1195 3250 c-3 -6 1 -13 10 -16 19 -8 30 0 20 15 -8 14 -22 14 -30 1z"/>
<path d="M11574 3249 c-3 -6 -1 -16 5 -22 9 -9 14 -8 21 3 9 15 4 30 -10 30
-5 0 -12 -5 -16 -11z"/>
<path d="M1200 3186 c0 -9 7 -16 16 -16 9 0 14 5 12 12 -6 18 -28 21 -28 4z"/>
<path d="M11576 3193 c-11 -11 -6 -23 9 -23 8 0 15 4 15 9 0 13 -16 22 -24 14z"/>
<path d="M1205 3141 c-3 -5 -1 -12 5 -16 5 -3 10 1 10 9 0 18 -6 21 -15 7z"/>
<path d="M11580 3134 c0 -8 5 -12 10 -9 6 4 8 11 5 16 -9 14 -15 11 -15 -7z"/>
<path d="M11960 1430 c0 -8 23 -78 50 -155 27 -77 67 -192 89 -255 43 -121 64
-241 59 -325 l-3 -50 -45 -3 c-80 -6 -212 18 -330 59 -342 120 -396 139 -410
138 -8 0 34 -25 93 -56 59 -31 166 -100 236 -154 177 -134 212 -149 257 -113
19 15 19 15 -2 9 -37 -10 -70 12 -102 67 -17 29 -30 54 -28 55 1 1 31 -10 66
-24 53 -22 86 -27 177 -31 81 -3 117 -1 128 8 12 10 15 36 15 114 -1 97 -13
153 -55 250 -8 18 -6 18 31 -3 70 -40 87 -56 88 -90 1 -37 13 -41 22 -6 10 40
-2 68 -71 161 -106 145 -171 244 -219 334 -25 47 -46 78 -46 70z"/>
<path d="M777 1327 c-26 -51 -92 -151 -146 -223 -136 -180 -151 -214 -116
-260 15 -18 15 -18 10 6 -8 38 14 68 74 103 46 26 53 28 46 11 -42 -97 -54
-153 -55 -249 0 -66 4 -105 12 -113 8 -8 47 -12 112 -12 97 1 153 13 250 55
17 7 15 0 -11 -46 -33 -56 -66 -82 -95 -75 -10 2 -18 0 -18 -5 0 -15 48 -21
82 -10 18 6 67 36 108 67 140 106 228 164 322 214 51 27 86 50 78 50 -8 0 -78
-23 -155 -50 -77 -27 -192 -67 -255 -89 -121 -43 -241 -64 -325 -59 l-50 3 2
106 c3 116 5 125 118 459 36 107 64 198 63 202 -2 4 -25 -34 -51 -85z"/>
<path d="M2945 1284 c-567 -59 -1156 -290 -1454 -569 -133 -126 -201 -255
-201 -381 0 -49 -2 -55 -30 -69 -44 -23 -78 -19 -111 14 -24 25 -29 37 -29 78
1 26 8 62 16 78 8 17 12 22 9 12 -16 -59 -15 -93 4 -124 22 -35 49 -46 36 -16
-4 10 -10 44 -13 75 -6 82 29 150 127 249 100 100 244 194 471 306 102 51 182
93 178 93 -4 0 -73 -25 -155 -56 -188 -71 -428 -186 -540 -260 -221 -143 -331
-328 -260 -435 46 -70 174 -101 264 -64 36 15 52 9 53 -19 0 -26 67 -108 108
-135 54 -35 146 -61 212 -61 99 0 220 50 256 106 9 14 19 46 21 72 8 86 -61
152 -159 152 -65 0 -125 -26 -143 -61 -21 -40 -19 -57 14 -90 36 -36 86 -39
125 -8 l26 20 0 -36 c0 -74 -91 -122 -177 -95 -57 18 -98 54 -123 105 -33 68
-26 186 17 278 47 100 148 237 175 237 5 0 -10 -22 -35 -50 -56 -63 -77 -132
-53 -178 18 -34 33 -42 85 -42 46 0 81 30 81 69 0 54 -68 81 -94 38 -9 -14 -7
-21 7 -31 24 -18 21 -26 -8 -26 -57 0 -58 90 -2 155 29 33 35 37 54 26 52 -27
144 -6 205 48 l33 29 0 -62 c0 -75 26 -122 93 -168 75 -50 92 -69 92 -102 0
-24 3 -27 10 -16 19 29 10 84 -31 177 -22 53 -44 115 -48 139 -9 46 1 123 19
152 9 13 9 12 3 -8 -4 -14 -8 -57 -8 -96 0 -62 3 -75 29 -108 34 -45 95 -75
150 -76 81 0 166 67 166 131 0 32 -24 65 -59 84 -27 13 -29 13 -39 -10 -28
-61 -99 -69 -127 -15 -61 118 65 288 275 370 l55 22 -38 -37 c-66 -64 -70
-114 -15 -160 42 -35 124 -36 162 0 62 57 -1 161 -69 112 -12 -10 -16 -22 -13
-40 4 -22 1 -27 -14 -27 -10 0 -24 11 -30 26 -19 41 14 90 86 130 159 87 669
135 905 85 231 -49 372 -172 373 -326 1 -60 -22 -107 -59 -124 -35 -16 -40
-14 -40 16 0 29 -26 53 -58 53 -56 0 -98 -75 -71 -127 46 -91 211 -72 291 33
103 135 43 303 -145 411 -72 41 -212 88 -325 108 -87 16 -419 28 -510 19z
m-725 -271 c-30 -21 -59 -36 -63 -35 -4 1 -72 -61 -151 -137 -79 -77 -155
-143 -169 -146 -36 -10 -68 -2 -81 18 -29 47 72 124 329 252 94 47 174 85 180
85 5 0 -15 -17 -45 -37z m-110 -113 c-6 -11 -13 -20 -16 -20 -2 0 0 9 6 20 6
11 13 20 16 20 2 0 0 -9 -6 -20z"/>
<path d="M4635 1278 c-27 -5 -87 -27 -132 -48 -137 -66 -223 -171 -241 -292
-17 -117 27 -235 102 -272 36 -17 40 -18 71 -3 53 25 66 113 24 163 -28 34
-79 -8 -63 -51 9 -21 -12 -19 -36 5 -27 27 -33 59 -28 143 11 162 131 284 314
318 143 27 439 -32 520 -104 57 -50 81 -116 52 -145 -19 -19 -25 -14 -20 16 2
18 -2 33 -12 41 -37 31 -75 -27 -56 -85 14 -41 32 -56 67 -56 69 0 99 113 48
182 -32 44 -32 46 8 19 60 -41 128 -114 155 -164 22 -42 26 -63 27 -133 0 -71
-3 -86 -19 -97 -25 -19 -51 -4 -65 36 l-11 32 -25 -23 c-34 -31 -40 -76 -20
-128 33 -81 97 -104 154 -56 46 39 55 60 62 159 l6 90 1 -80 c2 -62 -5 -103
-28 -185 -16 -58 -30 -125 -29 -150 l1 -45 10 35 c5 19 27 53 48 75 55 58 73
100 74 171 l1 62 42 -39 c42 -39 93 -52 108 -29 3 6 10 10 14 10 11 0 48 -70
55 -106 8 -37 -8 -84 -29 -84 -18 0 -19 12 -4 27 16 16 1 53 -21 53 -11 0 -24
-9 -30 -19 -26 -50 2 -111 50 -111 68 0 78 114 19 219 -18 31 -25 50 -16 43 8
-7 31 -45 50 -85 83 -167 104 -347 53 -450 -20 -41 -36 -59 -63 -72 -33 -16
-39 -16 -69 -2 -25 13 -36 26 -44 58 -13 46 -2 70 20 44 19 -23 46 -18 69 11
31 39 28 89 -8 125 -73 72 -181 4 -181 -114 0 -49 44 -128 87 -157 54 -37 143
-36 201 3 48 31 85 84 103 148 16 56 13 53 43 34 33 -22 89 -22 122 0 33 21
64 89 64 141 0 62 -34 161 -80 230 -22 34 -81 101 -131 148 -49 47 -86 86 -82
86 19 0 125 -97 208 -192 50 -57 103 -109 118 -118 24 -13 28 -13 44 3 14 14
14 17 3 12 -9 -3 -23 0 -32 7 -19 15 -61 118 -48 118 5 0 12 -5 16 -11 15 -25
90 -49 154 -49 64 0 139 24 154 49 18 29 22 6 7 -35 -22 -58 -48 -87 -68 -80
-13 5 -14 4 -3 -9 7 -8 19 -15 27 -15 8 0 83 69 167 154 83 85 162 159 176
166 l25 11 -25 -21 c-68 -58 -175 -171 -207 -219 -46 -69 -83 -173 -83 -234 0
-54 28 -117 62 -141 29 -21 97 -20 126 0 13 9 24 14 26 13 1 -2 10 -30 20 -63
54 -177 258 -221 357 -78 47 69 25 202 -38 231 -70 32 -143 -13 -143 -88 0
-65 57 -106 90 -66 19 22 31 4 24 -32 -21 -106 -129 -104 -183 2 -23 44 -26
62 -25 145 1 79 6 111 33 190 30 88 81 193 101 205 4 3 -5 -20 -22 -50 -37
-69 -48 -153 -24 -190 33 -50 106 -21 106 43 0 35 -18 62 -41 62 -25 0 -36
-27 -21 -51 16 -24 15 -29 -3 -29 -18 0 -35 31 -35 62 0 13 11 47 25 76 22 47
27 52 44 42 38 -20 70 -11 115 30 l44 40 -5 -42 c-8 -66 11 -117 67 -183 27
-32 50 -66 50 -75 0 -8 5 -22 11 -30 19 -27 3 99 -25 194 -14 48 -26 100 -25
115 1 21 3 18 10 -13 18 -77 66 -126 124 -126 36 0 81 47 95 99 9 36 8 48 -7
79 -22 45 -48 53 -57 18 -9 -35 -38 -49 -62 -31 -16 11 -19 26 -19 92 0 65 5
87 28 135 31 62 95 133 151 166 l36 21 -26 -39 c-46 -68 -30 -158 31 -180 50
-18 102 46 87 105 -17 61 -79 54 -70 -7 3 -17 0 -27 -5 -25 -21 7 -30 35 -23
70 17 93 151 156 398 187 106 13 220 -1 301 -37 74 -33 148 -112 176 -188 38
-102 20 -244 -33 -253 -14 -3 -17 0 -13 12 4 9 1 28 -5 42 -17 36 -49 28 -72
-19 -16 -33 -17 -45 -7 -78 24 -78 92 -88 156 -22 67 69 87 206 45 315 -62
166 -273 278 -522 278 -182 0 -346 -43 -553 -145 -394 -193 -642 -484 -662
-775 -6 -88 -20 -120 -54 -120 -35 0 -59 47 -58 114 l2 61 7 -50 c8 -56 18
-85 30 -85 5 0 4 15 -1 32 -47 165 97 403 367 603 130 97 143 108 115 94 -40
-19 -202 -118 -254 -155 -26 -19 -51 -32 -56 -30 -7 4 -158 -69 -311 -150
-106 -57 -240 -54 -350 6 -111 60 -282 140 -290 135 -5 -3 -37 14 -72 39 -51
35 -221 141 -263 164 -24 12 16 -20 111 -91 148 -111 293 -267 345 -371 45
-91 59 -173 41 -239 -6 -20 -7 -37 -2 -37 13 0 23 30 30 90 l7 55 2 -62 c1
-73 -13 -111 -46 -119 -40 -10 -63 20 -63 81 0 72 -32 189 -74 273 -154 307
-543 582 -935 662 -107 22 -284 26 -376 8z m978 -409 c88 -82 110 -118 96
-157 -18 -49 -76 -9 -140 98 -44 73 -105 157 -123 167 -7 4 -26 24 -42 43 -27
32 -25 31 48 -19 42 -29 115 -88 161 -132z m1781 149 c-16 -17 -41 -42 -56
-55 -15 -13 -52 -65 -84 -116 -91 -147 -138 -186 -164 -137 -16 31 -3 58 59
124 46 49 255 216 270 216 3 0 -8 -14 -25 -32z m-107 -250 c-3 -7 -5 -2 -5 12
0 14 2 19 5 13 2 -7 2 -19 0 -25z"/>
<path d="M9385 1275 c-242 -39 -447 -144 -524 -268 -85 -138 3 -328 163 -352
48 -8 121 17 136 46 44 82 -48 181 -111 118 -13 -13 -18 -27 -14 -40 8 -23 -6
-24 -45 -4 -38 20 -65 90 -56 146 24 147 161 256 386 306 93 20 365 23 495 5
164 -23 336 -62 384 -87 89 -45 139 -129 92 -155 -31 -16 -38 -12 -33 20 4 25
0 31 -23 40 -43 16 -79 -6 -83 -52 -3 -30 2 -43 23 -62 39 -36 81 -40 134 -14
84 42 89 115 13 178 -36 29 -36 30 -8 20 86 -31 189 -95 239 -149 73 -79 93
-152 63 -226 -25 -60 -99 -54 -128 10 -9 21 -14 23 -32 13 -42 -21 -66 -51
-66 -82 0 -78 83 -142 176 -134 134 11 208 137 159 273 -19 52 -18 57 2 20 42
-78 35 -155 -27 -293 -40 -91 -51 -159 -30 -192 7 -11 10 -6 10 21 0 39 18 59
104 119 21 14 47 47 62 77 22 44 25 60 19 100 l-7 47 40 -36 c61 -55 109 -66
217 -46 25 4 85 -82 85 -122 0 -34 -23 -60 -52 -60 -21 0 -21 0 -2 21 14 15
16 24 7 37 -16 26 -63 21 -85 -9 -19 -24 -19 -28 -4 -56 18 -35 33 -43 85 -43
41 0 74 27 84 67 10 41 -14 102 -60 153 -25 28 -40 50 -34 50 14 0 103 -108
137 -166 128 -218 83 -426 -98 -459 -77 -14 -148 35 -148 102 l0 34 26 -20
c39 -31 89 -28 125 8 33 33 37 66 11 97 -60 75 -217 69 -280 -11 -26 -33 -29
-92 -6 -140 54 -114 268 -159 423 -89 70 31 143 103 161 160 9 27 16 34 29 28
9 -4 41 -14 72 -22 50 -13 62 -12 112 2 134 39 164 167 70 304 -104 153 -321
286 -736 451 -98 39 -181 71 -185 71 -3 0 73 -40 169 -88 302 -151 516 -313
579 -437 26 -52 34 -145 17 -193 -8 -21 -7 -23 11 -13 39 21 49 74 28 146 -4
11 0 7 8 -10 8 -16 15 -52 16 -78 0 -41 -5 -53 -29 -78 -33 -32 -67 -37 -110
-14 -26 13 -29 20 -33 85 -4 58 -14 88 -48 158 -36 73 -60 103 -144 188 -264
263 -722 467 -1255 561 -185 32 -530 41 -676 18z m1319 -304 c155 -76 319
-180 337 -213 18 -34 -3 -68 -43 -68 -49 1 -68 15 -208 153 -70 69 -143 132
-161 141 -38 16 -89 55 -75 56 6 0 73 -31 150 -69z"/>
<path d="M3170 1215 c0 -9 5 -15 11 -13 6 2 11 8 11 13 0 5 -5 11 -11 13 -6 2
-11 -4 -11 -13z"/>
<path d="M3224 1219 c-8 -14 18 -31 30 -19 9 9 0 30 -14 30 -5 0 -12 -5 -16
-11z"/>
<path d="M3292 1217 c-14 -16 -6 -27 20 -27 13 0 18 6 16 17 -4 22 -22 27 -36
10z"/>
<path d="M4686 1223 c-12 -12 -6 -33 9 -33 8 0 15 6 15 14 0 17 -14 28 -24 19z"/>
<path d="M4727 1223 c-3 -5 -2 -15 2 -22 7 -10 10 -10 16 -1 4 6 3 16 -3 22
-5 5 -12 6 -15 1z"/>
<path d="M4770 1214 c0 -8 5 -12 10 -9 6 4 8 11 5 16 -9 14 -15 11 -15 -7z"/>
<path d="M8016 1221 c-4 -7 -5 -15 -2 -18 9 -9 19 4 14 18 -4 11 -6 11 -12 0z"/>
<path d="M8055 1219 c-10 -15 3 -25 16 -12 7 7 7 13 1 17 -6 3 -14 1 -17 -5z"/>
<path d="M8096 1223 c-12 -12 -6 -33 9 -33 8 0 15 6 15 14 0 17 -14 28 -24 19z"/>
<path d="M9477 1223 c-14 -13 -7 -33 11 -33 26 0 34 11 21 27 -13 14 -22 16
-32 6z"/>
<path d="M9545 1220 c-8 -13 4 -32 16 -25 12 8 12 35 0 35 -6 0 -13 -4 -16
-10z"/>
<path d="M9607 1223 c-12 -11 -8 -23 8 -23 8 0 15 7 15 15 0 16 -12 20 -23 8z"/>
<path d="M3125 1210 c4 -6 11 -8 16 -5 14 9 11 15 -7 15 -8 0 -12 -5 -9 -10z"/>
<path d="M3356 1205 c-3 -9 0 -18 9 -21 21 -8 47 3 43 19 -7 18 -45 20 -52 2z"/>
<path d="M4630 1200 c0 -11 7 -20 15 -20 8 0 15 9 15 20 0 11 -7 20 -15 20 -8
0 -15 -9 -15 -20z"/>
<path d="M4800 1209 c0 -5 5 -7 10 -4 6 3 10 8 10 11 0 2 -4 4 -10 4 -5 0 -10
-5 -10 -11z"/>
<path d="M7985 1210 c3 -5 8 -10 11 -10 2 0 4 5 4 10 0 6 -5 10 -11 10 -5 0
-7 -4 -4 -10z"/>
<path d="M8140 1200 c0 -11 7 -20 15 -20 8 0 15 9 15 20 0 11 -7 20 -15 20 -8
0 -15 -9 -15 -20z"/>
<path d="M9395 1210 c-9 -15 4 -30 26 -30 12 0 19 7 19 20 0 21 -33 29 -45 10z"/>
<path d="M9655 1210 c4 -6 11 -8 16 -5 14 9 11 15 -7 15 -8 0 -12 -5 -9 -10z"/>
<path d="M3434 1195 c-4 -9 -2 -21 4 -27 15 -15 44 -1 40 19 -4 23 -36 29 -44
8z"/>
<path d="M4584 1195 c-3 -8 -3 -19 1 -25 11 -18 25 -11 25 15 0 27 -17 34 -26
10z"/>
<path d="M8187 1197 c-3 -8 -1 -20 4 -28 11 -19 34 3 26 25 -8 20 -23 21 -30
3z"/>
<path d="M9324 1195 c-4 -9 -2 -21 4 -27 15 -15 44 -1 40 19 -4 23 -36 29 -44
8z"/>
<path d="M3504 1175 c-4 -9 -2 -21 4 -27 16 -16 47 -5 47 17 0 26 -42 34 -51
10z"/>
<path d="M4530 1165 c0 -15 6 -25 14 -25 19 0 28 14 20 34 -10 25 -34 19 -34
-9z"/>
<path d="M8234 1176 c-7 -19 3 -36 22 -36 10 0 14 8 12 22 -4 26 -26 36 -34
14z"/>
<path d="M9244 1175 c-8 -19 3 -35 26 -35 19 0 30 17 23 38 -6 17 -42 15 -49
-3z"/>
<path d="M3574 1145 c-8 -19 3 -35 25 -35 23 0 41 19 34 36 -7 18 -52 18 -59
-1z"/>
<path d="M4482 1138 c2 -12 10 -23 18 -23 22 0 19 39 -3 43 -15 3 -18 -1 -15
-20z"/>
<path d="M8283 1144 c-7 -18 11 -39 26 -30 17 11 13 46 -4 46 -9 0 -18 -7 -22
-16z"/>
<path d="M9164 1145 c-9 -22 9 -37 37 -33 16 2 24 10 24 23 0 26 -52 35 -61
10z"/>
<path d="M3650 1115 c-18 -21 -5 -45 25 -45 14 0 28 7 31 15 7 17 -12 45 -31
45 -7 0 -18 -7 -25 -15z"/>
<path d="M4437 1123 c-13 -12 -7 -44 9 -50 21 -8 35 16 23 39 -10 19 -21 23
-32 11z"/>
<path d="M8331 1117 c-15 -19 -3 -49 18 -45 9 2 16 13 16 27 0 29 -17 37 -34
18z"/>
<path d="M9100 1115 c-18 -21 -5 -45 25 -45 14 0 28 7 31 15 7 17 -12 45 -31
45 -7 0 -18 -7 -25 -15z"/>
<path d="M3707 1063 c-13 -12 -7 -42 9 -51 36 -20 77 15 53 44 -12 15 -51 19
-62 7z"/>
<path d="M4388 1052 c-7 -27 5 -45 28 -40 28 5 26 52 -2 56 -14 2 -23 -3 -26
-16z"/>
<path d="M8367 1063 c-11 -10 -8 -38 4 -50 18 -18 39 -3 39 28 0 21 -5 29 -18
29 -10 0 -22 -3 -25 -7z"/>
<path d="M9025 1050 c-9 -29 6 -42 41 -38 23 2 29 8 29 28 0 21 -5 26 -32 28
-25 3 -33 -1 -38 -18z"/>
<path d="M9092 979 c-45 -9 -72 -36 -72 -72 0 -24 3 -28 18 -22 63 28 130 11
162 -40 62 -100 -15 -205 -151 -205 -103 0 -188 60 -223 156 -18 48 -21 17 -4
-40 9 -29 33 -62 85 -114 72 -72 88 -104 57 -116 -22 -9 -23 -8 -17 13 6 22
-9 34 -30 25 -43 -16 -17 -74 33 -74 15 0 35 9 45 21 16 17 17 25 8 50 l-11
29 67 0 c118 0 199 59 222 162 29 126 -75 251 -189 227z"/>
<path d="M3615 971 c-30 -14 -72 -62 -89 -103 -41 -96 5 -207 106 -259 25 -13
58 -19 102 -19 l66 0 -7 -30 c-4 -22 0 -36 12 -50 20 -22 65 -26 83 -8 17 17
15 55 -4 62 -22 8 -44 -11 -37 -31 4 -11 2 -14 -8 -11 -8 2 -15 15 -17 27 -3
17 12 37 58 79 65 60 93 103 104 162 7 34 6 33 -14 -10 -41 -87 -104 -129
-205 -138 -73 -5 -143 20 -171 62 -36 56 -8 157 51 184 32 15 102 16 110 2 12
-19 25 -10 25 18 0 42 -31 65 -93 69 -28 1 -61 -1 -72 -6z"/>
<path d="M4401 954 c-12 -15 -21 -37 -21 -50 0 -21 2 -23 24 -13 77 36 140
-75 101 -177 -48 -127 -199 -87 -246 66 -6 22 -7 23 -8 4 -2 -34 27 -106 58
-144 40 -51 53 -78 46 -100 -8 -26 -22 -26 -21 0 1 24 -15 28 -29 6 -13 -21 4
-50 34 -54 25 -4 42 30 34 71 -5 26 -4 27 40 27 111 0 175 141 132 287 -21 72
-49 103 -90 103 -24 0 -39 -7 -54 -26z"/>
<path d="M8307 969 c-27 -16 -58 -86 -64 -144 -8 -78 12 -149 57 -196 33 -35
42 -39 85 -39 45 0 47 -1 41 -24 -9 -38 10 -78 35 -74 30 4 47 33 33 56 -13
20 -29 14 -28 -10 1 -22 -15 -23 -23 -2 -7 19 9 55 47 102 30 37 61 111 59
141 0 9 -7 -2 -15 -25 -20 -57 -72 -104 -121 -111 -107 -14 -166 97 -110 207
17 35 28 46 51 48 16 2 33 -1 39 -7 32 -32 38 23 6 63 -22 28 -59 34 -92 15z"/>
</g>
</svg>
