<?xml version="1.0" standalone="no"?>
<!DOCTYPE svg PUBLIC "-//W3C//DTD SVG 20010904//EN"
 "http://www.w3.org/TR/2001/REC-SVG-20010904/DTD/svg10.dtd">
<svg version="1.0" xmlns="http://www.w3.org/2000/svg"
 width="1280.000000pt" height="1280.000000pt" viewBox="0 0 1280.000000 1280.000000"
 preserveAspectRatio="xMidYMid meet">
<metadata>
Created by potrace 1.15, written by Peter Selinger 2001-2017
</metadata>
<g transform="translate(0.000000,1280.000000) scale(0.100000,-0.100000)"
fill="#000000" stroke="none">
<path d="M383 12786 c-17 -8 -39 -28 -47 -45 -18 -34 -21 -126 -6 -167 6 -15
9 -29 7 -31 -7 -6 -110 37 -129 54 -26 24 -22 3 17 -83 34 -74 34 -76 12 -71
-100 24 -151 20 -196 -19 -70 -58 -41 -174 43 -174 39 0 57 11 71 43 16 37 3
83 -26 92 -29 9 -49 -12 -49 -52 0 -35 -12 -37 -30 -4 -14 27 22 69 65 77 40
7 74 -3 221 -66 92 -40 184 -73 184 -67 0 9 -49 125 -94 222 -58 124 -67 170
-44 220 15 32 54 43 76 21 15 -15 14 -16 -15 -16 -58 0 -71 -51 -20 -80 24
-13 30 -13 55 0 34 20 55 61 46 95 -12 50 -85 76 -141 51z"/>
<path d="M674 12776 c-54 -46 -24 -139 45 -139 40 0 63 20 59 52 -3 22 -9 26
-40 29 -42 4 -49 16 -19 32 25 13 46 5 65 -25 29 -44 20 -98 -40 -239 -58
-136 -94 -256 -94 -311 0 -31 -2 -33 -49 -39 -68 -9 -167 -44 -301 -107 -129
-60 -191 -70 -229 -35 -25 22 -27 58 -6 76 13 11 15 8 15 -14 0 -62 44 -87 74
-44 35 50 6 106 -59 115 -34 4 -44 1 -64 -21 -31 -33 -34 -94 -5 -133 34 -45
84 -59 162 -45 37 6 68 10 70 8 1 -2 -11 -37 -27 -78 -78 -198 -79 -291 -6
-543 26 -88 51 -164 55 -169 6 -6 17 -3 28 7 26 23 33 22 78 -17 61 -52 96
-108 92 -147 -4 -44 -28 -48 -50 -9 -21 36 -42 38 -64 5 -20 -31 -11 -61 26
-80 69 -36 140 -1 140 70 0 50 -26 96 -116 206 -115 140 -166 231 -188 332 -9
41 0 33 34 -32 34 -64 109 -146 174 -190 22 -16 84 -52 136 -81 146 -80 153
-91 98 -148 -32 -32 -32 -34 -14 -48 31 -22 81 -17 115 12 35 29 47 74 34 125
-8 29 -5 40 19 78 40 64 38 90 -12 124 -39 27 -58 22 -66 -19 -9 -51 -40 -68
-114 -61 -71 6 -193 62 -236 109 -23 25 -25 29 -9 23 116 -45 239 -52 316 -17
209 92 239 349 53 458 -156 92 -364 -47 -322 -215 39 -156 252 -187 325 -47
30 58 -16 141 -75 134 -57 -7 -53 -68 4 -78 43 -8 39 -40 -9 -63 -44 -22 -74
-17 -113 17 l-28 23 32 39 c37 45 41 80 12 117 -26 33 -26 33 12 46 59 21 153
-12 202 -69 32 -39 40 -67 34 -131 -7 -72 -48 -126 -127 -166 -136 -71 -301
-30 -379 94 -43 70 -56 118 -56 209 1 104 7 114 48 76 17 -16 39 -32 49 -35
26 -10 83 17 103 48 l18 28 -37 29 c-94 75 -1 167 185 184 74 6 74 6 70 34 -6
44 15 157 38 206 20 41 61 74 91 74 6 0 27 -16 46 -36 32 -34 36 -36 59 -23
34 18 57 64 49 98 -3 14 -20 40 -37 58 l-31 32 29 8 c51 14 176 8 231 -10 65
-23 131 -80 163 -143 21 -41 25 -63 25 -134 0 -76 -3 -91 -30 -140 -54 -98
-154 -149 -238 -121 -54 18 -113 88 -126 149 -6 28 -8 58 -6 67 16 50 13 48
49 26 45 -28 69 -26 109 9 42 37 61 38 83 5 34 -52 15 -145 -31 -145 -20 0
-24 6 -27 33 -2 25 -8 33 -26 35 -55 8 -68 -43 -23 -89 88 -87 227 36 191 170
-14 52 -54 99 -105 122 -107 49 -223 -12 -262 -140 -32 -104 32 -231 139 -275
53 -23 143 -20 193 4 153 74 208 250 137 438 -11 28 -16 52 -12 52 5 0 23 -17
40 -37 84 -102 127 -266 81 -312 -11 -11 -32 -21 -46 -21 -21 0 -25 -5 -25
-28 0 -35 37 -72 71 -72 13 0 44 13 68 29 38 25 47 28 78 19 44 -12 96 4 123
39 24 30 27 90 6 119 -14 18 -16 18 -49 -18 -19 -21 -39 -38 -45 -38 -21 0
-53 38 -93 110 -93 168 -182 266 -292 322 -33 16 -57 31 -55 34 9 8 120 -27
178 -56 33 -16 107 -66 164 -110 143 -109 163 -120 217 -120 60 0 89 29 89 88
0 68 -63 108 -104 66 -23 -22 -20 -31 19 -56 42 -27 43 -35 10 -50 -21 -9 -32
-8 -61 6 -39 18 -144 113 -144 129 0 6 8 19 17 29 10 11 13 22 7 27 -15 15
-262 80 -351 93 -109 16 -200 3 -318 -46 -137 -57 -124 -60 -118 31 4 62 2 86
-11 111 -32 61 -113 81 -162 38z"/>
<path d="M3405 12791 c-41 -17 -59 -50 -63 -115 -2 -34 1 -79 6 -99 6 -20 8
-37 5 -37 -2 0 -39 15 -81 33 -173 75 -256 76 -479 3 -78 -26 -145 -51 -148
-56 -3 -5 2 -21 11 -34 15 -24 15 -27 -4 -54 -41 -57 -110 -112 -141 -112 -42
0 -49 19 -18 45 35 27 35 62 1 77 -24 11 -29 9 -50 -15 -31 -36 -32 -94 -3
-131 16 -20 29 -26 58 -26 45 0 64 13 203 138 101 91 198 151 273 167 23 5 13
-5 -42 -42 -95 -64 -141 -122 -219 -281 -37 -74 -74 -137 -86 -143 -17 -9 -25
-6 -52 20 -18 17 -35 31 -39 31 -3 0 -11 -16 -16 -36 -24 -86 63 -165 138
-125 12 7 28 2 60 -20 54 -36 74 -36 101 -2 29 38 24 77 -13 81 -72 9 -66 158
14 298 32 56 69 96 55 59 -77 -201 -21 -408 129 -476 122 -56 264 36 289 187
14 79 -33 185 -97 224 -21 13 -50 20 -84 20 -47 0 -58 -4 -93 -36 -89 -81 -86
-224 7 -285 41 -27 71 -24 104 12 32 34 37 70 14 89 -25 21 -50 8 -55 -30 -4
-26 -10 -35 -25 -35 -46 0 -61 105 -21 152 l25 28 33 -32 c40 -38 72 -42 105
-11 28 26 34 21 40 -34 8 -68 -13 -127 -62 -175 -38 -38 -47 -43 -89 -43 -56
0 -78 10 -129 58 -51 49 -77 123 -77 217 0 63 4 82 33 136 55 107 134 152 269
151 86 0 94 -5 64 -45 -13 -18 -27 -42 -30 -54 -9 -29 17 -88 45 -104 20 -10
25 -9 34 6 48 84 112 69 151 -35 19 -52 33 -280 17 -280 -6 0 -18 9 -27 19
-10 11 -31 25 -47 31 -24 10 -33 10 -54 -4 -14 -10 -31 -29 -38 -43 -9 -21 -8
-27 8 -39 10 -8 27 -14 36 -14 50 0 63 -94 25 -176 -34 -72 -88 -112 -178
-128 l-36 -7 14 47 c12 39 12 51 0 79 -16 38 -58 70 -81 61 -13 -4 -14 -16 -9
-56 10 -73 -11 -100 -74 -100 -72 0 -78 8 -62 73 7 30 10 70 6 89 -13 70 -74
100 -115 57 -32 -34 -33 -64 -7 -139 l24 -70 -21 -15 c-12 -8 -33 -15 -48 -15
-24 0 -26 3 -25 36 1 27 -5 40 -21 51 -19 13 -23 13 -42 -6 -29 -29 -27 -73 5
-104 39 -40 76 -43 138 -13 29 14 57 26 61 26 5 0 38 -12 74 -27 102 -40 175
-37 329 16 99 35 125 41 137 31 8 -7 15 -18 15 -26 0 -7 5 -16 10 -19 19 -12
40 16 40 52 0 30 -4 36 -37 50 -21 8 -39 16 -41 17 -1 2 13 36 32 77 48 103
66 182 66 285 0 114 -17 184 -85 350 -66 161 -75 209 -49 253 14 24 25 31 43
29 33 -4 40 -28 9 -28 -48 0 -65 -47 -26 -74 31 -22 45 -20 73 9 44 43 30 114
-26 134 -36 13 -37 13 -64 2z m-497 -960 c5 -30 -6 -71 -18 -71 -12 0 -30 67
-23 86 8 22 38 12 41 -15z"/>
<path d="M3656 12779 c-51 -40 -24 -141 38 -141 38 0 60 24 52 56 -5 22 -12
26 -44 26 l-37 1 23 19 c29 24 54 14 72 -30 17 -42 7 -93 -45 -227 -57 -144
-75 -215 -82 -317 -7 -107 14 -207 70 -317 23 -46 43 -87 45 -91 2 -5 -6 -8
-18 -8 -26 0 -70 -43 -70 -68 0 -10 8 -26 19 -36 19 -18 31 -11 44 27 9 24 40
21 143 -14 153 -52 253 -49 374 11 34 18 36 17 80 -6 25 -13 59 -24 77 -24 38
0 88 39 97 76 9 35 -17 74 -49 74 -30 0 -44 -25 -37 -69 5 -34 5 -34 -29 -27
-58 11 -63 24 -40 94 26 76 26 89 1 130 -15 25 -27 32 -50 32 -64 0 -93 -71
-66 -162 19 -66 9 -81 -58 -82 -65 -1 -82 18 -79 94 2 55 1 60 -18 60 -11 0
-34 -14 -51 -30 -27 -27 -30 -36 -25 -73 2 -23 8 -51 13 -61 7 -17 3 -19 -39
-14 -66 8 -131 49 -163 104 -49 84 -40 185 18 192 41 5 52 25 34 60 -27 52
-79 57 -130 12 -41 -37 -46 -29 -46 69 0 160 48 281 110 281 7 0 28 -17 47
-37 l34 -38 30 33 c40 44 39 90 -2 136 l-30 35 43 12 c56 15 150 5 205 -22 55
-27 117 -97 137 -156 21 -61 20 -167 -1 -228 -24 -71 -96 -141 -155 -150 -54
-8 -91 8 -135 58 -35 40 -58 121 -49 172 8 41 10 41 43 15 36 -28 67 -25 96
10 31 36 50 38 71 8 18 -25 21 -100 6 -129 -14 -25 -50 -25 -50 0 0 34 -12 51
-36 51 -35 0 -48 -33 -29 -70 31 -59 88 -67 140 -17 50 47 64 109 42 181 -41
130 -182 167 -267 69 -45 -50 -60 -92 -60 -162 0 -125 94 -231 207 -231 180 0
290 215 222 435 -11 37 -18 69 -16 71 6 7 51 -55 77 -106 66 -129 64 -241 -4
-258 -38 -10 -42 -27 -16 -69 24 -41 59 -43 105 -9 27 21 42 25 89 23 53 -2
60 0 87 31 36 40 38 99 4 140 -2 2 -19 -14 -38 -35 -35 -37 -35 -37 -56 -19
-11 10 -44 62 -72 115 -93 174 -178 274 -268 310 -41 18 -40 31 3 21 86 -19
172 -73 306 -190 77 -68 117 -90 164 -90 39 0 76 36 76 76 0 30 -18 77 -33 86
-23 15 -56 8 -68 -14 -10 -19 -8 -25 22 -50 31 -26 32 -29 17 -44 -27 -27 -67
-8 -137 62 -61 63 -62 66 -46 84 10 11 15 25 12 33 -6 15 -170 70 -276 93
-124 26 -203 15 -345 -50 -43 -20 -79 -36 -80 -36 0 0 -1 43 -1 96 0 95 0 96
-33 125 -39 35 -78 38 -116 8z m651 -915 c7 -19 -9 -76 -23 -81 -13 -4 -26 60
-17 83 7 19 32 18 40 -2z"/>
<path d="M6204 12781 c-49 -30 -68 -116 -44 -200 5 -19 8 -36 6 -38 -1 -2 -47
16 -102 39 -121 50 -211 60 -314 33 -68 -17 -279 -84 -293 -92 -4 -2 0 -17 10
-33 16 -28 16 -30 -13 -71 -37 -54 -99 -99 -136 -99 -36 0 -37 20 -2 55 24 24
25 28 11 48 -20 30 -42 32 -66 8 -61 -61 -25 -161 59 -161 43 0 50 5 194 138
85 80 174 138 239 157 28 8 52 13 54 11 2 -2 -20 -17 -50 -34 -82 -46 -149
-129 -218 -269 -62 -125 -93 -173 -111 -173 -5 0 -24 14 -40 32 -29 31 -31 32
-44 13 -8 -10 -14 -32 -14 -47 0 -72 59 -119 128 -102 33 8 42 6 79 -20 52
-36 86 -31 110 19 13 28 14 37 3 50 -7 8 -21 15 -31 15 -62 0 -64 144 -3 261
24 47 66 110 70 106 2 -2 -6 -41 -17 -87 -36 -143 -11 -259 75 -345 109 -109
248 -94 329 36 59 96 46 211 -35 291 -44 45 -50 48 -101 48 -68 0 -113 -28
-144 -90 -51 -100 -8 -227 83 -246 63 -12 124 79 78 117 -21 18 -48 0 -54 -36
-6 -34 -22 -41 -43 -20 -37 36 -29 133 13 155 13 7 24 2 45 -20 34 -36 71 -39
108 -10 l26 21 9 -35 c20 -72 -20 -180 -82 -217 -37 -22 -106 -25 -144 -5
-102 54 -158 220 -117 350 22 70 80 138 149 173 42 22 65 27 131 27 105 0 114
-6 75 -50 -41 -47 -41 -92 0 -136 l30 -33 31 38 c19 23 40 37 54 37 33 0 73
-46 90 -103 17 -56 31 -226 21 -252 -5 -15 -10 -14 -36 8 -41 35 -65 41 -97
25 -30 -14 -54 -53 -46 -74 2 -6 16 -15 31 -19 48 -12 62 -33 62 -92 0 -99
-64 -179 -166 -209 -30 -9 -58 -14 -60 -11 -3 3 0 24 6 47 15 56 -1 105 -42
126 -26 14 -32 14 -45 2 -11 -11 -11 -21 -3 -43 22 -59 -13 -105 -80 -105 -58
0 -75 16 -60 54 18 48 12 130 -11 160 -42 54 -119 16 -119 -59 0 -18 10 -59
22 -90 23 -62 20 -70 -30 -84 -37 -11 -47 -2 -38 34 9 35 -26 70 -55 55 -51
-28 -44 -94 13 -130 40 -25 86 -20 138 14 l35 23 55 -25 c40 -18 78 -26 141
-30 92 -5 106 -2 248 51 l83 31 18 -22 c10 -12 20 -28 22 -34 7 -19 37 -1 44
27 8 34 -17 72 -56 80 -16 4 -30 9 -30 12 0 2 11 23 24 46 38 65 76 188 82
269 9 106 -15 213 -86 389 -65 162 -75 219 -46 264 18 28 47 33 66 10 11 -13
8 -15 -17 -15 -55 0 -72 -47 -28 -76 36 -24 73 -11 91 31 35 84 -46 154 -122
106z m-486 -960 c2 -18 1 -40 -3 -49 -6 -15 -8 -15 -21 2 -15 21 -19 68 -7 80
14 13 28 -1 31 -33z"/>
<path d="M6478 12784 c-61 -32 -41 -146 25 -146 37 0 59 20 55 51 -2 21 -9 27
-35 29 -37 4 -42 16 -14 32 15 7 25 5 43 -9 20 -17 23 -28 23 -83 0 -51 -8
-84 -42 -168 -62 -156 -85 -251 -86 -350 -1 -108 14 -172 69 -289 24 -51 44
-95 44 -97 0 -2 -8 -4 -18 -4 -33 0 -62 -29 -62 -64 0 -57 35 -74 51 -26 14
39 31 38 145 -2 74 -26 104 -31 184 -32 87 -1 101 2 163 31 l67 32 43 -24 c51
-30 91 -31 134 -5 53 32 58 113 8 126 -37 9 -58 -13 -52 -54 4 -23 2 -35 -9
-39 -14 -5 -71 13 -79 27 -2 4 5 30 15 59 26 66 25 112 -1 145 -28 36 -70 35
-99 -1 -19 -24 -21 -37 -17 -88 3 -33 9 -72 12 -87 7 -25 4 -28 -33 -37 -77
-21 -117 12 -110 90 4 38 2 52 -9 56 -25 10 -64 -16 -79 -53 -14 -32 -14 -42
-1 -80 l14 -44 -34 0 c-105 0 -204 102 -206 212 -1 55 18 83 64 92 35 7 38 32
8 70 -28 36 -69 34 -112 -4 -19 -16 -37 -30 -40 -30 -11 0 -14 110 -6 186 11
96 29 144 65 173 36 28 41 27 81 -15 38 -41 54 -40 83 8 27 42 20 82 -22 125
l-31 32 29 8 c16 4 61 8 99 8 129 0 221 -67 267 -193 47 -128 -11 -301 -117
-352 -107 -52 -213 25 -223 161 -2 32 -2 66 2 74 5 15 9 14 35 -4 40 -29 62
-26 96 9 16 17 34 30 40 30 39 0 67 -93 43 -140 -19 -36 -51 -33 -58 5 -6 33
-32 44 -55 25 -23 -19 -18 -51 12 -82 48 -50 116 -31 155 46 42 83 8 200 -73
245 -75 42 -160 13 -214 -73 -26 -43 -30 -59 -30 -120 1 -85 24 -136 86 -190
96 -81 232 -54 309 62 67 101 72 239 15 387 -7 17 -5 17 19 -5 47 -43 98 -160
104 -238 4 -61 2 -72 -17 -91 -11 -11 -30 -21 -41 -21 -29 0 -27 -50 3 -78 31
-30 57 -28 101 7 32 25 41 28 63 20 62 -24 133 26 133 93 0 22 -5 49 -11 60
-11 20 -12 20 -45 -16 -45 -50 -59 -41 -125 81 -97 182 -176 276 -272 325 -56
28 -39 32 33 8 78 -26 145 -69 241 -153 109 -94 145 -117 190 -117 51 0 79 30
79 85 0 49 -23 85 -54 85 -48 0 -62 -49 -21 -76 53 -35 11 -67 -50 -38 -36 17
-125 107 -125 127 0 6 8 19 17 29 10 11 13 22 7 28 -19 18 -301 92 -374 97
-85 6 -150 -11 -273 -73 l-70 -36 7 26 c27 108 10 193 -44 221 -36 19 -57 18
-92 -1z m642 -935 c0 -17 -5 -40 -11 -51 -15 -28 -29 -7 -29 45 0 30 4 37 20
37 16 0 20 -7 20 -31z"/>
<path d="M9035 12791 c-56 -23 -80 -93 -64 -185 6 -32 8 -60 6 -62 -2 -2 -34
10 -70 27 -175 81 -277 79 -537 -12 -47 -17 -89 -34 -94 -39 -5 -5 -2 -19 7
-34 15 -23 15 -26 -12 -63 -62 -85 -151 -131 -168 -87 -5 15 0 21 36 43 20 12
6 58 -20 66 -36 12 -69 -30 -69 -85 0 -58 29 -90 81 -90 42 0 61 13 169 113
105 98 184 153 257 178 31 10 58 17 60 16 2 -2 -26 -23 -63 -47 -83 -53 -135
-123 -220 -291 -34 -70 -71 -129 -80 -133 -12 -5 -28 4 -51 26 -34 32 -35 33
-49 13 -24 -32 -12 -94 26 -127 31 -29 62 -34 103 -19 19 7 32 3 67 -20 53
-36 73 -36 99 -3 32 40 28 71 -10 79 -67 15 -73 125 -14 253 25 55 74 127 81
120 2 -2 -6 -32 -16 -67 -54 -173 2 -350 132 -415 61 -31 108 -33 163 -7 122
57 171 205 109 330 -80 160 -276 128 -309 -50 -20 -106 76 -219 152 -178 51
27 66 100 23 114 -28 9 -38 -1 -46 -40 -7 -40 -26 -45 -48 -13 -25 35 -20 102
8 135 l25 28 33 -32 c39 -38 65 -41 102 -12 l26 20 11 -28 c23 -60 -12 -167
-73 -218 -28 -24 -38 -27 -89 -23 -76 5 -118 38 -160 123 -77 157 -20 339 129
412 48 23 69 28 133 27 97 -1 107 -7 74 -46 -33 -39 -40 -71 -25 -109 12 -27
44 -59 61 -59 4 0 16 16 28 35 32 55 86 45 120 -23 27 -54 41 -131 41 -227 0
-85 -6 -99 -31 -69 -20 25 -68 46 -90 39 -29 -9 -59 -45 -59 -71 0 -17 8 -24
37 -31 49 -11 66 -42 59 -107 -7 -61 -46 -129 -94 -161 -34 -22 -129 -51 -139
-42 -2 2 1 16 7 31 26 69 -4 143 -60 148 -24 3 -25 2 -22 -54 4 -75 -16 -98
-87 -98 -28 0 -53 5 -56 11 -4 5 -1 39 6 73 11 57 10 67 -7 101 -23 47 -43 60
-77 51 -58 -14 -68 -85 -27 -181 l19 -45 -22 -15 c-12 -8 -34 -15 -49 -15 -25
0 -27 2 -22 30 8 35 -9 60 -40 60 -30 0 -46 -19 -46 -55 0 -43 24 -72 70 -86
35 -11 44 -9 95 15 l56 28 72 -26 c40 -14 86 -28 104 -31 44 -9 143 11 230 46
97 38 133 41 148 11 18 -33 23 -36 40 -22 19 16 19 64 0 83 -8 9 -28 18 -44
22 l-30 6 20 33 c45 78 81 199 86 297 7 123 -10 202 -83 379 -63 156 -74 211
-50 258 16 32 30 38 60 26 22 -9 20 -24 -3 -24 -36 0 -51 -12 -51 -41 0 -50
55 -65 95 -24 44 43 29 112 -29 135 -31 12 -34 12 -61 1z m-501 -947 c9 -24
-4 -86 -18 -81 -14 5 -30 62 -23 81 8 21 33 20 41 0z"/>
<path d="M9278 12770 c-25 -26 -29 -36 -24 -63 14 -68 93 -97 118 -42 15 32
-4 55 -45 55 l-31 0 22 22 22 22 25 -24 c41 -39 41 -75 0 -191 -103 -292 -98
-273 -99 -414 0 -119 2 -136 28 -205 15 -41 41 -98 57 -126 l29 -51 -29 -6
c-56 -11 -80 -66 -45 -101 20 -21 21 -21 39 14 19 38 31 38 147 -1 54 -17 125
-33 168 -36 65 -4 84 -2 144 21 38 15 75 31 82 37 8 7 26 2 60 -16 59 -32 114
-29 151 8 43 43 29 117 -23 117 -30 0 -46 -29 -38 -69 7 -35 -2 -38 -55 -20
-37 13 -37 19 -10 103 21 64 21 65 3 103 -16 33 -24 38 -56 41 -30 3 -40 -1
-53 -22 -24 -36 -28 -94 -12 -148 18 -58 8 -71 -59 -72 -37 -1 -50 4 -66 24
-16 20 -19 33 -13 77 6 52 6 53 -18 53 -16 0 -35 -12 -52 -32 -23 -27 -26 -39
-22 -73 3 -22 8 -48 12 -57 17 -42 -133 -1 -177 48 -29 33 -58 107 -58 149 0
50 22 83 58 87 36 4 42 41 11 74 -31 33 -70 31 -112 -6 -19 -16 -38 -30 -42
-30 -4 0 -5 57 -3 128 4 142 24 205 72 238 33 21 70 8 88 -31 15 -33 31 -32
62 6 38 45 33 92 -16 145 -24 27 -17 32 56 40 123 15 238 -44 294 -150 24 -45
27 -62 27 -146 0 -84 -3 -101 -27 -146 -31 -59 -72 -97 -124 -114 -102 -34
-199 56 -199 187 0 33 3 64 7 68 4 4 19 -2 34 -14 37 -29 61 -26 94 9 15 17
35 30 43 30 24 0 47 -40 47 -82 0 -80 -47 -120 -65 -56 -15 51 -75 47 -75 -4
0 -32 54 -78 90 -78 65 0 129 101 114 181 -36 188 -240 213 -317 39 -47 -106
-10 -231 89 -298 45 -31 54 -34 110 -30 181 11 283 227 210 441 -12 37 -20 67
-17 67 3 0 21 -20 38 -43 66 -88 102 -208 83 -278 -9 -32 -17 -40 -43 -47 -40
-10 -46 -38 -17 -75 28 -35 65 -35 109 2 31 25 38 27 71 19 71 -18 139 45 126
117 -10 52 -29 60 -55 25 -44 -60 -71 -38 -157 130 -68 132 -146 220 -232 264
-30 15 -52 29 -50 32 3 2 34 -5 70 -16 75 -23 156 -74 243 -153 102 -92 143
-117 190 -117 55 0 80 26 80 85 0 75 -70 118 -97 59 -13 -28 -12 -29 39 -61
17 -10 17 -12 1 -28 -26 -28 -66 -10 -136 60 l-64 63 18 27 c11 16 13 30 7 36
-18 18 -278 90 -348 96 -89 7 -153 -7 -264 -58 -46 -22 -85 -39 -87 -39 -2 0
-1 35 3 78 4 61 2 85 -11 109 -35 69 -98 83 -148 33z m656 -907 c8 -19 -11
-83 -24 -83 -12 0 -24 65 -16 85 7 20 32 19 40 -2z"/>
<path d="M11993 12786 c-60 -27 -84 -94 -64 -186 6 -29 10 -54 8 -56 -2 -2
-53 15 -113 38 -125 47 -222 59 -327 39 -83 -17 -340 -90 -351 -102 -6 -5 -3
-16 7 -27 9 -10 17 -23 17 -28 0 -19 -65 -87 -109 -115 -77 -49 -141 -32 -82
21 33 31 33 53 -1 71 -27 14 -56 2 -73 -31 -19 -36 -19 -63 0 -99 16 -32 33
-41 76 -41 43 0 82 23 190 110 113 93 190 143 256 168 51 20 113 35 113 27 0
-3 -27 -18 -60 -35 -110 -55 -169 -122 -265 -300 -52 -97 -84 -140 -106 -140
-4 0 -25 14 -45 32 -35 31 -37 31 -50 13 -22 -30 -17 -80 12 -114 29 -35 74
-47 125 -34 29 8 40 5 78 -19 25 -15 55 -28 67 -28 23 0 74 51 74 74 0 19 -22
36 -47 36 -62 0 -70 116 -17 231 28 58 91 145 100 136 2 -2 -6 -28 -18 -58
-15 -39 -21 -78 -22 -139 -1 -74 3 -92 27 -142 92 -187 324 -222 436 -67 68
93 61 208 -18 292 -39 43 -74 57 -138 57 -69 0 -117 -27 -154 -87 -32 -51 -33
-139 -3 -180 36 -48 84 -75 124 -69 66 10 104 91 58 120 -25 15 -52 -3 -58
-40 -12 -67 -73 -19 -73 57 0 28 7 47 23 64 13 14 27 25 30 25 4 0 21 -13 38
-30 38 -36 78 -39 115 -10 33 26 33 26 46 -12 25 -72 -26 -185 -101 -224 -34
-18 -109 -18 -151 0 -47 20 -97 74 -125 134 -20 45 -23 65 -20 130 4 91 25
139 84 198 58 58 136 86 245 87 109 0 120 -6 81 -47 -16 -17 -33 -41 -36 -53
-9 -28 16 -78 50 -100 26 -17 27 -17 56 20 77 96 166 2 184 -193 6 -65 7 -66
34 -62 43 6 168 -16 211 -38 36 -19 69 -62 69 -91 0 -6 -16 -27 -36 -46 -33
-31 -35 -37 -25 -57 15 -27 61 -56 90 -56 12 0 39 16 61 36 36 33 41 34 47 18
4 -11 8 -60 8 -110 0 -84 -3 -96 -35 -160 -60 -117 -156 -172 -284 -162 -158
13 -277 149 -237 271 31 94 177 163 254 120 4 -3 -2 -20 -14 -39 -25 -41 -21
-69 17 -113 32 -38 26 -63 -22 -86 -39 -18 -77 -14 -106 12 -29 26 -23 51 15
55 25 2 33 8 35 26 8 56 -51 70 -92 21 -79 -93 41 -225 173 -189 78 21 140
101 141 179 0 100 -108 199 -220 200 -77 1 -182 -75 -216 -155 -20 -47 -17
-141 5 -190 39 -86 121 -144 230 -164 73 -13 123 -7 204 25 31 13 57 20 57 15
0 -15 -88 -78 -148 -106 -63 -30 -158 -42 -190 -25 -12 6 -26 29 -32 52 -10
35 -14 39 -33 33 -35 -10 -67 -45 -67 -73 0 -14 13 -46 29 -70 25 -37 28 -48
20 -75 -12 -41 -3 -80 28 -116 20 -25 32 -30 67 -30 23 0 51 6 62 14 18 14 18
16 -18 49 -21 19 -38 40 -38 46 0 20 35 47 151 116 134 81 229 171 278 263 18
35 35 62 37 59 8 -8 -27 -119 -55 -175 -16 -32 -57 -94 -91 -138 -115 -148
-140 -192 -140 -244 0 -36 5 -52 23 -68 48 -45 147 -17 147 41 0 49 -49 63
-76 22 -35 -54 -66 -13 -39 52 16 38 111 143 129 143 5 0 18 -8 28 -17 11 -10
22 -13 28 -7 16 17 92 338 97 414 6 87 -9 157 -62 282 -19 45 -35 85 -35 89 0
4 35 5 78 2 93 -7 134 9 159 61 46 97 -58 190 -131 116 -38 -37 -18 -110 29
-110 24 0 35 17 35 56 0 29 15 31 30 5 13 -25 5 -46 -25 -65 -44 -29 -98 -20
-239 40 -136 58 -256 94 -311 94 -31 0 -33 2 -39 48 -10 72 -32 134 -100 282
-68 150 -78 209 -42 249 22 25 58 27 76 6 11 -13 8 -15 -22 -15 -59 0 -79 -46
-33 -76 72 -47 156 64 93 123 -31 28 -76 35 -115 19z"/>
<path d="M12295 12788 c-41 -22 -56 -67 -39 -113 11 -27 62 -45 95 -33 58 20
44 78 -18 78 -35 0 -37 12 -4 30 26 14 69 -22 76 -64 7 -36 -12 -96 -90 -284
-26 -63 -45 -115 -42 -118 5 -5 97 33 242 100 104 48 152 56 200 34 32 -15 43
-54 21 -76 -15 -15 -16 -14 -16 15 0 58 -51 71 -80 20 -13 -24 -13 -30 0 -54
32 -57 105 -65 138 -15 35 54 10 138 -48 162 -31 13 -140 10 -174 -5 -16 -7
-17 -5 -11 16 4 13 18 46 31 74 13 27 22 51 20 52 -2 2 -38 -12 -81 -32 l-77
-35 6 25 c26 102 15 168 -35 210 -33 27 -79 32 -114 13z"/>
<path d="M783 12068 c-13 -6 -32 -31 -44 -55 -18 -38 -20 -48 -9 -74 15 -35
53 -64 74 -56 8 3 18 22 21 41 8 40 18 50 58 60 36 9 37 47 1 75 -29 23 -66
26 -101 9z"/>
<path d="M11933 12070 c-27 -11 -57 -55 -50 -74 3 -7 26 -18 51 -25 35 -8 46
-16 46 -30 0 -56 44 -70 79 -25 42 53 19 121 -50 148 -44 18 -46 18 -76 6z"/>
<path d="M1948 12061 c-113 -36 -158 -133 -105 -224 49 -83 143 -100 200 -37
35 39 36 83 3 105 -19 13 -29 14 -45 5 -23 -12 -29 -56 -9 -62 6 -2 9 -12 5
-21 -13 -35 -87 -10 -87 29 0 9 18 32 41 52 34 31 40 41 37 72 -2 33 -1 35 27
32 66 -7 109 -64 108 -143 -1 -112 -89 -182 -209 -165 -97 13 -179 84 -233
202 -43 93 -45 96 -56 95 -23 -1 -14 -56 21 -128 84 -175 227 -256 375 -211
47 14 113 68 136 112 l16 31 7 -25 c27 -101 114 -170 213 -170 55 0 136 40
178 88 43 48 100 172 107 229 8 72 -17 50 -56 -50 -58 -150 -150 -227 -258
-214 -85 9 -134 69 -134 165 0 81 41 142 96 142 19 0 22 -5 21 -36 -1 -29 6
-42 36 -69 40 -36 43 -45 27 -76 -11 -19 -35 -24 -64 -13 -14 6 -14 9 1 34 14
24 14 31 4 44 -22 26 -57 20 -70 -12 -15 -36 -2 -72 35 -101 56 -44 129 -16
165 63 25 54 24 84 -4 136 -27 52 -75 80 -136 80 -60 0 -104 -30 -134 -90 -24
-49 -25 -49 -32 -22 -11 47 -53 109 -88 131 -39 24 -101 34 -139 22z"/>
<path d="M4788 12060 c-46 -14 -85 -48 -102 -90 -21 -53 -20 -75 5 -128 39
-80 114 -104 169 -54 40 36 49 83 21 111 -27 27 -37 26 -57 -4 -16 -24 -16
-27 2 -46 16 -17 16 -22 4 -29 -22 -14 -47 -12 -64 6 -9 8 -16 18 -16 20 0 13
25 49 48 69 20 18 25 30 24 64 -2 39 0 42 21 36 95 -28 135 -140 82 -231 -28
-48 -91 -84 -146 -84 -99 1 -200 104 -248 252 -14 41 -28 55 -42 41 -20 -20
50 -185 108 -252 67 -79 177 -110 261 -75 46 19 100 69 117 109 l13 29 12 -41
c27 -89 112 -153 205 -153 120 0 225 106 280 281 20 62 15 104 -9 78 -8 -8
-23 -43 -35 -79 -67 -206 -234 -293 -350 -182 -48 46 -65 99 -50 156 13 46 68
106 98 106 17 0 21 -6 21 -36 0 -28 7 -42 35 -67 50 -44 44 -97 -11 -97 -29 0
-39 16 -24 35 19 23 4 65 -23 65 -32 0 -47 -18 -47 -56 0 -47 35 -84 86 -91
33 -4 45 -1 72 22 43 36 62 75 62 127 0 84 -66 148 -151 148 -58 0 -106 -30
-138 -90 l-24 -43 -12 40 c-18 60 -52 103 -99 124 -45 20 -57 21 -98 9z"/>
<path d="M7580 12048 c-108 -55 -123 -183 -30 -262 47 -39 102 -32 142 18 39
48 5 131 -44 105 -20 -11 -25 -55 -6 -61 20 -7 0 -38 -25 -38 -56 0 -62 51
-11 100 29 29 34 41 32 70 -3 32 -1 35 21 32 86 -13 134 -139 85 -223 -24 -41
-74 -76 -120 -85 -110 -21 -202 58 -273 232 -30 75 -47 85 -44 25 4 -94 112
-253 198 -292 53 -25 128 -24 180 1 50 24 78 53 105 106 14 28 19 33 20 18 0
-40 50 -121 91 -150 52 -35 131 -44 193 -20 56 21 139 109 171 178 32 70 50
141 42 162 -10 26 -23 12 -42 -46 -54 -169 -141 -257 -253 -258 -79 0 -132 46
-151 131 -19 86 30 179 95 179 21 0 23 -4 18 -28 -5 -23 2 -37 35 -76 23 -26
41 -51 41 -56 0 -17 -32 -40 -55 -40 -32 0 -41 17 -20 40 22 25 5 60 -31 60
-29 0 -48 -37 -38 -76 8 -32 59 -74 90 -74 97 0 167 147 108 227 -78 105 -213
97 -270 -16 l-22 -44 -12 39 c-37 116 -130 168 -220 122z"/>
<path d="M10405 12055 c-48 -17 -93 -67 -101 -113 -9 -45 10 -105 46 -145 24
-27 35 -32 73 -32 49 0 82 22 98 63 21 55 -24 110 -62 76 -23 -21 -24 -32 -2
-56 15 -17 15 -20 3 -28 -22 -14 -47 -12 -64 6 -24 23 -20 40 19 78 28 29 35
43 35 76 0 46 -1 45 45 26 48 -20 75 -68 75 -134 0 -97 -44 -155 -127 -168
-113 -17 -211 62 -273 221 -28 73 -46 96 -56 72 -7 -19 18 -102 51 -167 73
-144 207 -213 323 -164 45 18 97 67 113 105 13 34 29 38 29 9 0 -30 23 -70 62
-107 100 -96 262 -82 373 32 49 51 112 169 122 229 5 33 4 38 -12 35 -12 -3
-28 -28 -47 -74 -37 -91 -91 -162 -152 -200 -43 -26 -59 -30 -120 -30 -85 0
-134 25 -162 83 -47 99 6 222 96 222 15 0 20 -7 20 -29 0 -43 9 -60 41 -77 55
-28 47 -94 -13 -94 -29 0 -53 30 -30 38 15 5 15 35 0 50 -7 7 -21 12 -33 12
-30 0 -45 -19 -45 -56 0 -60 76 -107 144 -90 61 15 115 111 101 177 -8 36 -48
85 -86 104 -35 19 -110 19 -152 1 -36 -15 -77 -57 -99 -100 l-15 -29 -7 33
c-12 60 -54 120 -99 141 -50 22 -60 22 -112 4z"/>
<path d="M1333 11928 c-30 -33 -35 -75 -18 -142 9 -32 13 -61 11 -63 -10 -11
-83 -22 -106 -16 -49 11 -62 32 -58 93 3 53 2 55 -23 58 -32 4 -77 -37 -85
-78 -4 -19 -13 -30 -23 -30 -22 0 -60 -35 -72 -68 -15 -39 6 -55 54 -40 33 10
41 9 65 -9 23 -17 27 -28 30 -77 4 -78 -5 -88 -69 -69 -92 27 -174 -11 -167
-79 6 -66 87 -89 167 -48 65 33 84 23 92 -45 4 -28 2 -30 -31 -30 -47 -1 -60
-11 -60 -45 0 -40 38 -66 77 -53 67 23 88 116 44 197 l-25 45 28 88 c15 48 29
92 30 97 1 4 43 23 92 41 l91 32 44 -23 c69 -36 134 -30 178 17 26 28 27 70 3
92 -41 37 -89 10 -78 -43 4 -22 1 -32 -9 -36 -15 -6 -82 13 -89 25 -3 4 4 31
14 60 26 67 26 121 0 149 -28 30 -80 29 -107 0z m71 -91 c-3 -78 -44 -72 -44
6 0 34 3 38 23 35 19 -3 22 -9 21 -41z m-375 -406 c20 -13 5 -29 -35 -37 -39
-7 -60 5 -51 30 7 18 62 22 86 7z"/>
<path d="M11367 11912 c-8 -9 -20 -30 -26 -45 -11 -28 -8 -42 30 -135 13 -31
12 -35 -5 -48 -11 -8 -35 -14 -54 -14 -32 0 -34 2 -28 25 15 58 -39 91 -81 49
-42 -43 -13 -105 58 -124 44 -12 79 -6 130 24 l37 20 86 -28 c47 -15 89 -25
94 -22 5 3 25 -38 44 -92 l35 -97 -24 -47 c-25 -50 -29 -91 -14 -131 23 -60
90 -86 124 -49 37 41 11 88 -44 80 -44 -7 -53 36 -17 85 13 18 16 18 66 -2 76
-30 139 -25 164 13 16 23 8 73 -14 93 -33 30 -75 35 -141 18 -32 -8 -60 -15
-62 -15 -10 0 -26 84 -20 110 12 52 48 69 130 58 15 -2 21 4 23 23 4 32 -37
77 -78 85 -19 4 -30 13 -30 23 0 10 -9 27 -21 40 -42 45 -107 50 -95 7 18 -60
17 -72 -4 -99 -19 -24 -28 -27 -79 -27 -75 0 -82 8 -64 71 18 62 10 113 -22
145 -29 29 -75 32 -98 6z m71 -92 c5 -67 -31 -80 -44 -15 -7 39 1 57 24 53 11
-2 18 -15 20 -38z m437 -405 c0 -17 -6 -20 -38 -19 -45 2 -70 20 -47 35 8 5
31 8 50 7 27 -2 35 -7 35 -23z"/>
<path d="M831 11175 c3 -12 29 -28 74 -46 164 -67 247 -174 231 -302 -7 -65
-33 -106 -80 -130 -99 -52 -226 1 -226 93 0 15 7 20 29 20 43 0 60 9 77 41 28
55 94 47 94 -12 0 -35 -13 -44 -40 -27 -26 16 -54 1 -58 -32 -7 -42 61 -67 98
-37 79 62 60 171 -36 217 -129 63 -257 -74 -203 -217 13 -37 64 -89 101 -104
l29 -12 -51 -17 c-98 -33 -151 -113 -129 -195 31 -111 170 -147 260 -67 59 53
44 145 -28 173 -56 21 -112 -24 -77 -62 21 -23 32 -24 56 -2 17 15 20 15 28 3
16 -25 11 -59 -10 -70 -28 -15 -52 -6 -78 30 -19 26 -29 30 -67 30 -25 0 -45
2 -45 5 0 3 6 21 14 40 20 48 68 75 134 75 99 0 155 -43 168 -127 9 -62 -9
-116 -59 -170 -45 -49 -70 -65 -167 -104 -37 -15 -66 -34 -68 -43 -4 -21 13
-20 83 4 119 41 205 107 241 185 52 111 10 231 -99 287 l-29 14 40 12 c46 14
101 65 128 118 27 54 26 174 -1 229 -44 90 -191 194 -299 212 -33 5 -38 4 -35
-12z"/>
<path d="M11870 11153 c-96 -46 -180 -128 -203 -197 -44 -128 6 -262 117 -318
l29 -15 -47 -12 c-53 -13 -116 -65 -140 -115 -9 -19 -16 -58 -16 -88 0 -67 42
-145 103 -189 61 -46 162 -91 214 -97 72 -8 50 17 -50 56 -150 58 -227 150
-214 258 9 85 69 134 165 134 81 0 142 -41 142 -96 0 -19 -5 -22 -36 -21 -29
1 -42 -6 -69 -36 -36 -40 -45 -43 -76 -27 -19 11 -24 35 -13 64 6 14 9 14 34
-1 24 -14 31 -14 44 -4 26 22 20 57 -12 70 -36 15 -72 2 -101 -35 -44 -56 -16
-129 63 -165 54 -25 84 -24 136 4 52 27 80 75 80 136 0 57 -29 102 -84 132
l-45 23 60 29 c78 37 112 86 112 160 0 136 -119 216 -226 154 -83 -49 -100
-143 -37 -199 39 -36 83 -37 105 -4 13 19 14 29 5 45 -12 23 -56 29 -62 9 -2
-6 -12 -9 -21 -5 -34 13 -13 87 24 87 11 0 37 -18 57 -41 31 -35 41 -40 72
-37 33 3 35 1 32 -26 -15 -125 -214 -151 -284 -37 -32 50 -32 158 -1 217 30
56 103 119 182 155 89 40 92 42 94 54 4 24 -62 13 -133 -22z"/>
<path d="M12296 10359 c-30 -24 -34 -64 -10 -110 8 -16 58 -78 111 -137 103
-116 145 -179 168 -256 19 -63 12 -70 -15 -16 -27 53 -91 123 -150 164 -25 17
-99 58 -164 91 -65 33 -124 68 -130 77 -8 14 -4 24 22 51 17 18 32 36 32 40 0
3 -17 11 -37 16 -30 9 -44 7 -73 -7 -50 -24 -67 -60 -54 -111 10 -36 8 -43
-18 -82 -35 -52 -35 -72 -2 -98 40 -32 73 -28 81 9 7 39 33 53 97 52 60 -1
131 -23 202 -63 56 -32 96 -69 59 -55 -198 75 -399 25 -470 -117 -30 -61 -31
-107 -5 -165 45 -100 167 -159 271 -132 102 27 159 90 159 177 0 47 -4 58 -36
93 -64 71 -171 85 -251 33 -28 -19 -53 -63 -53 -93 0 -28 55 -80 85 -80 56 0
60 62 5 70 -26 4 -35 10 -35 25 0 46 105 61 152 21 l28 -25 -32 -33 c-38 -40
-42 -72 -11 -105 26 -28 21 -34 -35 -40 -65 -8 -138 20 -181 68 -31 33 -36 46
-36 87 0 117 115 202 274 202 61 0 82 -5 134 -31 106 -53 155 -139 154 -270 0
-87 -5 -95 -45 -65 -18 13 -42 27 -54 30 -29 9 -88 -17 -104 -45 -10 -20 -9
-25 6 -34 84 -48 69 -112 -35 -151 -52 -19 -280 -33 -280 -17 0 6 9 18 19 27
49 45 48 98 -4 132 -33 21 -52 12 -63 -28 -28 -110 -241 -50 -290 82 -5 14
-12 41 -16 61 l-6 36 47 -12 c57 -15 96 -4 126 37 32 43 17 59 -45 52 -78 -9
-103 16 -99 96 3 48 12 53 76 40 31 -6 72 -9 89 -6 68 13 97 75 56 116 -26 26
-93 26 -159 1 -46 -19 -50 -19 -64 -3 -9 9 -17 31 -19 47 -3 28 -1 30 30 27
18 -2 40 2 48 9 20 17 17 56 -5 69 -49 26 -105 -2 -122 -61 -11 -34 -9 -44 15
-93 l27 -56 -27 -67 c-39 -99 -37 -188 6 -308 18 -49 35 -109 37 -132 5 -38 2
-44 -21 -54 -14 -7 -26 -15 -26 -19 0 -28 78 -42 98 -17 5 6 13 26 16 42 l7
31 75 -37 c101 -49 185 -69 292 -69 109 0 200 22 347 85 147 63 203 75 250 52
30 -14 36 -22 33 -44 -4 -34 -28 -43 -28 -11 0 46 -43 64 -73 30 -24 -26 -21
-49 8 -77 44 -45 115 -30 134 28 13 40 4 72 -29 102 -26 23 -141 33 -190 17
-16 -6 -30 -7 -30 -3 0 5 15 41 34 82 74 162 74 258 1 477 -26 78 -51 145 -56
148 -5 2 -20 -3 -33 -12 -24 -15 -27 -15 -54 4 -57 41 -112 110 -112 141 0 42
19 49 45 18 24 -31 46 -34 69 -11 22 21 20 31 -9 59 -31 32 -91 34 -129 4z
m-447 -428 c23 -15 5 -41 -28 -41 -64 0 -81 24 -28 39 42 12 40 12 56 2z"/>
<path d="M370 10363 c-49 -19 -67 -73 -31 -93 27 -14 27 -14 55 16 27 29 56
27 56 -4 0 -28 -52 -100 -100 -138 -40 -32 -43 -33 -66 -17 -16 10 -29 12 -35
6 -18 -18 -90 -278 -96 -348 -7 -89 7 -153 58 -264 22 -46 39 -85 39 -87 0 -1
-34 0 -75 3 -84 7 -124 -5 -155 -45 -53 -66 16 -162 94 -132 37 14 59 52 47
83 -21 54 -81 42 -81 -16 l0 -31 -22 22 -22 22 26 27 c41 41 95 36 263 -27 77
-29 169 -58 205 -66 160 -34 336 -3 472 82 21 13 39 24 42 24 2 0 6 -13 9 -29
12 -56 66 -80 102 -44 16 16 16 17 -1 30 -10 7 -21 13 -26 13 -23 0 -17 56 16
159 47 146 48 206 3 318 l-34 81 24 39 c31 50 27 114 -10 151 -44 43 -117 29
-117 -24 0 -30 29 -46 69 -38 35 7 38 -2 20 -55 -12 -35 -20 -37 -79 -16 -93
33 -172 10 -172 -50 0 -59 72 -86 166 -62 68 17 79 9 80 -59 1 -64 -29 -89
-96 -80 -51 7 -63 -1 -54 -38 10 -42 77 -61 150 -42 l29 7 -5 -45 c-12 -100
-97 -184 -198 -194 -59 -5 -85 8 -100 53 -14 42 -45 47 -78 12 -31 -33 -28
-70 9 -112 40 -45 31 -49 -114 -43 -124 6 -184 24 -217 66 -28 35 -25 48 18
88 l37 35 -33 29 c-44 40 -85 40 -135 -1 -34 -28 -38 -29 -45 -12 -4 10 -7 54
-7 98 0 63 5 89 23 122 55 105 132 155 249 161 102 6 174 -18 235 -79 85 -84
74 -181 -27 -244 -40 -25 -59 -30 -111 -30 -34 0 -65 3 -69 7 -4 4 2 19 14 34
29 36 26 60 -9 96 -16 16 -30 35 -30 43 0 22 47 45 92 45 74 -1 107 -47 46
-65 -35 -11 -47 -37 -28 -60 19 -23 49 -18 81 14 41 41 39 83 -4 126 -69 69
-185 67 -257 -5 -67 -67 -64 -158 7 -220 50 -44 97 -62 163 -62 210 0 308 236
155 371 -68 59 -118 76 -225 76 -72 -1 -109 -6 -152 -22 -32 -12 -58 -17 -58
-12 0 5 25 26 57 45 146 94 303 104 315 20 4 -29 38 -32 71 -6 34 27 34 55 2
102 -19 28 -24 47 -22 85 3 81 -47 133 -117 119 -55 -11 -60 -25 -20 -60 55
-48 57 -46 -174 -174 -100 -55 -178 -127 -222 -205 -18 -32 -34 -56 -36 -54
-3 2 5 33 16 69 23 74 72 152 156 248 96 109 114 138 114 185 0 28 -6 47 -19
59 -20 18 -77 29 -101 19z m644 -444 c14 -13 2 -20 -43 -26 -33 -4 -42 -2 -47
12 -4 10 -1 21 7 26 15 10 68 2 83 -12z"/>
<path d="M11984 9150 c-39 -10 -105 -36 -145 -57 -41 -21 -77 -39 -81 -41 -5
-2 -8 6 -8 18 0 26 -43 70 -69 70 -23 0 -54 -28 -45 -41 3 -6 17 -14 30 -19
32 -13 31 -32 -11 -161 -49 -153 -45 -245 18 -365 13 -25 13 -31 -9 -72 -13
-25 -24 -60 -24 -78 0 -39 38 -89 76 -98 35 -9 74 17 74 49 0 30 -25 44 -69
37 -34 -5 -34 -5 -27 29 11 58 24 63 94 40 76 -26 89 -26 130 -1 24 15 32 27
32 49 0 64 -72 94 -162 67 -66 -19 -81 -9 -82 58 -1 65 18 82 94 79 55 -2 60
-1 60 18 0 11 -14 34 -30 51 -27 27 -36 30 -73 25 -23 -2 -51 -8 -61 -13 -17
-7 -19 -3 -14 39 8 66 49 131 104 163 84 49 185 40 192 -18 5 -38 25 -52 54
-37 56 30 63 81 18 133 -37 41 -29 46 69 46 137 0 253 -37 271 -86 14 -35 14
-32 -25 -69 -40 -36 -39 -52 4 -78 44 -26 85 -22 125 14 l35 30 12 -43 c15
-56 5 -145 -22 -203 -27 -57 -96 -119 -156 -139 -61 -21 -167 -20 -228 1 -71
24 -141 96 -150 155 -8 54 8 91 58 135 40 35 121 58 172 49 41 -8 41 -10 15
-43 -28 -36 -25 -67 10 -96 36 -31 38 -50 8 -71 -25 -18 -100 -21 -129 -6 -25
14 -25 50 0 50 34 0 51 12 51 36 0 35 -33 48 -70 29 -59 -31 -67 -88 -17 -140
69 -74 200 -68 267 13 129 157 -96 346 -291 244 -69 -36 -110 -93 -117 -160
-17 -187 202 -311 428 -243 40 12 74 20 76 18 6 -6 -54 -51 -101 -74 -51 -26
-140 -53 -176 -53 -46 0 -79 21 -87 54 -10 38 -27 42 -69 16 -41 -24 -43 -59
-9 -105 21 -27 25 -42 23 -89 -2 -53 0 -60 31 -87 35 -32 80 -38 120 -16 l22
13 -30 29 c-56 54 -39 75 128 160 132 67 215 138 258 220 33 62 45 70 35 23
-20 -87 -71 -170 -176 -288 -105 -118 -132 -193 -84 -236 47 -42 149 -14 149
42 0 25 -30 47 -53 38 -8 -3 -19 -16 -25 -30 -13 -28 -24 -30 -42 -9 -22 26
-1 68 66 133 63 62 64 63 89 46 16 -10 30 -13 35 -8 16 16 81 237 93 316 14
96 2 166 -48 280 -20 46 -39 88 -41 93 -3 6 32 10 92 10 95 0 96 0 125 33 55
61 25 142 -52 142 -51 0 -94 -38 -83 -73 20 -68 84 -62 84 8 l1 30 19 -23 c26
-31 13 -56 -36 -72 -47 -16 -83 -8 -236 50 -212 81 -342 98 -484 60z m-115
-619 c19 -12 6 -41 -18 -41 -28 0 -71 18 -71 29 0 8 14 12 65 19 6 1 16 -2 24
-7z"/>
<path d="M525 9141 c-38 -10 -128 -42 -200 -71 -149 -61 -197 -70 -244 -46
-26 14 -32 22 -29 43 4 31 28 44 28 15 0 -37 11 -52 41 -52 50 0 65 55 24 95
-43 44 -112 29 -135 -29 -32 -85 59 -147 184 -125 32 6 60 8 62 6 2 -2 -11
-37 -29 -78 -74 -163 -75 -258 -3 -476 26 -78 51 -145 57 -149 5 -3 21 1 33
10 23 14 27 13 63 -13 86 -62 131 -151 86 -168 -9 -4 -18 -2 -20 4 -2 5 -10
18 -17 28 -17 24 -62 13 -72 -17 -18 -57 108 -94 154 -45 48 51 25 102 -120
262 -86 94 -148 197 -164 270 -5 24 1 18 33 -30 65 -98 138 -157 291 -232 154
-77 166 -91 116 -144 -35 -37 -22 -54 42 -54 39 0 50 5 75 33 30 34 36 63 20
105 -8 21 -5 32 19 64 37 47 38 76 4 102 -39 30 -72 28 -80 -6 -4 -16 -11 -33
-16 -39 -25 -33 -140 -23 -237 21 -54 25 -126 74 -119 81 2 2 32 -6 67 -16
173 -54 350 2 415 132 31 61 33 108 7 163 -57 124 -211 174 -331 109 -69 -37
-100 -84 -100 -148 0 -82 57 -144 151 -161 105 -19 218 77 178 152 -27 51
-100 66 -114 23 -8 -25 1 -40 25 -40 51 0 66 -28 28 -54 -35 -25 -102 -20
-135 8 l-28 25 33 30 c37 35 41 67 11 105 l-20 26 28 11 c60 23 167 -12 217
-71 37 -45 36 -110 -3 -172 -42 -66 -134 -111 -229 -111 -129 -1 -227 55 -277
158 -22 44 -27 68 -27 133 -1 100 5 110 44 77 39 -33 71 -40 109 -25 27 12 59
44 59 61 0 4 -16 16 -35 28 -55 32 -45 86 23 120 54 27 131 41 227 41 85 0 99
-6 69 -31 -17 -14 -44 -62 -44 -78 0 -21 53 -71 75 -71 18 0 25 8 32 37 11 49
42 66 107 59 106 -11 177 -84 201 -205 7 -30 5 -33 -11 -26 -11 4 -40 10 -65
12 -38 4 -50 1 -72 -18 -15 -13 -28 -35 -29 -49 -3 -24 -2 -25 54 -22 75 4 98
-16 98 -87 0 -28 -5 -53 -11 -56 -5 -4 -39 -1 -73 6 -57 11 -67 10 -101 -7
-47 -23 -60 -43 -51 -77 14 -58 85 -68 181 -27 l45 19 14 -22 c8 -12 16 -33
18 -47 3 -23 0 -25 -30 -22 -39 4 -62 -12 -62 -42 0 -30 19 -46 55 -46 43 0
72 24 86 70 11 35 9 44 -15 95 l-28 56 26 72 c14 40 28 86 31 104 9 44 -11
143 -46 230 -38 97 -41 133 -11 148 33 18 36 23 22 40 -16 19 -64 19 -83 0 -9
-8 -18 -28 -22 -44 l-6 -30 -33 20 c-19 11 -71 33 -117 51 -109 40 -264 48
-374 19z m514 -617 c10 -9 -17 -25 -52 -31 -29 -4 -38 -2 -43 12 -10 24 14 37
56 29 19 -3 37 -8 39 -10z"/>
<path d="M11906 8295 c-201 -71 -301 -221 -237 -360 19 -43 92 -115 116 -115
31 0 14 -16 -29 -28 -88 -23 -146 -100 -146 -193 0 -123 105 -229 281 -284 62
-20 104 -15 78 9 -8 8 -43 23 -79 35 -75 24 -159 77 -188 118 -30 43 -45 101
-39 151 13 119 191 176 277 90 17 -16 30 -40 30 -54 0 -21 -5 -24 -36 -24 -28
0 -42 -7 -67 -35 -44 -50 -97 -44 -97 11 0 29 16 39 35 24 23 -19 65 -4 65 23
0 55 -73 66 -121 18 -38 -39 -39 -87 -3 -131 97 -115 274 -56 274 91 0 60 -31
106 -94 140 l-48 26 39 6 c87 14 163 107 147 181 -11 52 -45 97 -88 117 -53
24 -80 24 -134 -2 -80 -39 -104 -114 -54 -169 36 -40 83 -49 111 -21 27 27 26
37 -4 57 -24 16 -27 16 -46 -2 -17 -16 -22 -16 -29 -4 -14 22 -12 47 6 64 22
23 29 21 74 -21 34 -30 48 -36 81 -35 38 2 39 1 33 -26 -16 -69 -101 -110
-187 -90 -82 18 -127 70 -127 148 1 115 73 186 273 269 27 11 33 31 11 38 -5
1 -40 -8 -78 -22z"/>
<path d="M825 8301 c-6 -11 25 -31 47 -31 25 0 154 -67 191 -99 122 -108 93
-279 -52 -312 -81 -18 -181 34 -181 95 0 23 3 25 28 20 23 -5 37 2 76 35 53
46 50 45 77 31 20 -11 25 -45 9 -70 -7 -12 -12 -12 -29 4 -15 14 -23 15 -40 6
-31 -16 -28 -58 5 -70 57 -22 124 31 124 97 0 44 -53 99 -106 109 -68 13 -116
-1 -156 -45 -33 -34 -38 -47 -38 -86 0 -70 34 -122 103 -157 l28 -14 -55 -23
c-63 -26 -101 -65 -116 -120 -31 -117 95 -217 213 -167 42 17 87 70 87 102 0
33 -25 81 -49 94 -54 28 -124 -6 -101 -49 12 -23 56 -29 62 -9 7 20 38 0 38
-25 0 -56 -51 -62 -100 -11 -29 29 -41 34 -70 32 -32 -3 -35 -1 -32 21 6 39
30 68 73 85 54 22 104 20 157 -5 58 -29 87 -88 79 -161 -12 -95 -79 -163 -218
-220 -88 -36 -109 -65 -38 -54 108 17 252 117 290 201 25 53 24 128 -1 180
-24 50 -53 78 -106 105 -28 14 -33 19 -18 20 40 0 121 50 150 91 35 51 44 131
20 192 -31 82 -122 156 -241 197 -63 22 -101 25 -110 11z"/>
<path d="M12315 7558 c-81 -44 -59 -111 86 -265 38 -40 84 -96 104 -126 32
-49 81 -165 72 -173 -2 -2 -21 24 -43 58 -52 81 -134 146 -279 219 -170 86
-180 98 -123 142 27 22 30 28 19 41 -8 9 -29 16 -48 16 -77 0 -121 -53 -108
-129 5 -33 2 -46 -19 -78 -35 -51 -34 -79 7 -103 45 -28 64 -26 72 10 14 62
82 76 196 40 64 -19 185 -87 175 -98 -3 -2 -32 3 -63 14 -76 24 -192 24 -260
1 -69 -24 -146 -94 -169 -152 -35 -93 4 -190 100 -249 140 -87 336 -2 336 145
0 60 -31 107 -90 137 -100 50 -227 7 -246 -84 -12 -63 79 -124 117 -78 18 21
0 48 -36 54 -34 6 -41 22 -20 43 25 26 82 32 121 13 41 -19 44 -43 9 -76 -30
-29 -32 -68 -5 -103 l20 -26 -22 -7 c-42 -13 -112 -5 -157 19 -141 72 -117
237 43 308 154 68 329 9 403 -135 22 -43 26 -64 26 -132 0 -105 -5 -113 -49
-74 -47 41 -92 41 -136 0 l-33 -30 38 -31 c63 -52 42 -100 -61 -139 -52 -20
-227 -38 -257 -27 -14 6 -13 11 8 39 32 44 38 64 27 93 -10 27 -60 57 -77 47
-6 -4 -14 -18 -18 -32 -14 -47 -34 -60 -92 -60 -108 0 -196 78 -217 194 -7 37
-6 38 16 32 83 -24 118 -15 154 40 15 22 15 27 2 40 -11 12 -21 13 -42 4 -56
-21 -108 14 -108 73 0 58 11 80 35 72 12 -3 52 -9 89 -12 62 -5 68 -4 92 20
34 34 33 70 0 96 -34 27 -78 27 -149 -1 -62 -23 -70 -20 -85 31 -10 35 4 49
36 37 49 -19 74 51 28 80 -34 23 -71 10 -101 -35 -29 -44 -29 -67 3 -127 l26
-49 -28 -80 c-37 -103 -36 -179 1 -285 62 -175 63 -183 19 -194 -33 -9 -28
-37 8 -50 35 -12 74 13 83 54 4 16 9 30 12 30 2 0 23 -11 46 -24 65 -38 188
-76 269 -82 106 -9 213 15 388 86 161 64 224 75 268 44 25 -18 29 -46 7 -64
-13 -11 -15 -8 -15 17 0 55 -47 72 -76 27 -25 -37 -9 -74 38 -92 30 -12 41
-12 64 0 43 20 59 61 42 105 -20 54 -67 76 -148 70 -36 -3 -74 -8 -84 -13 -15
-6 -18 -4 -13 7 3 8 23 55 44 104 36 86 38 95 38 200 0 104 -3 117 -44 235
-68 194 -56 174 -90 154 -29 -17 -30 -17 -72 12 -54 37 -99 99 -99 136 0 34
28 39 48 8 14 -23 54 -26 72 -5 39 47 -63 107 -125 73z m-460 -458 c0 -16 -55
-26 -83 -15 -15 6 -15 8 3 21 25 19 80 15 80 -6z"/>
<path d="M342 7534 c-37 -26 -24 -84 20 -84 10 0 25 11 34 25 35 53 67 11 38
-50 -17 -36 -107 -125 -127 -125 -6 0 -19 8 -29 17 -11 10 -22 13 -27 7 -24
-25 -101 -326 -101 -394 0 -58 35 -170 81 -262 31 -60 31 -61 7 -54 -12 4 -46
9 -74 13 -97 11 -178 -50 -160 -122 8 -33 44 -65 73 -65 36 0 80 26 86 52 9
34 -18 70 -51 66 -22 -2 -28 -9 -30 -35 -4 -37 -16 -42 -32 -13 -9 17 -6 25
14 45 39 39 93 34 249 -24 181 -67 248 -83 347 -84 109 -1 173 14 287 69 51
24 95 44 98 44 3 0 5 -8 5 -18 0 -33 29 -62 64 -62 57 0 74 35 26 51 -39 14
-39 36 2 147 27 74 32 101 32 182 1 86 -2 101 -30 161 l-31 66 23 44 c29 54
30 94 4 136 -32 53 -113 58 -126 8 -9 -37 13 -58 54 -52 23 4 35 2 39 -9 5
-14 -13 -71 -27 -79 -4 -2 -30 5 -59 15 -66 26 -112 25 -145 -1 -36 -28 -35
-70 2 -99 23 -19 35 -21 87 -16 33 3 72 8 87 12 24 6 28 3 37 -34 21 -77 -11
-116 -91 -110 -48 3 -53 1 -56 -19 -6 -38 39 -73 93 -73 26 0 55 5 66 10 17
10 19 7 19 -25 0 -106 -102 -206 -212 -208 -50 -1 -88 22 -88 53 0 19 -19 40
-37 40 -8 0 -25 -11 -38 -25 -35 -34 -33 -74 5 -110 17 -16 30 -32 30 -35 0
-14 -107 -19 -189 -10 -93 10 -145 32 -174 71 -24 33 -17 59 24 83 37 22 35
43 -10 73 -47 32 -74 29 -120 -12 -45 -41 -48 -38 -58 55 -9 92 16 161 86 231
89 88 184 109 314 69 186 -57 223 -242 64 -319 -42 -20 -145 -30 -160 -15 -4
4 2 19 13 34 28 39 25 61 -10 95 -16 16 -30 34 -30 40 0 39 93 67 140 43 36
-19 33 -51 -5 -58 -50 -9 -42 -70 9 -70 31 0 76 50 76 83 0 84 -128 144 -227
106 -34 -13 -80 -55 -99 -91 -45 -87 28 -200 148 -228 178 -43 340 125 274
285 -21 50 -90 111 -154 136 -80 31 -206 31 -282 1 -68 -27 -68 -27 -41 2 38
40 160 96 223 103 80 8 107 -1 124 -42 16 -39 40 -45 79 -19 34 22 32 62 -4
108 -26 32 -28 41 -20 69 11 40 -4 91 -34 112 -27 19 -97 20 -122 1 -17 -12
-16 -14 13 -36 40 -30 42 -62 5 -88 -16 -10 -73 -42 -128 -70 -134 -69 -208
-130 -258 -215 -22 -37 -42 -65 -44 -63 -9 8 40 132 71 181 19 28 63 85 99
126 94 109 117 145 117 190 0 53 -27 79 -83 79 -23 0 -53 -7 -65 -16z m660
-425 c28 -15 7 -29 -44 -29 -31 0 -38 4 -38 20 0 16 7 20 31 20 17 0 40 -5 51
-11z"/>
<path d="M12055 6350 c-85 -13 -137 -30 -215 -71 -86 -45 -90 -45 -90 -21 0
34 -29 62 -64 62 -28 0 -68 -24 -55 -33 2 -2 16 -11 32 -20 15 -10 27 -26 27
-38 0 -12 -16 -69 -36 -127 -33 -95 -36 -113 -32 -187 3 -63 11 -95 31 -137
32 -66 32 -68 7 -118 -24 -47 -25 -81 -5 -120 26 -51 87 -67 118 -32 35 38 11
76 -45 70 -32 -3 -33 -2 -31 31 2 56 19 64 81 41 67 -26 112 -25 146 1 36 28
35 70 -1 99 -24 19 -37 21 -88 17 -33 -3 -72 -9 -87 -12 -25 -7 -28 -4 -37 33
-20 72 11 115 81 112 65 -3 68 -2 68 23 0 50 -83 82 -149 59 -31 -11 -31 -11
-31 24 0 105 104 207 212 208 50 0 88 -23 88 -54 0 -19 19 -40 37 -40 8 0 25
11 38 25 35 34 33 76 -5 112 -16 15 -30 31 -30 34 0 13 109 18 189 9 93 -10
145 -32 174 -71 24 -33 17 -59 -24 -83 -38 -22 -35 -43 11 -74 44 -29 82 -24
126 19 37 36 41 31 51 -61 12 -117 -57 -239 -162 -289 -137 -64 -329 -12 -385
104 -52 107 25 213 161 223 32 2 66 2 74 -2 15 -5 14 -9 -4 -35 -29 -40 -26
-62 9 -96 17 -16 30 -34 30 -40 0 -39 -93 -67 -140 -43 -36 19 -33 51 5 58 33
6 44 32 25 55 -19 23 -54 18 -83 -13 -48 -50 -29 -115 44 -153 73 -37 168 -20
222 41 75 83 55 185 -50 247 -41 24 -59 28 -118 28 -82 -1 -134 -23 -184 -81
-40 -45 -51 -73 -51 -130 0 -60 20 -105 70 -153 96 -93 254 -110 425 -45 17 6
17 4 -5 -20 -42 -46 -163 -98 -240 -104 -59 -4 -70 -2 -89 17 -11 11 -21 30
-21 41 0 29 -50 27 -78 -3 -30 -31 -28 -57 7 -101 26 -32 28 -41 19 -66 -13
-38 5 -93 37 -114 29 -19 94 -21 119 -3 16 12 15 15 -13 40 -35 31 -39 57 -13
79 9 9 62 38 117 66 155 77 229 140 290 245 15 26 29 46 32 44 9 -9 -39 -132
-71 -182 -19 -28 -63 -85 -99 -126 -94 -109 -117 -145 -117 -190 0 -53 27 -79
83 -79 51 0 87 22 87 54 0 48 -49 62 -76 21 -35 -53 -67 -11 -38 50 17 36 107
125 127 125 6 0 19 -8 29 -17 11 -10 22 -13 27 -7 11 11 64 181 85 274 30 127
16 221 -55 361 -39 78 -40 81 -17 75 104 -30 203 -7 227 52 23 56 -12 122 -64
122 -38 0 -82 -26 -88 -52 -9 -34 18 -70 51 -66 22 2 28 9 30 36 4 36 16 41
32 12 9 -17 6 -25 -14 -45 -38 -38 -95 -34 -224 16 -209 80 -346 107 -457 89z
m-175 -650 c0 -16 -7 -20 -31 -20 -17 0 -40 5 -51 11 -28 15 -7 29 45 29 30 0
37 -4 37 -20z"/>
<path d="M575 6339 c-72 -14 -135 -35 -266 -90 -127 -53 -195 -63 -237 -33
-25 18 -29 46 -7 64 13 11 15 8 15 -17 0 -53 46 -72 74 -31 36 51 3 98 -67 98
-99 0 -114 -120 -22 -165 39 -18 134 -18 179 1 15 6 18 4 13 -7 -3 -8 -23 -54
-44 -104 -36 -86 -38 -95 -38 -200 0 -104 3 -117 44 -235 68 -194 56 -174 90
-154 29 17 30 17 72 -12 54 -37 99 -99 99 -136 0 -36 -20 -37 -55 -2 -24 24
-28 25 -48 11 -30 -20 -32 -42 -8 -66 59 -59 161 -25 161 52 0 41 -35 92 -131
194 -38 40 -84 96 -104 126 -33 50 -81 165 -72 173 2 3 21 -23 41 -56 53 -86
116 -136 272 -215 75 -38 144 -80 152 -92 13 -21 12 -25 -18 -53 -27 -25 -30
-33 -20 -45 7 -8 28 -15 47 -15 77 0 125 57 107 128 -8 33 -6 42 18 76 38 52
36 81 -4 106 -46 28 -65 26 -73 -10 -14 -64 -95 -78 -211 -36 -62 23 -164 83
-164 97 0 4 33 -4 73 -18 62 -22 83 -25 146 -19 230 19 361 208 248 359 -68
90 -191 121 -292 73 -147 -68 -159 -234 -21 -297 102 -46 224 -1 242 89 12 59
-80 120 -117 76 -18 -21 0 -48 36 -54 38 -7 41 -24 9 -49 -31 -25 -73 -27
-113 -6 -41 21 -44 39 -10 71 35 33 38 70 9 107 l-21 26 35 9 c72 20 180 -20
217 -82 22 -37 25 -106 5 -144 -21 -41 -65 -78 -121 -104 -72 -33 -201 -33
-265 1 -62 32 -107 77 -138 136 -21 42 -25 63 -25 131 0 105 5 113 49 74 47
-41 92 -41 136 0 l33 30 -37 31 c-24 19 -38 40 -38 54 0 33 46 73 103 90 56
17 226 31 252 21 15 -5 14 -10 -8 -36 -35 -41 -41 -65 -25 -97 14 -30 53 -54
74 -46 6 2 15 16 19 31 12 48 33 62 92 62 108 0 196 -78 217 -194 7 -37 6 -38
-16 -32 -84 24 -129 13 -154 -37 -14 -25 -14 -31 -2 -44 11 -11 21 -11 43 -3
59 22 105 -13 105 -80 0 -58 -16 -75 -54 -60 -48 18 -130 12 -160 -11 -54 -42
-16 -119 59 -119 18 0 59 10 90 22 62 23 70 20 84 -30 11 -37 2 -47 -34 -38
-35 9 -70 -26 -55 -55 28 -51 94 -44 130 13 25 40 21 85 -13 137 l-24 36 22
50 c57 130 54 200 -16 387 -35 94 -36 106 -5 118 34 13 42 31 21 47 -41 29
-86 7 -100 -49 l-7 -27 -48 24 c-135 68 -305 98 -425 74z m460 -628 c8 -14
-32 -33 -63 -29 -16 2 -28 10 -30 21 -3 14 4 17 42 17 25 0 47 -4 51 -9z"/>
<path d="M826 5491 c-9 -13 13 -26 78 -46 79 -25 169 -85 203 -136 23 -35 28
-53 28 -104 0 -52 -4 -67 -28 -98 -36 -47 -78 -69 -132 -69 -50 0 -95 21 -124
58 -33 42 -28 64 15 64 28 0 42 7 67 35 44 50 97 44 97 -11 0 -29 -16 -39 -35
-24 -23 19 -65 4 -65 -23 0 -55 73 -66 121 -18 38 39 39 87 3 131 -97 115
-274 56 -274 -91 0 -60 31 -106 94 -140 l48 -26 -39 -6 c-79 -13 -146 -88
-146 -162 0 -114 117 -182 227 -130 74 35 97 112 49 165 -37 40 -84 49 -112
21 -27 -27 -26 -37 4 -57 24 -16 27 -16 46 2 17 16 22 16 29 4 14 -22 12 -47
-6 -64 -22 -23 -29 -21 -74 21 -34 30 -48 36 -81 35 -37 -2 -40 0 -34 21 33
110 184 140 271 53 39 -39 53 -106 34 -169 -19 -65 -98 -136 -195 -176 -91
-38 -104 -46 -89 -61 13 -13 80 8 159 47 153 76 220 209 166 328 -19 43 -92
115 -116 115 -31 0 -14 16 29 28 88 23 146 100 146 193 0 121 -95 221 -269
280 -59 21 -87 24 -95 10z"/>
<path d="M11902 5480 c-75 -27 -130 -61 -179 -111 -112 -113 -92 -277 42 -351
34 -19 43 -28 29 -28 -11 0 -43 -11 -71 -25 -135 -67 -152 -232 -37 -347 70
-70 232 -142 278 -125 26 10 12 23 -46 42 -169 54 -257 141 -258 253 0 76 39
125 116 148 42 12 61 13 98 3 52 -13 96 -56 96 -95 0 -21 -4 -23 -28 -18 -23
5 -37 -2 -76 -35 -53 -46 -50 -45 -77 -31 -12 7 -19 21 -19 40 0 37 16 47 40
25 35 -32 77 13 51 55 -6 8 -25 14 -47 14 -29 0 -43 -7 -65 -32 -32 -36 -36
-69 -14 -112 35 -68 153 -98 212 -54 104 77 97 213 -15 269 l-43 22 46 18
c134 50 169 166 81 262 -27 30 -41 36 -84 41 -63 6 -102 -9 -142 -55 -43 -49
-38 -104 14 -145 48 -39 131 -5 105 44 -11 20 -55 25 -61 6 -7 -20 -38 0 -38
25 0 56 51 62 100 11 29 -29 41 -34 70 -32 32 3 35 1 31 -22 -5 -42 -21 -61
-64 -81 -74 -33 -153 -20 -206 35 -59 60 -53 165 13 243 35 40 136 99 209 123
41 13 51 40 15 40 -13 -1 -47 -9 -76 -20z"/>
<path d="M12292 4727 c-26 -27 -28 -66 -7 -107 9 -17 58 -77 109 -134 99 -109
136 -164 167 -247 24 -63 19 -73 -12 -22 -62 100 -145 166 -327 257 -62 31
-116 64 -119 72 -3 9 7 29 28 50 41 42 30 59 -37 59 -39 0 -50 -5 -75 -33 -30
-34 -36 -63 -20 -105 8 -21 5 -32 -19 -64 -37 -47 -38 -76 -4 -102 39 -30 72
-28 80 7 4 15 11 32 16 38 25 33 140 23 235 -20 51 -24 127 -75 120 -82 -1 -2
-31 6 -66 16 -173 54 -348 0 -413 -129 -32 -62 -35 -105 -12 -159 52 -125 206
-179 331 -117 174 87 119 309 -77 310 -68 0 -117 -26 -145 -77 -25 -46 -14
-84 32 -111 38 -22 69 -16 79 15 8 25 -17 48 -53 48 -29 0 -30 24 -1 44 35 25
102 20 135 -8 l28 -25 -32 -30 c-38 -35 -42 -67 -12 -105 l20 -26 -28 -11
c-60 -23 -167 12 -217 71 -21 25 -26 42 -26 84 0 74 37 123 124 166 80 39 170
45 253 16 64 -22 136 -88 165 -152 21 -49 29 -148 15 -197 l-8 -28 -30 25
c-40 34 -72 41 -110 26 -27 -12 -59 -44 -59 -61 0 -4 16 -16 35 -28 55 -32 45
-86 -23 -120 -54 -27 -131 -41 -227 -41 -85 0 -99 6 -69 31 17 14 44 62 44 78
0 21 -53 71 -75 71 -18 0 -25 -8 -32 -37 -11 -49 -42 -66 -107 -59 -67 7 -130
47 -162 102 -24 41 -50 122 -41 130 2 2 21 -1 42 -7 71 -20 157 27 139 75 -6
15 -15 16 -56 11 -74 -10 -98 9 -98 80 0 29 5 57 11 60 6 4 39 2 74 -5 57 -11
68 -10 101 6 46 23 59 43 50 78 -14 55 -88 65 -184 25 -42 -18 -42 -18 -56 4
-8 12 -16 33 -18 47 -3 23 0 25 30 22 39 -4 62 12 62 42 0 30 -19 46 -55 46
-43 0 -72 -24 -86 -70 -11 -35 -9 -44 16 -95 l27 -56 -25 -67 c-47 -128 -44
-192 14 -340 28 -69 38 -142 21 -142 -5 0 -17 -6 -27 -14 -16 -12 -17 -16 -6
-30 17 -20 65 -21 84 -1 9 8 18 28 22 44 l6 29 76 -38 c92 -47 186 -70 290
-70 103 0 177 19 347 87 160 64 208 73 254 49 32 -16 38 -30 26 -60 -9 -22
-24 -20 -24 3 0 36 -12 51 -41 51 -50 0 -65 -55 -24 -95 43 -44 112 -29 135
29 32 85 -59 147 -184 125 -32 -6 -60 -8 -62 -6 -2 2 11 37 29 78 74 163 75
258 3 476 -26 78 -51 145 -57 149 -5 3 -21 -1 -33 -10 -23 -14 -27 -13 -63 13
-22 16 -54 46 -71 67 -51 62 -37 136 14 80 29 -31 45 -33 67 -8 23 25 21 37
-9 61 -38 30 -103 28 -132 -2z m-434 -438 c4 -22 -22 -31 -64 -23 -39 7 -44
21 -11 34 32 13 71 8 75 -11z"/>
<path d="M346 4719 c-32 -25 -34 -64 -4 -80 19 -10 25 -8 50 22 26 31 29 32
44 17 27 -27 8 -67 -62 -137 -63 -61 -66 -62 -84 -46 -11 10 -25 15 -33 12
-15 -6 -70 -170 -93 -276 -26 -124 -15 -203 50 -345 20 -43 36 -79 36 -80 0 0
-43 -1 -96 -1 -95 0 -96 0 -125 -33 -35 -39 -38 -78 -8 -116 40 -51 141 -24
141 38 0 38 -24 60 -56 52 -22 -5 -26 -12 -26 -44 l-1 -37 -19 23 c-26 32 -12
58 41 73 45 14 59 11 307 -76 225 -79 371 -73 555 23 40 20 75 38 80 40 4 2 7
-6 7 -18 0 -26 43 -70 69 -70 23 0 54 28 45 41 -3 6 -17 14 -30 19 -32 13 -31
32 12 164 46 141 45 225 -3 327 l-30 65 23 45 c34 63 32 103 -10 145 -19 19
-42 34 -53 34 -30 0 -63 -29 -63 -55 0 -31 25 -44 69 -37 34 5 34 5 27 -29
-11 -56 -27 -65 -78 -44 -91 37 -178 16 -178 -42 0 -66 63 -94 158 -69 70 18
85 8 86 -58 1 -63 -19 -81 -92 -81 -50 0 -57 -3 -60 -20 -5 -34 42 -69 91 -70
23 0 52 4 65 8 20 8 22 5 22 -25 -1 -72 -60 -155 -135 -189 -74 -34 -152 -18
-162 33 -8 42 -26 52 -61 34 -52 -27 -57 -79 -11 -130 l30 -35 -26 -7 c-38 -9
-213 2 -255 17 -53 18 -87 46 -95 76 -6 24 -1 33 32 61 l38 32 -33 30 c-44 41
-89 41 -136 -1 l-35 -30 -12 43 c-26 96 12 222 87 288 60 52 109 70 195 70
100 0 160 -21 220 -79 77 -75 79 -146 4 -217 -48 -47 -121 -71 -180 -60 -41 8
-41 10 -15 43 28 36 25 59 -10 95 -39 38 -35 58 14 82 36 17 43 18 80 5 29
-10 42 -20 44 -36 3 -17 -2 -23 -16 -23 -35 0 -52 -12 -52 -36 0 -35 33 -48
70 -29 59 31 67 88 18 140 -69 73 -198 68 -267 -10 -134 -153 96 -349 290
-247 130 68 158 217 61 324 -83 92 -228 123 -372 79 -40 -12 -74 -20 -77 -18
-6 7 54 51 102 75 54 27 141 52 180 52 39 0 82 -32 87 -63 4 -29 26 -32 66 -7
40 24 42 59 8 105 -20 26 -24 42 -23 90 1 53 -1 60 -31 86 -34 31 -71 37 -118
19 l-27 -11 38 -39 c38 -39 38 -40 20 -60 -11 -12 -59 -42 -107 -66 -169 -88
-280 -183 -317 -273 -18 -41 -31 -40 -21 3 19 86 73 172 190 306 68 77 90 117
90 164 0 43 -37 76 -85 76 -18 0 -44 -9 -59 -21z m650 -419 c31 -12 23 -25
-21 -33 -37 -7 -60 5 -52 27 7 18 34 20 73 6z"/>
<path d="M12683 3540 c-35 -14 -55 -53 -44 -83 21 -54 81 -42 81 16 l0 31 22
-22 22 -22 -26 -27 c-41 -41 -95 -36 -263 27 -184 68 -256 83 -375 77 -103 -5
-201 -34 -296 -88 l-51 -29 -6 29 c-11 56 -66 80 -101 45 -21 -20 -21 -21 14
-39 38 -19 38 -32 -1 -147 -45 -134 -49 -223 -15 -312 15 -38 31 -75 37 -82 7
-8 2 -26 -16 -59 -33 -63 -33 -106 3 -145 44 -51 122 -40 122 16 0 30 -29 46
-69 38 -27 -6 -31 -4 -31 14 0 30 21 72 36 72 8 0 43 -10 78 -21 64 -21 65
-21 103 -3 33 16 38 24 41 56 3 30 -1 40 -22 53 -36 24 -94 28 -148 12 -58
-18 -71 -8 -72 59 -1 37 4 50 24 66 20 16 33 19 77 13 52 -6 53 -6 53 18 0 16
-12 35 -32 52 -27 23 -39 26 -73 22 -22 -3 -48 -8 -57 -12 -42 -17 -1 133 48
177 33 29 107 58 149 58 50 0 83 -22 87 -58 4 -36 41 -42 74 -11 33 31 31 70
-6 112 -16 19 -30 37 -30 41 0 3 44 6 98 6 149 0 260 -36 277 -91 8 -24 -17
-65 -45 -74 -28 -9 -25 -29 11 -59 45 -38 92 -33 146 16 l21 20 11 -38 c16
-58 13 -117 -9 -176 -26 -70 -66 -117 -131 -153 -49 -27 -62 -30 -149 -30 -84
0 -101 3 -146 27 -59 31 -97 72 -114 124 -34 102 56 199 187 199 33 0 64 -3
68 -7 4 -4 -2 -19 -14 -34 -29 -37 -26 -61 9 -94 17 -15 30 -35 30 -43 0 -24
-40 -47 -82 -47 -80 0 -120 47 -56 65 51 15 47 75 -4 75 -32 0 -78 -54 -78
-90 0 -65 101 -129 181 -114 145 28 204 160 116 261 -132 151 -408 60 -407
-134 1 -91 59 -170 159 -217 65 -30 212 -29 294 1 31 12 57 18 57 13 0 -12
-82 -67 -135 -91 -66 -29 -141 -41 -186 -29 -32 9 -40 17 -47 43 -10 40 -38
46 -75 17 -36 -28 -35 -66 1 -110 26 -30 28 -38 20 -71 -18 -69 46 -139 115
-125 56 11 61 25 21 60 -55 48 -57 46 174 174 100 55 178 127 222 205 18 32
34 56 36 54 9 -9 -37 -135 -65 -179 -16 -25 -58 -79 -93 -120 -107 -121 -128
-156 -128 -203 0 -55 26 -80 85 -80 75 0 118 70 59 97 -28 13 -29 12 -61 -39
-10 -17 -12 -17 -28 -1 -28 26 -10 66 60 136 l63 64 27 -18 c16 -11 30 -13 36
-7 18 18 90 278 96 348 7 89 -7 153 -58 264 -22 46 -39 85 -39 87 0 1 34 0 75
-3 84 -7 124 5 155 45 52 66 -20 164 -97 132z m-805 -651 c4 -23 -25 -31 -65
-18 -36 12 -43 25 -15 32 34 10 77 2 80 -14z"/>
<path d="M500 3506 c-41 -12 -126 -44 -189 -70 -140 -59 -195 -67 -234 -36
-18 14 -27 30 -25 43 4 30 28 34 28 5 0 -46 43 -64 73 -30 24 26 21 49 -8 77
-44 45 -115 30 -134 -28 -13 -40 -4 -72 28 -102 26 -23 127 -32 184 -17 20 6
37 8 37 6 0 -2 -19 -48 -42 -102 -42 -95 -43 -99 -43 -207 1 -105 3 -117 49
-253 27 -78 52 -145 57 -148 5 -2 20 3 33 12 24 15 27 15 54 -4 57 -41 112
-110 112 -141 0 -42 -19 -49 -45 -18 -11 15 -31 27 -43 27 -28 0 -46 -33 -32
-60 37 -68 170 -44 170 31 0 46 -22 80 -127 197 -52 59 -108 130 -124 157 -28
48 -63 144 -55 152 2 2 17 -20 34 -50 53 -94 133 -155 336 -257 114 -57 121
-68 76 -115 -40 -42 -32 -60 29 -60 76 0 123 56 104 125 -9 35 -7 43 19 81 16
24 28 52 26 63 -3 19 -60 66 -80 66 -5 0 -16 -17 -25 -37 -20 -49 -27 -53 -94
-53 -84 0 -230 58 -271 107 -11 15 -11 16 7 9 162 -62 326 -41 423 53 71 69
89 147 53 226 -41 89 -122 139 -223 139 -56 0 -74 -5 -114 -30 -68 -41 -94
-84 -94 -150 0 -48 4 -58 36 -94 64 -71 171 -85 251 -33 28 19 53 63 53 93 0
28 -55 80 -85 80 -56 0 -60 -62 -5 -70 26 -4 35 -10 35 -25 0 -46 -105 -61
-152 -21 l-28 25 33 33 c37 40 41 72 10 105 -26 28 -21 34 35 40 65 8 138 -20
181 -68 30 -33 36 -46 36 -85 0 -54 -10 -76 -58 -127 -49 -50 -123 -77 -216
-77 -61 0 -82 5 -134 31 -106 53 -155 139 -154 270 0 87 5 95 45 65 18 -13 42
-27 54 -30 29 -9 88 17 103 45 11 19 10 24 -6 36 -62 44 -70 74 -31 111 40 37
105 54 230 60 64 2 117 1 117 -4 0 -4 -11 -19 -24 -33 -41 -43 -43 -76 -7
-111 38 -39 63 -35 77 9 14 44 38 61 86 61 108 0 202 -85 222 -201 l6 -36 -44
10 c-57 13 -102 1 -129 -35 -29 -39 -10 -59 49 -51 66 9 94 -14 94 -75 0 -71
-7 -76 -73 -62 -31 6 -71 8 -90 5 -92 -17 -104 -104 -19 -136 26 -10 86 2 136
28 26 14 30 13 47 -4 9 -10 19 -31 21 -48 3 -28 1 -30 -30 -27 -40 4 -62 -12
-62 -44 0 -47 72 -59 113 -18 40 39 43 76 13 138 -31 64 -31 62 -6 118 49 112
47 199 -11 350 -39 99 -41 128 -11 143 33 18 36 23 22 40 -7 8 -28 15 -47 15
-30 0 -36 -4 -50 -37 -8 -21 -16 -39 -17 -41 -2 -1 -36 13 -77 32 -107 50
-182 66 -295 65 -73 0 -119 -6 -174 -23z m524 -602 c9 -3 16 -10 16 -15 0 -11
-68 -29 -86 -22 -15 5 -19 25 -7 36 8 9 56 9 77 1z"/>
<path d="M840 2680 c-20 -13 -3 -27 53 -46 167 -54 257 -155 244 -270 -9 -85
-69 -134 -165 -134 -81 0 -142 41 -142 96 0 19 5 22 36 21 29 -1 42 6 69 36
36 40 45 43 76 27 19 -11 24 -35 13 -64 -6 -14 -9 -14 -34 1 -24 14 -31 14
-44 4 -24 -20 -20 -56 7 -68 55 -25 127 27 127 91 0 90 -135 151 -227 103 -64
-34 -93 -129 -58 -196 18 -36 69 -79 102 -87 24 -6 22 -8 -25 -26 -61 -23
-117 -81 -132 -137 -32 -119 78 -236 189 -202 46 13 98 61 107 97 17 68 -32
144 -92 144 -43 0 -72 -37 -54 -69 12 -23 56 -29 62 -9 2 6 12 9 21 5 35 -13
10 -87 -29 -87 -9 0 -32 18 -52 41 -31 34 -41 40 -72 37 -33 -2 -35 -1 -32 26
14 125 213 152 284 37 35 -55 33 -160 -4 -223 -36 -60 -92 -107 -175 -147 -90
-42 -98 -47 -98 -57 0 -23 60 -13 132 22 98 47 182 128 206 198 44 128 -4 255
-119 322 -16 10 -15 12 17 18 46 8 117 69 140 120 39 87 12 196 -66 264 -66
59 -236 130 -265 112z"/>
<path d="M11904 2666 c-165 -61 -254 -158 -254 -275 1 -79 49 -155 123 -193
l29 -14 -40 -12 c-55 -17 -117 -81 -138 -144 -20 -61 -15 -147 11 -203 43 -89
191 -194 299 -212 33 -5 38 -4 35 12 -3 12 -32 30 -82 51 -139 58 -213 140
-224 248 -7 68 0 96 33 136 36 42 79 62 134 62 79 0 140 -49 140 -112 0 -16
-6 -20 -35 -20 -26 0 -43 -7 -60 -26 -14 -15 -25 -31 -25 -35 0 -15 -50 -22
-65 -9 -17 14 -20 66 -5 75 5 3 18 0 30 -7 25 -16 54 -1 58 31 11 71 -100 67
-137 -6 -30 -60 3 -138 73 -172 55 -27 95 -26 136 2 54 36 73 70 78 136 6 78
-25 136 -91 171 l-45 24 50 17 c95 32 149 114 127 194 -23 81 -106 127 -189
105 -60 -16 -110 -67 -110 -113 0 -39 30 -84 67 -98 56 -21 112 24 77 62 -21
23 -32 24 -56 2 -17 -15 -20 -15 -28 -3 -16 25 -11 59 9 70 30 16 40 13 74
-24 25 -27 41 -36 73 -38 l42 -3 -12 -35 c-16 -51 -66 -80 -135 -80 -146 0
-213 117 -143 251 32 61 98 111 202 151 37 15 66 33 68 42 5 22 -20 20 -94 -8z"/>
<path d="M12315 1898 c-32 -17 -45 -39 -45 -75 0 -49 26 -93 132 -225 96 -119
150 -213 167 -290 6 -23 8 -44 6 -46 -2 -2 -18 24 -35 57 -57 106 -134 174
-310 271 -146 80 -153 91 -97 148 31 32 31 34 13 48 -31 22 -81 17 -115 -12
-35 -29 -47 -74 -34 -125 8 -29 5 -40 -19 -78 -15 -25 -28 -55 -28 -68 0 -24
32 -59 64 -69 22 -7 46 18 46 48 0 58 124 63 231 10 60 -29 144 -90 136 -98
-2 -2 -28 6 -58 18 -76 29 -206 30 -270 1 -209 -94 -239 -350 -53 -459 123
-72 294 -1 322 133 27 125 -83 239 -209 218 -74 -13 -136 -88 -125 -151 12
-62 92 -96 120 -51 15 24 -3 51 -40 57 -43 8 -39 40 8 63 46 22 86 16 118 -18
l23 -24 -32 -36 c-36 -42 -40 -81 -11 -118 26 -33 26 -33 -12 -46 -72 -25
-185 26 -224 101 -8 15 -14 51 -14 81 0 79 43 140 128 184 137 71 302 30 380
-94 43 -70 56 -118 56 -209 -1 -104 -7 -114 -48 -76 -17 16 -41 33 -53 36 -28
9 -78 -16 -100 -50 -17 -26 -17 -27 20 -56 95 -76 0 -166 -193 -184 l-66 -6 4
-34 c6 -50 -17 -164 -41 -207 -20 -36 -61 -67 -88 -67 -6 0 -27 16 -46 36 -30
32 -37 35 -58 26 -32 -15 -58 -67 -50 -101 3 -14 20 -40 37 -58 l31 -32 -29
-8 c-51 -14 -176 -8 -231 10 -73 25 -134 83 -168 158 -24 54 -27 71 -23 134
11 166 145 287 272 245 51 -17 112 -90 125 -150 6 -27 8 -56 6 -65 -16 -50
-13 -48 -49 -26 -45 28 -69 26 -109 -9 -42 -37 -61 -38 -83 -5 -34 52 -15 145
31 145 20 0 24 -6 27 -32 2 -26 8 -34 26 -36 56 -8 70 51 21 92 -93 79 -225
-41 -189 -173 21 -78 101 -140 179 -141 48 0 114 34 146 77 76 98 65 222 -27
310 -45 44 -96 63 -165 63 -208 -1 -329 -241 -233 -464 10 -25 15 -46 10 -46
-6 0 -30 27 -54 60 -105 143 -116 310 -21 310 21 0 25 5 25 28 0 35 -37 72
-72 72 -14 0 -44 -13 -68 -29 -37 -25 -47 -27 -77 -19 -44 12 -96 -5 -123 -39
-24 -30 -27 -90 -6 -119 14 -18 16 -18 49 19 19 20 38 37 42 37 23 0 50 -33
111 -137 84 -144 179 -245 273 -292 34 -18 61 -34 59 -37 -9 -8 -120 27 -178
56 -33 16 -107 66 -164 110 -143 109 -163 120 -217 120 -60 0 -89 -29 -89 -88
0 -72 69 -111 104 -60 14 20 14 24 -1 40 -8 9 -24 20 -34 23 -26 9 -24 23 6
37 21 9 32 8 61 -6 39 -18 144 -113 144 -129 0 -6 -8 -19 -17 -29 -10 -11 -13
-22 -7 -27 15 -15 262 -80 351 -93 109 -16 200 -3 318 46 137 57 124 60 118
-31 -4 -62 -2 -86 11 -111 35 -67 132 -80 176 -24 39 49 3 125 -59 125 -40 0
-63 -20 -59 -52 3 -22 9 -26 41 -29 41 -4 48 -16 17 -32 -24 -13 -54 0 -70 30
-22 41 -11 100 44 230 64 151 83 209 92 289 l6 59 51 7 c72 9 146 36 280 100
137 65 187 75 235 46 35 -23 43 -59 17 -81 -13 -11 -15 -7 -15 23 0 60 -50 77
-79 26 -29 -53 21 -115 86 -107 59 7 87 101 46 155 -33 45 -83 59 -161 45 -37
-6 -68 -10 -69 -8 -2 1 16 52 39 112 47 125 59 223 39 325 -18 87 -90 342
-101 353 -6 6 -17 3 -28 -7 -10 -9 -23 -17 -28 -17 -19 0 -87 65 -115 109 -49
77 -31 145 21 81 23 -28 29 -31 48 -21 43 23 39 72 -9 96 -33 18 -66 19 -94 3z"/>
<path d="M340 1870 c-33 -33 -24 -85 14 -92 14 -2 27 7 40 29 25 39 33 40 48
8 9 -21 8 -32 -6 -61 -18 -39 -113 -144 -129 -144 -6 0 -19 8 -29 17 -11 10
-22 13 -27 7 -15 -15 -80 -262 -93 -351 -16 -109 -3 -200 46 -318 57 -137 60
-124 -31 -118 -62 4 -86 2 -111 -11 -67 -35 -80 -132 -24 -176 49 -39 125 -3
125 59 0 40 -20 63 -52 59 -22 -3 -26 -9 -29 -40 -4 -42 -16 -49 -32 -18 -13
24 0 54 30 70 41 22 100 11 230 -44 151 -64 209 -83 289 -92 l59 -6 6 -48 c9
-70 39 -153 101 -285 66 -138 75 -186 46 -233 -23 -35 -59 -43 -81 -17 -11 13
-7 15 23 15 60 0 77 50 26 79 -51 28 -109 -15 -109 -82 0 -61 100 -94 157 -51
45 34 59 84 45 162 -6 37 -10 68 -8 69 1 1 42 -13 90 -32 186 -73 293 -73 536
0 85 26 159 51 164 56 6 5 3 16 -7 27 -23 25 -22 32 14 75 47 57 113 99 152
95 42 -4 46 -28 7 -50 -36 -21 -38 -42 -5 -64 31 -20 61 -11 80 26 36 69 1
140 -70 140 -51 0 -94 -25 -227 -132 -64 -52 -146 -109 -182 -126 -61 -30
-146 -56 -154 -47 -2 2 24 18 57 35 111 55 169 121 265 300 52 97 85 140 107
140 4 0 25 -14 45 -32 35 -31 37 -31 50 -13 22 30 17 80 -12 114 -29 35 -79
48 -127 34 -27 -8 -39 -5 -76 19 -25 15 -55 28 -67 28 -23 0 -74 -51 -74 -74
0 -19 22 -36 47 -36 62 0 70 -116 17 -231 -28 -58 -91 -145 -100 -136 -2 2 6
28 18 58 29 75 30 205 0 270 -26 60 -74 113 -131 147 -38 22 -58 27 -116 27
-59 0 -78 -5 -118 -28 -152 -89 -165 -286 -26 -387 35 -25 52 -30 98 -30 71 0
116 23 156 79 25 35 30 52 30 101 0 66 -18 99 -76 138 -26 18 -43 22 -69 18
-66 -10 -104 -91 -57 -120 24 -15 51 3 57 40 12 68 73 19 72 -57 -1 -38 -31
-89 -52 -89 -4 0 -21 14 -38 30 -38 36 -78 39 -115 10 -33 -26 -33 -26 -46 12
-25 72 26 185 101 224 15 8 51 14 81 14 79 0 140 -43 184 -128 71 -137 30
-302 -94 -380 -70 -44 -118 -56 -210 -55 -104 1 -113 7 -75 47 16 17 32 39 35
49 10 26 -17 83 -48 103 l-28 18 -29 -37 c-76 -95 -166 0 -184 194 -6 61 -8
65 -28 62 -39 -8 -165 15 -211 37 -42 20 -75 61 -75 91 0 6 16 27 36 45 42 40
39 65 -9 95 -46 27 -72 24 -117 -17 l-39 -36 -8 29 c-4 15 -8 62 -8 103 1 189
109 310 285 318 69 3 80 1 140 -30 150 -77 184 -220 74 -317 -45 -39 -123 -67
-159 -56 -50 16 -48 13 -26 49 28 45 26 69 -9 109 -37 42 -38 61 -5 83 52 34
145 15 145 -31 0 -20 -6 -24 -32 -27 -26 -2 -34 -8 -36 -26 -8 -56 51 -70 92
-21 79 93 -41 225 -173 189 -78 -21 -140 -101 -141 -179 0 -48 34 -114 77
-146 98 -76 222 -65 310 27 43 45 63 96 63 165 0 168 -170 293 -359 262 -33
-5 -80 -18 -105 -29 -26 -11 -46 -15 -46 -10 0 6 27 30 60 54 143 105 310 116
310 21 0 -21 5 -25 28 -25 35 0 72 37 72 72 0 14 -13 44 -29 68 -25 37 -27 47
-19 77 12 44 -5 96 -39 123 -30 23 -90 27 -118 6 -19 -13 -18 -15 13 -44 36
-34 41 -63 13 -91 -10 -10 -64 -44 -121 -76 -131 -74 -225 -161 -275 -256 -20
-39 -39 -69 -41 -66 -8 8 27 120 56 177 16 33 67 108 112 167 46 60 91 124
100 143 26 50 24 111 -5 138 -31 29 -99 30 -127 2z"/>
<path d="M1027 1602 c-37 -41 -10 -89 43 -78 22 4 32 1 36 -9 6 -15 -13 -82
-25 -89 -4 -3 -31 4 -60 14 -69 27 -113 26 -147 -3 -33 -29 -35 -69 -4 -102
27 -29 73 -38 125 -24 89 23 83 25 95 -20 12 -45 5 -87 -19 -114 -12 -15 -27
-18 -71 -15 -53 3 -55 2 -58 -23 -4 -32 37 -77 78 -85 19 -4 30 -13 30 -23 0
-10 12 -29 28 -43 58 -55 101 -42 80 25 -10 33 -9 41 9 65 17 23 28 27 77 30
78 4 88 -5 69 -69 -27 -92 11 -174 79 -167 66 6 89 87 48 167 -33 65 -23 84
45 92 28 4 30 2 28 -25 -3 -43 13 -66 47 -66 40 0 66 38 53 77 -23 68 -119 89
-200 43 l-42 -23 -82 27 c-45 15 -87 25 -94 22 -9 -3 -24 28 -47 92 l-35 97
24 47 c25 50 29 91 14 131 -23 60 -90 86 -124 49z m-13 -212 c15 -15 -10 -30
-51 -30 -35 0 -48 12 -39 37 5 12 15 14 43 10 20 -4 41 -11 47 -17z m390 -393
c11 -41 -1 -64 -28 -54 -11 4 -16 19 -16 45 0 65 29 70 44 9z"/>
<path d="M11670 1607 c-60 -30 -73 -118 -28 -197 l22 -38 -28 -88 c-15 -49
-29 -93 -30 -98 -1 -4 -43 -23 -92 -41 l-91 -32 -44 23 c-69 36 -134 30 -178
-17 -26 -28 -27 -70 -3 -92 41 -37 89 -10 78 43 -4 22 -1 32 9 36 16 6 82 -13
90 -26 3 -4 -4 -29 -15 -55 -40 -93 -14 -175 54 -175 67 0 96 68 71 163 -8 32
-15 60 -15 62 0 10 82 25 107 19 52 -12 65 -33 61 -94 -3 -53 -2 -55 23 -58
32 -4 77 37 85 78 4 19 13 30 23 30 21 0 66 46 75 76 9 31 -14 47 -48 34 -39
-15 -52 -13 -81 13 -23 19 -27 30 -27 76 1 74 10 82 73 64 92 -27 174 11 167
79 -6 66 -87 89 -167 48 -65 -33 -84 -23 -92 45 -4 28 -2 30 25 28 63 -5 92
42 51 83 -27 27 -39 29 -75 11z m185 -222 c0 -22 -30 -31 -71 -21 -30 8 -31
24 -1 36 37 15 72 8 72 -15z m-421 -387 c3 -13 6 -36 6 -51 0 -24 -4 -28 -22
-25 -27 4 -34 31 -19 71 13 33 27 35 35 5z"/>
<path d="M3975 1185 c-33 -7 -88 -25 -122 -39 -85 -35 -123 -37 -138 -8 -18
33 -23 36 -40 22 -19 -16 -19 -64 0 -83 8 -9 28 -18 44 -22 l30 -6 -20 -33
c-46 -78 -81 -199 -86 -296 -7 -124 11 -204 83 -383 64 -159 74 -209 50 -255
-16 -32 -30 -38 -60 -26 -22 9 -20 24 3 24 36 0 51 12 51 41 0 50 -55 65 -95
24 -28 -27 -33 -79 -11 -108 22 -29 70 -41 102 -25 60 29 79 93 61 202 -7 39
-6 48 5 43 173 -74 197 -81 266 -85 40 -2 94 1 120 7 91 23 302 93 308 102 3
6 -1 21 -10 33 -14 23 -13 27 13 63 16 22 46 54 67 71 62 51 136 37 80 -14
-30 -28 -33 -46 -10 -68 22 -23 40 -20 63 10 50 63 14 154 -60 154 -42 0 -61
-13 -169 -112 -46 -44 -110 -97 -142 -118 -55 -36 -166 -85 -174 -77 -3 2 25
23 62 47 83 53 137 125 217 288 34 68 70 128 80 134 16 8 26 4 53 -23 42 -41
59 -30 59 37 0 39 -5 50 -33 75 -34 30 -63 36 -105 20 -21 -8 -32 -5 -64 19
-47 37 -76 38 -102 4 -30 -39 -28 -72 7 -80 40 -10 50 -21 57 -64 8 -45 -14
-138 -46 -202 -23 -47 -69 -111 -75 -106 -2 2 6 32 16 67 54 173 -2 350 -132
415 -61 31 -108 33 -163 7 -124 -57 -174 -211 -109 -331 37 -69 84 -100 148
-100 62 0 104 25 136 82 49 87 25 201 -51 242 -46 25 -83 16 -109 -27 -24 -39
-25 -51 -4 -72 25 -25 48 -14 58 28 11 42 28 47 50 15 25 -35 20 -102 -8 -135
l-25 -28 -31 33 c-38 38 -74 41 -107 11 l-22 -22 -12 29 c-23 61 12 168 71
218 58 48 170 26 220 -43 109 -154 75 -369 -73 -455 -62 -37 -180 -51 -245
-30 -10 3 -7 12 12 35 34 40 41 72 26 110 -12 28 -44 59 -62 59 -4 0 -14 -13
-23 -30 -8 -16 -26 -32 -39 -36 -74 -18 -126 99 -126 281 0 86 6 99 31 68 19
-22 77 -45 92 -37 31 18 57 50 57 70 0 17 -8 24 -37 31 -49 11 -66 42 -59 107
7 61 46 129 94 161 34 22 129 51 139 42 2 -2 -1 -16 -7 -31 -26 -69 4 -143 60
-148 24 -3 25 -2 22 54 -4 75 16 98 87 98 28 0 53 -5 56 -11 4 -5 1 -39 -6
-73 -11 -57 -10 -67 7 -101 23 -47 43 -60 77 -51 58 14 68 85 27 181 l-19 45
22 14 c12 8 33 16 47 18 23 3 25 0 25 -36 0 -50 29 -74 63 -50 41 29 26 101
-28 129 -40 21 -58 19 -118 -11 l-51 -25 -70 25 c-91 33 -152 39 -226 21z
m329 -183 c10 -36 3 -62 -18 -62 -19 0 -28 27 -20 67 8 41 25 38 38 -5z"/>
<path d="M9621 1190 c-24 -5 -90 -26 -148 -45 -83 -29 -107 -34 -119 -24 -8 6
-14 17 -14 25 0 7 -5 16 -10 19 -19 12 -40 -16 -40 -52 0 -30 4 -36 38 -50 20
-8 38 -16 40 -17 1 -2 -13 -36 -32 -77 -48 -104 -66 -182 -66 -289 0 -113 16
-176 86 -348 65 -159 74 -207 48 -251 -14 -24 -25 -31 -43 -29 -33 4 -40 28
-9 28 46 0 64 43 30 73 -26 24 -49 21 -77 -8 -43 -42 -30 -114 23 -133 39 -13
76 -5 103 24 27 29 38 126 21 187 -6 20 -8 37 -6 37 2 0 48 -19 102 -42 95
-42 99 -43 207 -43 105 1 117 3 253 49 78 27 145 52 148 57 2 5 -3 20 -12 33
-15 24 -15 27 4 54 41 57 110 112 141 112 42 0 49 -19 18 -45 -32 -25 -35 -60
-7 -75 61 -33 108 81 59 144 -16 20 -29 26 -58 26 -45 0 -65 -14 -197 -133
-54 -49 -121 -102 -149 -118 -48 -28 -144 -63 -152 -55 -2 2 20 17 49 34 100
57 147 115 237 294 36 72 74 136 83 142 14 8 24 4 53 -24 42 -40 60 -32 60 29
0 76 -56 123 -125 104 -35 -9 -43 -7 -81 19 -24 16 -52 28 -63 26 -19 -3 -66
-60 -66 -80 0 -5 18 -17 40 -25 48 -19 55 -38 48 -128 -6 -69 -61 -197 -100
-232 -21 -18 -21 -18 -14 2 76 204 21 408 -129 476 -51 24 -99 23 -153 -1
-119 -54 -171 -203 -113 -324 74 -151 261 -139 307 21 23 80 -6 167 -67 199
-42 21 -67 17 -100 -16 -22 -21 -29 -38 -27 -56 6 -56 68 -59 68 -4 0 41 27
51 52 21 27 -34 24 -103 -6 -138 l-25 -28 -33 33 c-40 37 -72 41 -105 10 -28
-26 -34 -21 -40 34 -8 68 13 127 62 175 38 39 47 43 90 43 120 0 205 -113 205
-274 0 -119 -61 -216 -168 -268 -36 -17 -63 -22 -123 -21 -97 0 -106 6 -75 46
13 18 27 42 30 54 9 29 -17 88 -45 103 -19 11 -24 10 -36 -6 -44 -62 -74 -70
-111 -31 -37 40 -54 105 -60 230 -5 120 0 134 32 98 10 -11 31 -25 47 -31 24
-10 33 -10 54 4 14 10 31 29 38 43 9 21 8 27 -8 39 -10 8 -27 14 -36 14 -50 0
-63 94 -25 176 34 72 88 112 178 128 l36 7 -14 -47 c-13 -43 -12 -51 3 -83 18
-36 64 -67 83 -56 6 4 8 26 4 56 -10 72 11 99 74 99 71 0 76 -7 62 -73 -21
-94 7 -167 65 -167 63 0 84 82 45 179 l-19 50 22 16 c12 8 34 15 49 15 25 0
27 -2 22 -30 -8 -36 9 -60 42 -60 47 0 59 72 18 113 -39 40 -76 43 -138 13
-29 -14 -57 -26 -61 -26 -5 0 -36 11 -69 24 -72 29 -145 38 -205 26z m308
-186 c12 -42 5 -66 -18 -62 -18 4 -26 38 -17 74 9 34 24 30 35 -12z"/>
<path d="M1833 1165 c-29 -13 -73 -45 -98 -70 -49 -51 -112 -169 -122 -229 -5
-33 -4 -38 12 -35 12 3 30 32 52 85 39 94 86 153 151 192 40 23 58 27 122 27
62 0 81 -4 106 -22 109 -78 75 -283 -46 -283 -15 0 -20 7 -20 29 0 43 -9 60
-41 77 -55 28 -47 94 12 94 35 0 44 -13 27 -40 -24 -38 31 -80 68 -50 19 17
17 70 -4 96 -77 96 -224 26 -226 -107 -2 -142 194 -204 295 -93 15 16 33 42
41 58 l15 29 7 -35 c3 -19 19 -55 35 -80 56 -88 165 -98 238 -22 56 60 54 149
-5 215 -53 59 -145 44 -173 -28 -21 -56 24 -112 62 -77 23 21 24 32 2 56 -15
17 -15 20 -3 28 25 16 59 11 70 -10 15 -28 6 -52 -30 -78 -25 -19 -30 -29 -30
-67 l0 -44 -31 9 c-41 12 -57 26 -80 71 -61 120 48 258 186 236 80 -13 156
-96 208 -227 14 -36 33 -66 41 -68 21 -4 20 13 -3 79 -73 214 -223 315 -367
250 -41 -19 -114 -94 -114 -118 0 -7 -4 -13 -10 -13 -5 0 -10 9 -10 20 0 49
-67 127 -132 154 -57 24 -143 20 -205 -9z"/>
<path d="M4702 1175 c-58 -25 -93 -56 -132 -117 -40 -61 -80 -165 -80 -205 0
-42 27 -24 45 29 40 122 97 203 169 237 106 52 212 3 237 -108 18 -81 -34
-181 -95 -181 -23 0 -25 3 -20 28 5 23 -2 37 -35 76 -46 53 -45 50 -31 77 7
12 21 19 40 19 37 0 47 -16 25 -40 -13 -15 -14 -23 -5 -39 16 -31 58 -28 70 5
14 36 3 70 -32 99 -44 37 -89 34 -132 -10 -39 -38 -52 -83 -43 -147 11 -79 99
-135 181 -114 35 9 84 52 105 95 l19 36 13 -43 c17 -59 71 -119 118 -132 123
-33 235 106 176 219 -20 40 -72 81 -101 81 -33 0 -81 -25 -94 -49 -28 -54 8
-124 52 -100 20 11 25 55 6 61 -20 7 0 38 25 38 56 0 62 -51 11 -100 -29 -29
-34 -41 -32 -70 3 -32 1 -35 -21 -32 -38 6 -68 30 -87 70 -69 147 83 294 230
223 25 -13 59 -38 76 -57 32 -38 80 -126 99 -186 8 -22 19 -38 28 -38 13 0 14
8 9 41 -17 108 -117 252 -201 290 -103 47 -233 2 -280 -98 l-18 -37 -12 40
c-35 120 -172 187 -283 139z"/>
<path d="M6755 1179 c-16 -6 -65 -24 -109 -41 -43 -16 -85 -27 -92 -24 -8 3
-19 17 -26 31 -13 30 -33 32 -48 6 -23 -44 -3 -83 53 -96 15 -4 27 -9 27 -12
0 -2 -11 -23 -24 -46 -38 -65 -76 -188 -82 -269 -9 -106 15 -213 86 -388 64
-161 75 -224 44 -268 -18 -25 -46 -29 -64 -7 -11 13 -8 15 17 15 55 0 72 47
27 76 -37 25 -74 9 -92 -38 -12 -30 -12 -41 0 -64 20 -43 61 -59 105 -42 63
23 90 114 63 207 -5 19 -8 36 -6 38 2 2 48 -15 102 -38 120 -51 210 -61 314
-34 68 17 279 84 293 92 4 2 0 17 -10 33 -16 28 -16 30 13 71 37 53 99 99 134
99 39 0 44 -24 9 -49 -34 -25 -35 -31 -10 -62 16 -20 22 -22 44 -12 15 7 30
26 37 48 23 70 -12 125 -80 125 -35 0 -49 -8 -121 -72 -133 -119 -180 -158
-223 -183 -44 -25 -136 -58 -143 -51 -2 2 21 18 51 35 84 48 148 128 217 268
65 131 92 173 114 173 7 0 25 -15 40 -32 25 -32 26 -32 40 -14 8 11 15 33 15
48 0 72 -59 119 -128 102 -33 -8 -42 -6 -79 20 -52 36 -86 31 -110 -19 -13
-28 -14 -37 -3 -50 7 -8 21 -15 31 -15 51 0 64 -99 25 -204 -24 -66 -85 -171
-94 -162 -3 3 3 32 14 63 24 78 24 192 0 263 -38 110 -151 190 -250 177 -123
-17 -216 -178 -176 -303 39 -123 161 -181 251 -121 115 76 97 288 -27 313 -63
12 -124 -79 -78 -117 22 -18 48 0 54 37 8 44 37 43 56 -2 19 -45 12 -96 -18
-126 l-20 -20 -32 31 c-37 36 -72 40 -109 11 l-26 -21 -9 35 c-20 72 20 180
82 217 37 22 106 25 144 5 41 -21 78 -65 104 -121 34 -75 33 -201 -4 -270 -54
-103 -140 -156 -257 -157 -37 0 -78 3 -90 7 -21 7 -21 7 9 41 41 47 41 92 0
136 l-30 33 -31 -37 c-19 -24 -40 -38 -54 -38 -33 0 -73 46 -90 103 -17 56
-31 226 -21 252 5 15 10 14 36 -8 39 -33 61 -40 93 -28 29 11 60 61 49 78 -4
6 -19 14 -34 18 -43 11 -60 38 -60 94 1 95 68 178 168 207 30 9 58 14 60 11 3
-2 0 -25 -6 -50 -10 -38 -9 -51 5 -80 32 -67 103 -71 84 -4 -18 65 13 107 81
107 58 0 75 -16 60 -54 -5 -15 -10 -52 -10 -82 0 -45 4 -59 25 -79 32 -33 68
-32 94 1 27 34 27 78 -1 149 -23 62 -20 70 30 84 37 11 47 2 38 -34 -9 -35 26
-70 55 -55 51 28 44 95 -13 130 -43 26 -62 25 -125 -6 l-52 -27 -53 23 c-60
27 -220 38 -273 19z m363 -204 c-4 -43 -32 -40 -36 3 -2 19 -1 41 3 50 6 15 8
15 21 -3 8 -11 14 -33 12 -50z"/>
<path d="M7503 1169 c-80 -39 -149 -135 -188 -260 -20 -62 -15 -104 9 -78 8 8
23 43 35 79 24 75 77 159 118 188 70 49 173 54 220 11 33 -31 62 -95 63 -136
0 -73 -49 -143 -100 -143 -16 0 -20 6 -20 36 0 28 -7 42 -35 67 -50 44 -44 97
11 97 29 0 39 -16 24 -35 -19 -23 -4 -65 23 -65 32 0 47 18 47 56 0 47 -35 84
-86 91 -34 4 -45 1 -73 -23 -113 -95 -55 -274 88 -274 59 0 113 35 142 93 l22
42 12 -42 c18 -61 53 -103 102 -125 74 -32 160 1 194 76 24 53 24 80 -2 134
-39 80 -114 104 -169 55 -40 -37 -49 -84 -21 -112 27 -27 37 -26 57 4 16 24
16 27 -2 46 -16 17 -16 22 -4 29 22 14 47 12 64 -6 23 -22 21 -29 -21 -74 -30
-34 -36 -48 -35 -81 2 -37 0 -40 -21 -34 -95 28 -135 140 -82 231 28 48 91 84
146 84 99 -1 200 -104 248 -252 24 -72 60 -60 38 13 -39 126 -108 223 -189
263 -68 34 -128 34 -195 1 -48 -24 -103 -85 -103 -113 0 -28 -17 -9 -28 32
-32 122 -173 183 -289 125z"/>
<path d="M10315 1169 c-62 -31 -103 -77 -147 -165 -42 -86 -63 -181 -37 -172
8 3 25 36 40 74 33 89 43 107 87 156 88 98 201 104 279 15 39 -44 50 -95 33
-150 -14 -48 -62 -97 -95 -97 -20 0 -23 5 -22 36 1 29 -6 42 -36 69 -40 36
-43 45 -27 76 11 19 35 24 64 13 14 -6 14 -9 -1 -34 -14 -24 -14 -31 -4 -44
31 -37 75 -8 73 47 -1 22 -10 40 -32 60 -58 52 -133 27 -171 -57 -25 -54 -24
-84 4 -136 27 -52 75 -80 136 -80 59 0 104 30 134 89 l23 48 19 -51 c22 -63
70 -110 127 -124 101 -26 205 38 215 132 11 90 -72 176 -155 162 -79 -12 -123
-105 -68 -141 19 -13 29 -14 45 -5 23 12 29 56 9 62 -6 2 -9 12 -5 21 13 35
87 10 87 -29 0 -9 -18 -32 -41 -52 -35 -31 -40 -41 -37 -72 3 -34 2 -35 -27
-32 -135 15 -148 230 -17 293 53 26 137 22 198 -9 72 -37 147 -139 187 -254 4
-10 13 -18 22 -18 48 0 -28 175 -114 261 -136 135 -333 114 -427 -47 -10 -16
-12 -15 -18 17 -8 45 -66 113 -117 139 -50 26 -131 26 -184 -1z"/>
<path d="M2973 1147 l-81 -34 -39 24 c-50 31 -114 27 -151 -10 -43 -44 -29
-117 24 -117 30 0 46 29 38 69 -6 27 -4 31 14 31 30 0 72 -21 72 -35 0 -7 -7
-32 -15 -55 -34 -95 -12 -170 50 -170 61 0 87 72 62 167 -17 65 -9 76 59 77
64 1 89 -29 80 -96 -7 -51 1 -63 38 -54 42 10 61 77 42 150 l-7 29 45 -5 c101
-12 184 -97 194 -199 6 -59 -13 -94 -57 -102 -39 -8 -42 -43 -8 -75 33 -31 70
-28 112 9 45 40 49 31 43 -114 -6 -124 -24 -184 -66 -217 -35 -28 -48 -25 -88
18 l-35 37 -29 -33 c-40 -44 -40 -85 1 -135 28 -34 29 -38 12 -45 -10 -4 -54
-7 -98 -7 -63 0 -89 5 -121 22 -64 34 -103 71 -132 127 -24 45 -27 62 -27 146
0 84 3 101 27 146 76 144 216 163 293 39 25 -40 30 -59 30 -111 0 -34 -3 -65
-7 -69 -4 -4 -19 2 -34 14 -37 29 -61 26 -94 -9 -15 -16 -35 -30 -43 -30 -24
0 -47 46 -47 92 1 74 47 107 65 46 11 -35 37 -47 60 -28 23 19 18 49 -14 81
-41 41 -83 39 -126 -4 -80 -80 -59 -227 41 -285 127 -74 274 75 243 245 -34
179 -245 243 -364 111 -63 -69 -80 -119 -80 -228 1 -72 6 -109 22 -153 12 -31
18 -57 13 -57 -13 0 -82 109 -102 164 -27 69 -29 158 -4 185 10 11 28 21 40
23 29 4 32 38 6 71 -27 34 -55 34 -102 2 -28 -19 -47 -24 -85 -22 -82 3 -132
-47 -118 -119 9 -51 28 -59 54 -24 42 57 74 35 141 -100 82 -163 151 -245 251
-295 28 -15 49 -28 47 -31 -10 -9 -134 36 -180 65 -25 16 -79 58 -120 93 -121
107 -156 128 -203 128 -55 0 -80 -26 -80 -85 0 -50 26 -85 61 -85 20 0 44 25
44 44 0 3 -12 16 -26 30 -29 27 -27 56 4 56 28 0 100 -52 138 -100 32 -40 33
-43 17 -66 -10 -16 -13 -28 -6 -35 5 -5 72 -28 149 -51 118 -35 153 -41 234
-42 91 -1 99 1 195 43 55 24 105 45 111 48 7 2 10 -25 10 -86 -1 -76 2 -94 20
-118 41 -55 113 -54 150 2 35 53 -22 137 -78 116 -55 -21 -43 -81 16 -81 l31
-1 -24 -20 -25 -20 -24 25 c-38 38 -33 107 16 231 64 162 83 233 89 337 8 135
-23 259 -94 370 -12 21 -23 39 -23 42 0 2 13 6 29 9 56 11 80 66 45 101 -20
21 -21 21 -39 -14 -20 -38 -37 -38 -150 1 -62 22 -115 33 -170 36 -73 4 -87 1
-162 -30z m-67 -162 c8 -42 0 -65 -21 -65 -23 0 -28 24 -15 65 15 44 27 45 36
0z"/>
<path d="M5825 1162 c-27 -10 -64 -26 -82 -35 -30 -16 -33 -16 -75 8 -52 30
-92 31 -135 5 -53 -32 -58 -113 -8 -126 36 -9 57 12 53 55 -2 35 -2 36 31 34
56 -2 64 -20 41 -81 -26 -67 -25 -112 1 -146 28 -36 70 -35 99 2 19 23 21 36
17 87 -3 33 -9 72 -12 87 -7 25 -4 28 33 37 77 21 117 -12 110 -90 -4 -38 -2
-52 9 -56 25 -10 64 16 79 53 14 32 14 42 1 80 l-14 44 34 0 c104 0 206 -105
207 -212 0 -55 -20 -83 -65 -92 -37 -7 -39 -37 -4 -71 32 -33 67 -31 108 5 19
16 37 30 40 30 16 0 18 -154 3 -227 -17 -83 -37 -119 -80 -143 -27 -15 -29
-14 -61 24 -39 44 -55 43 -85 -6 -28 -47 -25 -72 16 -117 l35 -40 -38 -10
c-54 -15 -111 -14 -174 5 -42 12 -66 28 -109 72 -88 91 -110 186 -70 315 57
186 242 223 319 64 20 -42 30 -145 15 -160 -4 -4 -19 2 -34 13 -39 28 -68 25
-98 -10 -31 -35 -43 -37 -66 -11 -39 43 -25 146 19 146 14 0 21 -9 25 -30 9
-50 70 -42 70 9 0 31 -50 76 -83 76 -84 0 -144 -128 -106 -227 13 -34 55 -80
91 -99 117 -61 262 90 233 243 -14 77 -78 159 -142 184 -36 13 -109 11 -147
-5 -48 -20 -105 -81 -134 -145 -40 -87 -35 -212 13 -336 7 -17 5 -17 -19 5
-47 43 -98 160 -104 238 -4 61 -2 72 17 91 11 11 30 21 41 21 29 0 27 50 -3
78 -31 30 -57 28 -101 -7 -32 -26 -41 -28 -66 -19 -38 13 -93 -5 -114 -37 -19
-28 -21 -87 -5 -117 11 -20 12 -20 45 17 32 34 36 36 57 22 11 -7 50 -68 85
-135 83 -156 138 -224 225 -275 37 -22 65 -42 63 -44 -8 -9 -132 40 -182 72
-29 19 -86 63 -126 97 -138 119 -136 118 -184 118 -59 0 -84 -25 -84 -83 0
-51 22 -87 54 -87 48 0 62 49 21 76 -53 35 -11 67 50 38 36 -17 125 -107 125
-127 0 -6 -8 -19 -17 -29 -10 -11 -13 -22 -7 -27 5 -5 61 -25 124 -44 255 -78
319 -77 499 8 87 42 93 43 87 22 -3 -12 -9 -45 -12 -73 -16 -125 90 -210 166
-134 36 36 15 121 -32 133 -34 9 -70 -18 -66 -51 2 -22 9 -28 36 -30 36 -4 41
-16 13 -32 -15 -7 -25 -5 -43 9 -20 17 -23 28 -23 83 0 51 8 84 42 168 66 166
86 250 85 365 0 113 -29 219 -83 308 -34 55 -36 67 -11 67 33 0 62 29 62 64 0
53 -34 74 -50 31 -5 -14 -17 -28 -26 -32 -9 -3 -62 9 -118 27 -127 42 -228 49
-301 22z m-111 -158 c3 -9 6 -31 6 -50 0 -27 -4 -34 -20 -34 -15 0 -20 7 -20
28 0 59 20 92 34 56z"/>
<path d="M8634 1161 c-27 -10 -63 -25 -80 -34 -27 -14 -32 -13 -74 9 -25 13
-59 24 -77 24 -38 0 -88 -39 -97 -76 -9 -35 17 -74 49 -74 30 0 44 25 37 69
-5 34 -5 34 29 27 58 -11 63 -24 40 -94 -26 -76 -26 -89 -1 -129 15 -25 27
-33 49 -33 64 0 94 72 67 161 -17 61 -12 74 39 83 42 8 90 -14 98 -45 3 -13 3
-42 0 -66 -5 -39 -4 -43 16 -43 13 0 36 14 53 30 27 27 30 36 25 73 -2 23 -8
51 -13 61 -7 17 -3 19 39 14 99 -11 184 -95 194 -191 7 -60 -10 -96 -47 -103
-44 -9 -54 -27 -36 -62 27 -52 74 -56 128 -12 44 37 48 31 48 -83 -1 -134 -30
-226 -81 -252 -37 -20 -37 -20 -74 20 -36 40 -57 39 -80 -6 -24 -45 -19 -84
16 -123 l30 -35 -43 -12 c-95 -25 -222 12 -286 85 -53 60 -65 94 -70 186 -5
110 19 180 82 238 75 70 144 69 212 -3 47 -48 71 -121 60 -180 -8 -41 -10 -41
-43 -15 -36 28 -67 25 -97 -11 -33 -39 -56 -35 -80 15 -17 36 -18 43 -5 80 10
29 20 42 37 44 16 3 22 -2 22 -16 0 -35 12 -52 36 -52 35 0 48 33 29 70 -45
88 -158 50 -187 -63 -11 -42 -10 -54 7 -104 28 -79 77 -118 149 -118 68 0 118
36 152 109 70 150 -20 323 -174 334 -93 7 -170 -45 -223 -148 -35 -70 -38
-193 -7 -288 14 -39 21 -72 16 -72 -17 0 -89 125 -108 188 -34 108 -23 165 32
180 40 10 44 27 18 70 -24 40 -59 42 -105 8 -27 -21 -42 -25 -89 -23 -53 2
-60 0 -87 -31 -31 -35 -37 -73 -17 -117 l12 -26 37 37 c38 37 39 37 59 19 11
-10 43 -61 71 -114 93 -174 178 -274 268 -310 41 -18 40 -31 -3 -21 -86 19
-172 73 -306 190 -77 68 -117 90 -164 90 -67 0 -100 -87 -55 -144 25 -32 64
-34 80 -5 10 19 7 26 -21 52 -28 26 -30 31 -17 45 25 24 65 6 131 -58 60 -58
61 -59 49 -91 -7 -18 -9 -37 -5 -41 18 -18 291 -89 362 -95 84 -6 149 11 269
71 l66 34 0 -100 0 -100 33 -29 c39 -35 78 -38 116 -8 51 40 24 142 -38 141
-38 0 -60 -24 -52 -56 5 -22 12 -26 44 -26 l37 -1 -23 -19 c-29 -24 -46 -17
-67 27 -22 46 -16 85 36 221 61 158 79 227 85 322 9 136 -9 201 -114 413 -2 4
6 7 18 7 26 0 70 43 70 68 0 10 -8 26 -19 36 -19 18 -31 11 -44 -26 -9 -25
-40 -22 -143 13 -115 40 -226 47 -300 20z m-102 -178 c6 -47 0 -65 -21 -61
-20 4 -25 36 -12 71 15 38 28 34 33 -10z"/>
<path d="M11980 894 c-6 -14 -10 -31 -10 -38 0 -18 -19 -32 -52 -40 -37 -9
-38 -47 -2 -75 51 -40 113 -21 145 46 18 38 19 48 9 74 -13 31 -45 59 -67 59
-8 0 -18 -12 -23 -26z"/>
<path d="M741 884 c-44 -56 -14 -128 64 -154 39 -13 87 5 105 41 17 31 6 45
-44 58 -35 8 -46 16 -46 30 0 56 -44 70 -79 25z"/>
<path d="M12672 543 c-26 -10 -42 -59 -31 -92 21 -59 79 -48 79 16 0 35 12 37
30 4 14 -26 -22 -69 -64 -76 -37 -7 -101 13 -284 90 -62 26 -115 45 -118 43
-5 -6 31 -96 95 -233 53 -114 61 -161 39 -210 -15 -32 -54 -43 -76 -21 -15 15
-14 16 15 16 58 0 71 51 20 80 -24 13 -30 13 -54 0 -57 -32 -65 -105 -15 -138
50 -33 124 -15 155 38 19 32 23 123 7 166 -6 15 -9 29 -7 31 7 6 110 -37 130
-54 25 -24 21 -3 -18 83 -34 74 -34 76 -12 71 100 -24 151 -20 196 19 51 42
51 137 0 164 -19 10 -65 12 -87 3z"/>
<path d="M52 520 c-65 -27 -59 -150 10 -186 32 -16 125 -19 164 -4 15 6 29 9
31 7 6 -7 -37 -111 -55 -131 -16 -18 -16 -18 7 -11 14 4 54 21 89 36 64 29 64
29 59 7 -24 -101 -20 -152 19 -197 58 -70 174 -41 174 43 0 38 -10 55 -40 71
-53 27 -123 -20 -90 -60 7 -8 29 -15 49 -15 l36 -1 -23 -19 c-29 -24 -54 -14
-78 32 -22 42 -10 91 55 241 42 98 74 187 67 187 -8 0 -137 -56 -231 -99 -114
-53 -161 -61 -210 -39 -32 15 -43 54 -21 76 15 15 16 14 16 -14 0 -54 45 -73
74 -32 22 31 20 52 -6 82 -27 29 -63 39 -96 26z"/>
</g>
</svg>
